<?xml version="1.0" encoding="utf-8"?>
<!-- Generator: Adobe Illustrator 21.0.0, SVG Export Plug-In . SVG Version: 6.00 Build 0)  -->
<svg version="1.1" id="Capa_1" xmlns="http://www.w3.org/2000/svg" xmlns:xlink="http://www.w3.org/1999/xlink" x="0px" y="0px"
	 viewBox="0 0 1280 1024" style="enable-background:new 0 0 1280 1024;" xml:space="preserve">
<style type="text/css">
	.st0{fill:#C1C5D6;}
	.st1{fill:#FFFFFF;}
</style>
<g>
	<path class="st0" d="M1089.9,526.5c0,309-141,435.5-450,435.5c-309,0-450-126.5-450-435.5S330.9,62,639.9,62
		C948.9,62,1089.9,217.5,1089.9,526.5"/>
	<path class="st1" d="M683.3,792.5V536.6h85.9l12.9-99.7h-98.8v-63.7c0-28.9,8-48.5,49.4-48.5l52.8,0v-89.2
		c-9.1-1.2-40.5-3.9-76.9-3.9c-76.1,0-128.3,46.5-128.3,131.8v73.5h-86.1v99.7h86.1v255.9H683.3z"/>
</g>
</svg>
