<?xml version="1.0" encoding="utf-8"?>
<!-- Generator: Adobe Illustrator 21.0.0, SVG Export Plug-In . SVG Version: 6.00 Build 0)  -->
<svg version="1.1" id="Capa_1" xmlns="http://www.w3.org/2000/svg" xmlns:xlink="http://www.w3.org/1999/xlink" x="0px" y="0px"
	 viewBox="0 0 1280 1024" style="enable-background:new 0 0 1280 1024;" xml:space="preserve">
<style type="text/css">
	.st0{fill:#C1C5D6;}
	.st1{fill:#FFFFFF;}
</style>
<g>
	<path class="st0" d="M1090.2,526.5c0,309-141,435.5-450,435.5c-309,0-450-126.4-450-435.5c0-309,141-464.5,450-464.5
		C949.2,62,1090.2,217.5,1090.2,526.5"/>
	<g>
		<path class="st1" d="M640.2,273.4c77.7,0,86.9,0.3,117.6,1.7c28.4,1.3,43.8,6,54,10c13.6,5.3,23.3,11.6,33.5,21.8
			c10.2,10.2,16.5,19.9,21.8,33.5c4,10.2,8.7,25.7,10,54c1.4,30.7,1.7,39.9,1.7,117.6c0,77.7-0.3,86.9-1.7,117.6
			c-1.3,28.4-6,43.8-10,54c-5.3,13.6-11.6,23.3-21.8,33.5c-10.2,10.2-19.9,16.5-33.5,21.8c-10.3,4-25.7,8.7-54,10
			c-30.7,1.4-39.9,1.7-117.6,1.7c-77.7,0-86.9-0.3-117.6-1.7c-28.4-1.3-43.8-6-54-10c-13.6-5.3-23.3-11.6-33.5-21.8
			c-10.2-10.2-16.5-19.9-21.8-33.5c-4-10.3-8.7-25.7-10-54c-1.4-30.7-1.7-39.9-1.7-117.6c0-77.7,0.3-86.9,1.7-117.6
			c1.3-28.4,6-43.8,10-54c5.3-13.6,11.6-23.3,21.8-33.5c10.2-10.2,19.9-16.5,33.5-21.8c10.3-4,25.7-8.7,54-10
			C553.3,273.7,562.5,273.4,640.2,273.4 M640.2,221c-79,0-88.9,0.3-120,1.8c-31,1.4-52.1,6.3-70.6,13.5
			c-19.1,7.4-35.4,17.4-51.5,33.5c-16.2,16.2-26.1,32.4-33.6,51.5c-7.2,18.5-12.1,39.7-13.5,70.6c-1.4,31-1.8,41-1.8,120
			c0,79,0.3,88.9,1.8,120c1.4,31,6.3,52.1,13.5,70.6c7.4,19.1,17.4,35.4,33.6,51.6c16.2,16.2,32.4,26.1,51.5,33.6
			c18.5,7.2,39.7,12.1,70.6,13.5c31,1.4,40.9,1.7,120,1.7c79,0,88.9-0.3,120-1.7c31-1.4,52.1-6.3,70.6-13.5
			c19.1-7.4,35.4-17.4,51.5-33.6c16.2-16.2,26.1-32.4,33.6-51.6c7.2-18.5,12.1-39.7,13.5-70.6c1.4-31,1.8-41,1.8-120
			c0-79-0.3-88.9-1.8-120c-1.4-31-6.3-52.1-13.5-70.6c-7.4-19.1-17.4-35.4-33.6-51.5c-16.2-16.2-32.4-26.1-51.5-33.5
			c-18.5-7.2-39.7-12.1-70.6-13.5C729.1,221.3,719.2,221,640.2,221"/>
		<path class="st1" d="M640.2,362.6c-82.5,0-149.4,66.9-149.4,149.4s66.9,149.4,149.4,149.4c82.5,0,149.4-66.9,149.4-149.4
			S722.7,362.6,640.2,362.6 M640.2,609c-53.6,0-97-43.4-97-97c0-53.6,43.4-97,97-97c53.6,0,97,43.4,97,97
			C737.2,565.6,693.8,609,640.2,609"/>
		<path class="st1" d="M830.4,356.7c0,19.3-15.6,34.9-34.9,34.9c-19.3,0-34.9-15.6-34.9-34.9c0-19.3,15.6-34.9,34.9-34.9
			C814.8,321.7,830.4,337.4,830.4,356.7"/>
	</g>
</g>
</svg>
