<svg id="Capa_1" data-name="Capa 1" xmlns="http://www.w3.org/2000/svg" viewBox="0 0 229.45 217.82"><defs><style>.cls-1{fill:#101118;}</style></defs><title>logo</title><polygon class="cls-1" points="121.6 26.33 203.12 107.85 229.45 107.85 121.6 0 13.75 107.85 40.08 107.85 121.6 26.33"/><path class="cls-1" d="M590.16,398.13,604,412c7.55,0,15.08-.18,22.62-.11.68,0,1.36,0,2,0h0l.25,0H629a4.45,4.45,0,0,1,.53,0l.19,0,.33,0h.12l-13.66-13.66L698,316.62V290.29Z" transform="translate(-590.16 -243.32)"/><path class="cls-1" d="M711.74,395.11a4.48,4.48,0,0,1,0-1.73H608.78l-1.38,18.32,88.22.29,16.13-16.13A4.52,4.52,0,0,1,711.74,395.11Z" transform="translate(-590.16 -243.32)"/><path class="cls-1" d="M711.73,367.4v-.27a4.49,4.49,0,0,1,0-1.85V276.81L695.5,292.93v77.28h16.23v-2.69S711.73,367.44,711.73,367.4Z" transform="translate(-590.16 -243.32)"/><polygon class="cls-1" points="105.35 201.69 121.58 217.82 121.58 124.41 105.35 124.41 105.35 201.69"/></svg>