<svg id="Capa_1" data-name="Capa 1" xmlns="http://www.w3.org/2000/svg" viewBox="0 0 709.84 244.61"><defs><style>.cls-1{fill:#101118;}.cls-2{font-size:137.94px;font-family:Montserrat-Thin, Montserrat;}.cls-3{letter-spacing:-0.02em;}</style></defs><title>logoFull</title><polyline class="cls-1" points="128.11 0 14.49 113.62 42.23 113.62 128.11 27.74 213.99 113.62 241.73 113.62 128.11 0"/><path class="cls-1" d="M350.16,381.7l14.59,14.59c8,0,15.88-.19,23.83-.11.72,0,1.43,0,2.14,0h0l.26,0h.06a4.69,4.69,0,0,1,.56,0l.2,0,.34,0h.13l-14.4-14.4,85.88-85.88V268.08L350.16,381.7" transform="translate(-350.16 -218.6)"/><path class="cls-1" d="M478.25,378.51a4.72,4.72,0,0,1,0-1.82H369.78L368.32,396l92.94.3,17-17A4.76,4.76,0,0,1,478.25,378.51Z" transform="translate(-350.16 -218.6)"/><path class="cls-1" d="M478.24,349.32V349a4.73,4.73,0,0,1,0-1.95V253.88l-17.1,17v81.42h17.1v-2.83S478.24,349.36,478.24,349.32Z" transform="translate(-350.16 -218.6)"/><polygon class="cls-1" points="110.99 212.49 128.09 229.48 128.09 131.07 110.99 131.07 110.99 212.49"/><text class="cls-2" transform="translate(144.43 208.88)">quat<tspan class="cls-3" x="316.84" y="0">r</tspan><tspan x="367.61" y="0">o a</tspan></text></svg>