<?xml version="1.0" encoding="utf-8"?>
<!-- Generator: Adobe Illustrator 21.0.0, SVG Export Plug-In . SVG Version: 6.00 Build 0)  -->
<svg version="1.1" id="Capa_1" xmlns="http://www.w3.org/2000/svg" xmlns:xlink="http://www.w3.org/1999/xlink" x="0px" y="0px"
	 viewBox="0 0 1366 768" style="enable-background:new 0 0 1366 768;" xml:space="preserve">
<path d="M1026.7,582.1c1.5,11.2-2,20.9-10.2,29.1l-96.9,96.1c-4.4,4.9-10.1,9-17.1,12.4c-7,3.4-14,5.6-20.8,6.6
	c-0.5,0-1.9,0.1-4.4,0.4c-2.4,0.2-5.6,0.4-9.5,0.4c-9.2,0-24.2-1.6-44.8-4.7c-20.6-3.1-45.9-10.9-75.7-23.3
	c-29.9-12.4-63.7-31-101.6-55.7c-37.9-24.8-78.2-58.8-120.9-102c-34-33.5-62.1-65.5-84.5-96.1c-22.3-30.6-40.3-58.9-53.9-84.9
	c-13.6-26-23.8-49.5-30.6-70.6c-6.8-21.1-11.4-39.3-13.8-54.6c-2.4-15.3-3.4-27.3-2.9-36.1c0.5-8.7,0.7-13.6,0.7-14.6
	c1-6.8,3.2-13.7,6.6-20.8c3.4-7.1,7.5-12.7,12.4-17.1l96.9-96.8c6.8-6.8,14.6-10.2,23.3-10.2c6.3,0,11.9,1.8,16.7,5.5
	c4.9,3.6,9,8.1,12.4,13.5L586,206.2c4.4,7.8,5.6,16.3,3.6,25.5c-1.9,9.2-6.1,17-12.4,23.3l-35.7,35.7c-1,1-1.8,2.5-2.5,4.7
	c-0.7,2.2-1.1,4-1.1,5.5c1.9,10.2,6.3,21.8,13.1,35c5.8,11.6,14.8,25.9,26.9,42.6c12.1,16.7,29.4,36.1,51.7,57.9
	c21.8,22.4,41.3,39.7,58.3,52.1c17,12.4,31.2,21.5,42.6,27.3c11.4,5.8,20.1,9.3,26.2,10.6l9.1,1.8c1,0,2.5-0.4,4.7-1.1
	c2.2-0.7,3.8-1.6,4.7-2.5l41.5-42.3c8.7-7.8,18.9-11.6,30.6-11.6c8.3,0,14.8,1.5,19.7,4.4h0.7l140.6,83
	C1018.7,564.4,1024.7,572.3,1026.7,582.1z"/>
</svg>
