<?xml version="1.0" encoding="utf-8"?>
<!-- Generator: Adobe Illustrator 21.0.0, SVG Export Plug-In . SVG Version: 6.00 Build 0)  -->
<svg version="1.1" id="Capa_1" xmlns="http://www.w3.org/2000/svg" xmlns:xlink="http://www.w3.org/1999/xlink" x="0px" y="0px"
	 viewBox="0 0 1280 1024" style="enable-background:new 0 0 1280 1024;" xml:space="preserve">
<path d="M670.2,533.6c0.1,0.6-0.1,1.2-0.6,1.7l-5.6,5.5c-0.3,0.3-0.6,0.5-1,0.7c-0.4,0.2-0.8,0.3-1.2,0.4c0,0-0.1,0-0.3,0
	c-0.1,0-0.3,0-0.5,0c-0.5,0-1.4-0.1-2.6-0.3c-1.2-0.2-2.6-0.6-4.4-1.3c-1.7-0.7-3.7-1.8-5.8-3.2c-2.2-1.4-4.5-3.4-7-5.9
	c-2-1.9-3.6-3.8-4.9-5.5c-1.3-1.8-2.3-3.4-3.1-4.9c-0.8-1.5-1.4-2.9-1.8-4.1c-0.4-1.2-0.7-2.3-0.8-3.1c-0.1-0.9-0.2-1.6-0.2-2.1
	c0-0.5,0-0.8,0-0.8c0.1-0.4,0.2-0.8,0.4-1.2c0.2-0.4,0.4-0.7,0.7-1l5.6-5.6c0.4-0.4,0.8-0.6,1.3-0.6c0.4,0,0.7,0.1,1,0.3
	c0.3,0.2,0.5,0.5,0.7,0.8l4.5,8.5c0.3,0.4,0.3,0.9,0.2,1.5c-0.1,0.5-0.3,1-0.7,1.3l-2.1,2.1c-0.1,0.1-0.1,0.1-0.1,0.3
	c0,0.1-0.1,0.2-0.1,0.3c0.1,0.6,0.4,1.3,0.8,2c0.3,0.7,0.9,1.5,1.6,2.5c0.7,1,1.7,2.1,3,3.3c1.3,1.3,2.4,2.3,3.4,3
	c1,0.7,1.8,1.2,2.5,1.6c0.7,0.3,1.2,0.5,1.5,0.6l0.5,0.1c0.1,0,0.1,0,0.3-0.1c0.1,0,0.2-0.1,0.3-0.1l2.4-2.4
	c0.5-0.4,1.1-0.7,1.8-0.7c0.5,0,0.9,0.1,1.1,0.3h0l8.1,4.8C669.8,532.6,670.1,533.1,670.2,533.6z"/>
</svg>
