<?xml version="1.0" encoding="utf-8"?>
<!-- Generator: Adobe Illustrator 21.0.0, SVG Export Plug-In . SVG Version: 6.00 Build 0)  -->
<svg version="1.1" id="Capa_1" xmlns="http://www.w3.org/2000/svg" xmlns:xlink="http://www.w3.org/1999/xlink" x="0px" y="0px"
	 viewBox="0 0 1280 1024" style="enable-background:new 0 0 1280 1024;" xml:space="preserve">
<style type="text/css">
	.st0{fill:#C1C5D6;}
	.st1{fill:#FFFFFF;}
</style>
<g>
	<path class="st0" d="M1090.1,526.5c0,309-141,435.5-450,435.5c-309,0-450-126.4-450-435.5c0-309,141-464.5,450-464.5
		C949.1,62,1090.1,217.5,1090.1,526.5"/>
	<path class="st1" d="M804.3,757.8c-19,20.3-63,34-102.4,34.7h-4.3c-132.3,0-161.1-97.3-161.1-154.1V480.6h-52.1
		c-6,0-10.9-4.9-10.9-10.9v-74.5c0-7.9,5-14.9,12.4-17.5c67.9-23.9,89.2-83.2,92.4-128.3c0.8-12,7.2-17.9,17.6-17.9h77.7
		c6,0,10.9,4.9,10.9,10.9v126.2h91c6,0,10.9,4.9,10.9,10.9v89.5c0,6-4.9,10.9-10.9,10.9h-91.4v145.9c0,36.7,24.1,46.8,39.1,46.8
		c14.3-0.3,28.4-4.7,35.5-7.5c5.2-2.1,9.8-3.5,14-2.5c3.8,1,6.4,3.7,8.1,8.6l24.1,70.4C806.7,747.4,808.4,753.5,804.3,757.8"/>
</g>
</svg>
