<?xml version="1.0" encoding="utf-8"?>
<!-- Generator: Adobe Illustrator 21.0.0, SVG Export Plug-In . SVG Version: 6.00 Build 0)  -->
<svg version="1.1" id="Capa_1" xmlns="http://www.w3.org/2000/svg" xmlns:xlink="http://www.w3.org/1999/xlink" x="0px" y="0px"
	 viewBox="0 0 1280 1024" style="enable-background:new 0 0 1280 1024;" xml:space="preserve">
<style type="text/css">
	.st0{fill:#C1C5D6;}
	.st1{fill:#FFFFFF;}
</style>
<g>
	<path class="st0" d="M1070.4,507c0,309-141,435.5-450,435.5c-309,0-450-126.4-450-435.5c0-309,141-464.5,450-464.5
		C929.4,42.5,1070.4,198,1070.4,507"/>
	<path class="st1" d="M529.1,692.5c185.7,0,287.3-153.9,287.3-287.3c0-4.4-0.1-8.7-0.3-13.1c19.7-14.2,36.9-32,50.4-52.3
		c-18.1,8-37.6,13.4-58,15.9c20.8-12.5,36.8-32.3,44.4-55.9c-19.5,11.6-41.1,20-64.1,24.5c-18.4-19.6-44.7-31.9-73.7-31.9
		c-55.8,0-101,45.2-101,101c0,7.9,0.9,15.6,2.6,23c-83.9-4.2-158.3-44.4-208.1-105.5c-8.7,14.9-13.7,32.3-13.7,50.8
		c0,35,17.8,66,44.9,84c-16.6-0.5-32.1-5.1-45.7-12.6c0,0.4,0,0.9,0,1.3c0,48.9,34.8,89.7,81,99c-8.5,2.3-17.4,3.5-26.6,3.5
		c-6.5,0-12.8-0.6-19-1.8c12.9,40.1,50.1,69.3,94.3,70.1c-34.6,27.1-78.1,43.2-125.4,43.2c-8.1,0-16.2-0.5-24.1-1.4
		C419,675.8,472,692.5,529.1,692.5"/>
</g>
</svg>
