<?xml version="1.0" encoding="utf-8"?>
<!-- Generator: Adobe Illustrator 21.0.0, SVG Export Plug-In . SVG Version: 6.00 Build 0)  -->
<svg version="1.1" id="Capa_1" xmlns="http://www.w3.org/2000/svg" xmlns:xlink="http://www.w3.org/1999/xlink" x="0px" y="0px"
	 viewBox="0 0 1280 1024" style="enable-background:new 0 0 1280 1024;" xml:space="preserve">
<path d="M640.3,492.1c-6.7,0-12.2,5.5-12.2,12.2c0,12.2,12.2,26.8,12.2,26.8s12.2-14.6,12.2-26.8
	C652.5,497.6,647.1,492.1,640.3,492.1z M640.3,511.8c-4.1,0-7.5-3.3-7.5-7.5c0-4.1,3.3-7.5,7.5-7.5c4.1,0,7.5,3.3,7.5,7.5
	C647.8,508.5,644.5,511.8,640.3,511.8z M635.6,504.3c0,2.6,2.1,4.7,4.7,4.7s4.7-2.1,4.7-4.7c0-2.6-2.1-4.7-4.7-4.7
	S635.6,501.7,635.6,504.3z"/>
</svg>
