<?xml version="1.0" encoding="utf-8"?>
<!-- Generator: Adobe Illustrator 21.0.0, SVG Export Plug-In . SVG Version: 6.00 Build 0)  -->
<svg version="1.1" id="Capa_1" xmlns="http://www.w3.org/2000/svg" xmlns:xlink="http://www.w3.org/1999/xlink" x="0px" y="0px"
	 viewBox="0 0 1366 768" style="enable-background:new 0 0 1366 768;" xml:space="preserve">
<path d="M683.3,40.6c-118.7,0-215,96.3-215,215c0,215,215,473,215,473s215-258,215-473C898.4,136.9,802.1,40.6,683.3,40.6z
	 M683.3,387.3c-72.7,0-131.7-58.9-131.7-131.7c0-72.7,59-131.7,131.7-131.7c72.7,0,131.7,58.9,131.7,131.7
	C815,328.4,756.1,387.3,683.3,387.3z M600,255.6c0,46,37.3,83.3,83.3,83.3c46,0,83.3-37.3,83.3-83.3c0-46-37.3-83.3-83.3-83.3
	C637.3,172.3,600,209.6,600,255.6z"/>
</svg>
