<?xml version="1.0" encoding="utf-8"?>
<!-- Generator: Adobe Illustrator 21.0.0, SVG Export Plug-In . SVG Version: 6.00 Build 0)  -->
<svg version="1.1" id="Capa_1" xmlns="http://www.w3.org/2000/svg" xmlns:xlink="http://www.w3.org/1999/xlink" x="0px" y="0px"
	 viewBox="0 0 1366 768" style="enable-background:new 0 0 1366 768;" xml:space="preserve">
<style type="text/css">
	.st0{fill:#FFFFFF;}
</style>
<g>
	<g>
		<path class="st0" d="M166.7,389.2c-1.1-1.1-1.8-2.7-1.8-4.4c0-3.5,2.7-6.3,6.2-6.3l1055.7-7.6c3.4,0,6.2,2.7,6.3,6.2
			c0,3.4-2.8,6.3-6.2,6.3L171.1,391C169.4,391,167.8,390.3,166.7,389.2z"/>
		<g>
			<polygon class="st0" points="1226.8,377.2 1131.1,377.9 1118.6,423.5 			"/>
			<path class="st0" d="M1114.2,427.9c-1.6-1.6-2.2-3.9-1.6-6.1l12.6-45.6c0.7-2.7,3.2-4.6,6-4.6l95.6-0.7c2.9,0,5.5,2,6.1,5
				c0.6,2.9-0.9,5.8-3.7,7L1121,429.2c-2.2,1-4.7,0.6-6.5-1C1114.4,428.1,1114.3,428,1114.2,427.9z M1135.9,384.1l-7.9,28.6l67.8-29
				L1135.9,384.1z"/>
		</g>
		<g>
			<polygon class="st0" points="1226.8,377.2 1131.1,377.9 1117.9,332.4 			"/>
			<path class="st0" d="M1126.8,382.3c-0.7-0.7-1.3-1.6-1.6-2.7l-13.2-45.4c-0.7-2.3,0-4.8,1.8-6.4c1.8-1.6,4.3-2,6.5-1.1
				l108.8,44.7c2.7,1.1,4.3,4,3.8,6.9c-0.6,2.9-3.1,5-6.1,5l-95.6,0.7C1129.5,384.1,1127.9,383.4,1126.8,382.3z M1127.5,343.1
				l8.3,28.5l59.9-0.4L1127.5,343.1z"/>
		</g>
		<polygon class="st0" points="235.6,442.5 272.6,384.1 171.1,384.8 134.1,443.2 		"/>
		<path class="st0" d="M129.7,447.7c-0.4-0.4-0.8-0.9-1.1-1.4c-1.1-2-1-4.4,0.2-6.4l37-58.5c1.1-1.8,3.1-2.9,5.2-2.9l101.5-0.7
			c2.3,0,4.4,1.2,5.5,3.2c1.1,2,1,4.4-0.2,6.3l-37,58.5c-1.1,1.8-3.1,2.9-5.2,2.9l-101.5,0.7C132.5,449.5,130.9,448.9,129.7,447.7z
			 M174.5,391l-29.1,45.9l86.7-0.6l29.1-46L174.5,391z"/>
		<polygon class="st0" points="234.8,326.1 272.6,384.1 171.1,384.8 133.2,326.8 		"/>
		<path class="st0" d="M166.7,389.2c-0.3-0.3-0.6-0.7-0.8-1l-37.9-58c-1.2-1.9-1.3-4.4-0.3-6.4c1.1-2,3.2-3.3,5.5-3.3l101.6-0.7
			c2.1,0,4.1,1,5.3,2.8l37.8,57.9c1.3,1.9,1.3,4.3,0.3,6.4c-1.1,2-3.2,3.3-5.5,3.3L171.1,391C169.5,391,167.9,390.4,166.7,389.2z
			 M144.7,333l29.7,45.5l86.7-0.6l-29.7-45.5L144.7,333z"/>
		<path class="st0" d="M262.4,446.7c-2-2-2.5-5.2-0.9-7.8l37-58.5c1.8-2.9,5.7-3.8,8.6-2c2.9,1.8,3.8,5.7,1.9,8.6l-37,58.5
			c-1.8,2.9-5.7,3.8-8.6,1.9C263.1,447.3,262.7,447,262.4,446.7z"/>
		<path class="st0" d="M299.4,388.3c-0.3-0.3-0.6-0.7-0.9-1l-37.8-57.9c-1.9-2.9-1.1-6.7,1.8-8.6c2.9-1.9,6.7-1.1,8.6,1.8l37.8,57.9
			c1.9,2.9,1,6.7-1.8,8.6C304.7,390.7,301.5,390.3,299.4,388.3z"/>
		<path class="st0" d="M293.6,446.5c-2.1-2-2.5-5.2-0.9-7.8l37-58.5c1.9-2.9,5.7-3.8,8.6-1.9c2.9,1.8,3.8,5.7,1.9,8.6l-37,58.5
			c-1.8,2.9-5.7,3.8-8.6,2C294.3,447.1,293.9,446.8,293.6,446.5z"/>
		<path class="st0" d="M330.6,388c-0.3-0.3-0.6-0.7-0.9-1l-37.8-57.9c-1.9-2.9-1.1-6.8,1.8-8.6c2.9-1.9,6.8-1.1,8.6,1.8l37.8,57.9
			c1.9,2.9,1.1,6.8-1.8,8.6C335.9,390.4,332.7,390.1,330.6,388z"/>
	</g>
</g>
</svg>
