<?xml version="1.0" encoding="utf-8"?>
<!-- Generator: Adobe Illustrator 21.0.0, SVG Export Plug-In . SVG Version: 6.00 Build 0)  -->
<svg version="1.1" id="Capa_1" xmlns="http://www.w3.org/2000/svg" xmlns:xlink="http://www.w3.org/1999/xlink" x="0px" y="0px"
	 viewBox="0 0 1366 768" style="enable-background:new 0 0 1366 768;" xml:space="preserve">
<style type="text/css">
	.st0{fill:#DD6E42;}
	.st1{opacity:0.13;}
	.st2{fill:#FFFFFF;}
</style>
<g>
	<circle class="st0" cx="683.4" cy="383.8" r="250"/>
	<path class="st1" d="M829.5,181.9c-357.8-15.4-369.6,313.8-369.7,316.2c-17.6-34.2-27.5-73-27.5-114c0-138.1,111.9-250,250-250
		C737.4,134,788.3,151.8,829.5,181.9z"/>
	<path class="st2" d="M583.9,292.4h191.7c18.6,0,33.7,15.1,33.7,33.6v97.9c0,18.6-15.1,33.6-33.7,33.6c0,0-0.6,0-5.3,0
		c-4.8,0-7.6,4.6-7.4,6.8c1.6,20.8,15.6,25.1,21.9,28.9c2.7,1.6,0.3,2.7-1.7,2.7c-37,0-52.2-16.8-59.2-29.3
		c-5.2-11.1-17.6-9.2-17.6-9.2h-2H583.9c-18.6,0-33.7-15.1-33.7-33.6v-97.9C550.1,307.5,565.2,292.4,583.9,292.4z"/>
</g>
</svg>
