<?xml version="1.0" encoding="utf-8"?>
<!-- Generator: Adobe Illustrator 21.0.0, SVG Export Plug-In . SVG Version: 6.00 Build 0)  -->
<svg version="1.1" id="Capa_1" xmlns="http://www.w3.org/2000/svg" xmlns:xlink="http://www.w3.org/1999/xlink" x="0px" y="0px"
	 viewBox="0 0 1366 768" style="enable-background:new 0 0 1366 768;" xml:space="preserve">
<style type="text/css">
	.st0{fill:#DD6E42;}
	.st1{fill:#FFFFFF;}
</style>
<circle class="st0" cx="682.7" cy="383.8" r="250"/>
<path class="st1" d="M739.4,431.3c3.9,4.5,40.1,40.8,46,48.2c5.1,6.4,6.4,13.8,2.6,21.2c-3.8,7.3-10.9,11.8-19.3,11.5
	c-6-0.2-11.7-3.4-15.6-8c-8.8-10.4-32.7-34.9-41.6-45.2c-0.6-0.7-1.2-1.3-2.1-2.2c-0.9,1.6-1.7,2.9-2.4,4.3
	c-6.4,13.2-12.8,26.4-19.2,39.7c-2.5,5-6.7,6.7-11.9,4.6c-4.5-1.8-7.1-5.3-8.4-9.9c-5.4-19.2-10.8-38.4-16.2-57.5
	c-8.3-29.5-16.6-59-25-88.5c-1.1-4.1-1.8-8.1-0.4-12.2c2.2-6.7,8.6-9.7,16.4-7c5.8,2,11.3,4.9,16.9,7.5
	c41.5,19.4,83,38.9,124.5,58.4c4.5,2.1,7.8,5.1,9,10c1.3,5.6-0.9,9.6-6.4,11.2c-13.9,4.1-27.8,8.2-41.7,12.3
	C743,430,741.4,430.6,739.4,431.3z"/>
<path class="st1" d="M570.9,353.4c6.9,0,11,3,12.2,7.9c1.3,5.1-0.6,10-5.6,12.2c-4.2,1.9-8.8,3.1-13.3,4.3c-7.3,2.1-14.6,4.4-22,6
	c-6.6,1.5-11.5-1.8-13-7.9c-1.5-5.8,1.4-11,7.8-13c8.4-2.6,16.9-4.9,25.4-7.3C565.6,354.7,569,353.8,570.9,353.4z"/>
<path class="st1" d="M672.3,296.3c-8.7-0.1-13.9-8.7-9.7-16.3c5.5-10.1,11.1-20.1,16.8-30c2.5-4.5,6.2-6.1,11.1-5.2
	c4.6,0.8,8.4,4.3,8.9,8.9c0.2,2.1-0.2,4.5-1.1,6.3c-5.6,10.4-11.3,20.8-17.3,31C679.1,294.1,676.3,296.4,672.3,296.3z"/>
<path class="st1" d="M589.4,311.5c-0.1,5.2-2.8,9.9-7.5,11c-2.6,0.6-6,0-8.4-1.3c-10.3-5.3-20.4-10.9-30.4-16.8
	c-5.3-3.1-6.7-9.5-3.9-14.5c2.8-5.1,8.8-7.1,14.3-4.2c10.5,5.5,20.8,11.4,31.1,17.2C587.9,304.8,589.6,307.9,589.4,311.5z"/>
<path class="st1" d="M619.3,290c-4.4,0-8.2-2.4-9.6-7c-3.5-11.4-6.8-22.8-9.8-34.4c-1.6-6.2,1.9-11.4,7.7-12.9
	c5.5-1.4,11.1,1.6,12.9,7.5c3.3,11,6.5,22,9.4,33.1C632,284,627.1,290.1,619.3,290z"/>
</svg>
