<?xml version="1.0" encoding="utf-8"?>
<!-- Generator: Adobe Illustrator 21.0.0, SVG Export Plug-In . SVG Version: 6.00 Build 0)  -->
<svg version="1.1" id="Capa_1" xmlns="http://www.w3.org/2000/svg" xmlns:xlink="http://www.w3.org/1999/xlink" x="0px" y="0px"
	 viewBox="0 0 1366 768" style="enable-background:new 0 0 1366 768;" xml:space="preserve">
<style type="text/css">
	.st0{fill:#DD6E42;}
	.st1{opacity:0.13;}
	.st2{fill:#FFFFFF;}
</style>
<g>
	<circle class="st0" cx="682.7" cy="383.7" r="250"/>
	<path class="st1" d="M822.3,193.4c-337-14.5-348.1,295.5-348.1,297.7c-16.5-32.2-25.9-68.7-25.9-107.4
		c0-130,105.4-235.4,235.4-235.4C735.6,148.3,783.5,165,822.3,193.4z"/>
	<g>
		<path class="st2" d="M787.4,331.4c-7.5-42.6-41.2-76.3-83.5-85.8c-4.7-1-4.9-1.4-11.9-2c-7.1-0.6-11.3-0.5-16.3-0.2
			c-5,0.3-6.2,0.7-9.2,1.3c-36,6.5-62.8,25.9-79,58.7c-11.8,24-14.5,48.9-4.7,74.6c7.2,18.8,16.9,36.3,27.7,53.3
			c18.2,28.6,38.8,55.3,60.5,81.2c3.8,4.6,7.8,9,11.8,13.8c1.1-1.2,2-2.1,2.8-3.1c18.7-21.5,36.4-43.7,52.9-66.9
			c15.2-21.5,29.5-43.6,40.3-67.7C786.9,370.3,791,351.7,787.4,331.4z M682.7,399.1c-31.7,0-57.6-24.9-59.2-56.2c-0.1-1-0.1-2-0.1-3
			s0-2,0.1-3c1.6-31.3,27.5-56.2,59.2-56.2c31.7,0,57.6,24.9,59.2,56.2c0.1,1,0.1,2,0.1,3s0,2-0.1,3
			C740.3,374.2,714.4,399.1,682.7,399.1z"/>
	</g>
</g>
</svg>
