<?xml version="1.0" encoding="utf-8"?>
<!-- Generator: Adobe Illustrator 21.0.0, SVG Export Plug-In . SVG Version: 6.00 Build 0)  -->
<svg version="1.1" id="Capa_1" xmlns="http://www.w3.org/2000/svg" xmlns:xlink="http://www.w3.org/1999/xlink" x="0px" y="0px"
	 viewBox="0 0 1366 768" style="enable-background:new 0 0 1366 768;" xml:space="preserve">
<style type="text/css">
	.st0{fill-rule:evenodd;clip-rule:evenodd;fill:#696D7D;}
	.st1{fill-rule:evenodd;clip-rule:evenodd;fill:#DD6E42;}
	.st2{fill-rule:evenodd;clip-rule:evenodd;fill:#FFFFFF;}
</style>
<g>
	<path class="st0" d="M510.5,322.1h95.2l76.8,134.4l77.6-134.4h95.2c4.2,0,5.8,3.3,6.7,6.7l96.8,274.6c1.7,3.3-3.3,7.5-6.7,7.5
		H413.7c-3.3,0-7.5-3.3-6.7-7.5l96.8-274.6C505.5,325.5,506.4,322.1,510.5,322.1L510.5,322.1z"/>
	<path class="st1" d="M682.5,432.3l-92.7-161.1c-9.2-15.9-14.2-34.2-14.2-53.4c0-59.3,48.4-106.8,107.7-106.8
		c59.3,0,106.9,47.6,106.9,106.8c0,20-5.9,39.2-15.9,55.9L682.5,432.3z"/>
	<path class="st2" d="M684.1,159.4c33.4,0,60.9,26.7,60.9,60.9c0,33.4-27.5,60.9-60.9,60.9c-33.4,0-60.9-27.6-60.9-60.9
		C623.2,186.1,650.8,159.4,684.1,159.4L684.1,159.4z"/>
</g>
</svg>
