<?xml version="1.0" encoding="utf-8"?>
<!-- Generator: Adobe Illustrator 21.0.0, SVG Export Plug-In . SVG Version: 6.00 Build 0)  -->
<svg version="1.1" id="Capa_1" xmlns="http://www.w3.org/2000/svg" xmlns:xlink="http://www.w3.org/1999/xlink" x="0px" y="0px"
	 viewBox="0 0 1366 768" style="enable-background:new 0 0 1366 768;" xml:space="preserve">
<style type="text/css">
	.st0{fill-rule:evenodd;clip-rule:evenodd;fill:#696D7D;}
	.st1{fill-rule:evenodd;clip-rule:evenodd;fill:#C6D2ED;}
</style>
<path class="st0" d="M682.9,111c69.6,0,131.6,28,177.8,73.4c45.4,45.4,72.6,108.2,72.6,176.3c0,69.6-27.2,131.6-72.6,178.5
	C814.5,583.7,752.5,611,682.9,611c-68.1,0-131.6-27.2-176.2-71.8c-45.4-46.9-73.4-108.9-73.4-178.5c0-11.4,0.8-22.7,2.3-33.3
	c1.5-18.9,6-37.1,11.3-54.5c7.6-18.9,18.2-37.1,31-53.7c8.3-12.9,18.2-24.2,28.7-34.8C551.3,139,614.8,111,682.9,111L682.9,111z
	 M532.4,302.3L532.4,302.3l-23.4,21.9l1.5,13.6l3.8,2.3c3.8,2.3,5.3,3.8,6.8,5.3c2.3,0,4.5,0,11.3,0c3.8,0,10.6,0,15.1,0
	c5.3,0,10.6,0.8,12.9,3.8c3,2.3,3.8,5.3,5.3,7.6c1.5,3,2.3,5.3,2.3,7.6c0,5.3-0.8,9.1-4.5,12.9c-10.6,12.1-18.2,21.9-25,28.7
	c-11.3,16.7-18.9,24.2-26.5,27.2c-10.6,3.8-16.6-1.5-32.5-12.9l-10.6-7.6l-12.9,3c9.8,43.1,31.8,80.9,62,111.2
	c42.4,42.4,100.6,68.1,164.9,68.1c65.8,0,124.1-25.7,166.4-68.1c42.4-42.4,68.1-100.6,68.1-166.4c0-33.3-6.8-65.1-19.7-93.8h-35.5
	c-5.3,0-16.6-15.9-27.2-29.5c-6-9.1-12.9-17.4-18.1-19.7c0-1.5-0.8-1.5-2.3-1.5c-11.3-3.8-23.4-6.1-33.3-8.3
	c-10.6-3-18.1-3.8-21.9-3.8c-1.5,0-1.5,0-3,0.8c-2.3,0-6,3-9.8,5.3c-5.3,3.8-12.9,9.1-16.7,6.1l-53.7-25.7
	c-4.5-4.5-9.8-9.8-12.1-12.9c-7.6-9.1-12.9-12.9-12.9-15.1c0-3,2.3-9.1,7.6-19.7l5.3-12.9c4.5,0,9.8-0.8,14.4-0.8
	c6-1.5,12.1-1.5,17.4-1.5c6,0,12.1,0,18.2,0.8c-9.8-1.5-20.4-2.3-31-2.3c-64.3,0-122.5,27.2-164.9,69.6c-3,3-6.1,6.1-8.3,9.1
	c13.6,0.8,25,3.8,25,21.2v71.8C534.7,298.6,533.9,301.6,532.4,302.3L532.4,302.3z"/>
<path class="st1" d="M599.7,424.9L599.7,424.9l9.8-34.8c0-2.3,1.5-4.5,3.8-7.6c3-1.5,4.5-3.8,8.3-3.8v-1.5c2.3,0,4.5-0.8,8.3-0.8
	c3,0.8,5.3,0.8,9.1,3.8l45.4,27.2c7.6,5.3,15.9,9.8,21.9,13.6l5.3,3.8l3.8-12.1c0.8-4.5,2.3-6.8,5.3-9.8c2.3-2.3,6-3.8,9.1-4.5h0.8
	c3.8-1.5,7.6,0,12.1,0.8c2.3,1.5,6,3,7.6,6.8l38.6,50.7c1.5,0.8,2.3,3.8,3.8,4.5c0,3,0,5.3,0,6.8v42.4c0,3.8,0,6.8-1.5,9.1
	c-2.3,3.8-3.8,5.3-6.1,7.6c-6.8,3.8-34.8,23.5-40.1,25.7c-0.8,0-2.3,1.5-3.8,1.5l-1.5,0.7c-1.5,0-2.3,0-5.3,0h-92.3
	c-1.5,0-1.5,0-3,0l-61.3-15.1c-3.8-0.8-8.3-3.8-10.6-6.8c-3.8-3.8-5.3-7.6-5.3-12.1v-41.6c0-2.3,1.5-3.8,1.5-6.8
	c0.8-2.3,2.3-3.8,3.8-6.1L599.7,424.9z M623.9,395.4L623.9,395.4l-10.6,36.3c0,1.5-1.5,3-1.5,3l-33.3,40.8c0,1.5,0,1.5,0,2.3h-0.8
	v1.5V521c0,0.8,0.8,2.3,0.8,2.3c0,1.5,1.5,1.5,3,1.5l60.5,15.1h92.3h1.5h1.5l38.6-25.7l1.5-1.5c0-0.8,0-0.8,0-2.3V468v-1.5V465
	l-39.3-49.9c-0.8-1.5-0.8-1.5-2.3-1.5c0,0-1.5,0-2.3,0h-1.5c-1.5,1.5-1.5,1.5-1.5,3l-6,24.2c-1.5,3.8-6.8,6.1-10.6,5.3
	c-1.5,0-1.5,0-2.3-1.5c-3.8-2.3-7.6-6.1-14.4-9.8c-5.3-4.5-12.9-9.8-21.9-14.4L630,393.1l-0.8-1.5c-1.5,0-1.5,0-3,1.5h-0.8v1.5
	C625.4,394.6,623.9,394.6,623.9,395.4L623.9,395.4z"/>
<path class="st1" d="M790,451.5L790,451.5v-46.2c0-6,2.3-10.6,6.1-14.4c3.8-3.8,9.1-5.3,14.4-5.3h45.4c5.3,0,9.8,1.5,12.9,5.3h1.5
	c3.8,3.8,4.5,8.3,4.5,14.4v33.3c0,3.8-0.8,7.6-3.8,11.4c-2.3,3.8-5.3,6-9.1,6l-46.1,14.4h-1.5H812h-1.5c-2.3,0-3.8,0-6,0
	c-3-0.7-4.6-2.3-5.3-3.8c-3-1.5-5.3-3.8-6.8-6.1C791.5,457.5,790,453.7,790,451.5L790,451.5z M805.9,405.3L805.9,405.3v46.2
	c0,0.8,0.8,0.8,0.8,0.8c0,1.5,0,1.5,1.5,3c0,0,0,0,1.5,0c0,0,0,0,0.8,0h1.5l45.4-12.8c0.8,0,0.8-1.5,2.3-1.5c0-1.5,0-1.5,0-2.3
	v-33.3c0-2.3,0-3-1.5-3v-1.5c0,0-0.8,0-2.3,0h-45.4c-0.8,0-2.3,0-3.8,1.5c0,0-1.5,0.8-1.5,3H805.9z"/>
</svg>
