<?xml version="1.0" encoding="utf-8"?>
<!-- Generator: Adobe Illustrator 21.0.0, SVG Export Plug-In . SVG Version: 6.00 Build 0)  -->
<svg version="1.1" id="Capa_1" xmlns="http://www.w3.org/2000/svg" xmlns:xlink="http://www.w3.org/1999/xlink" x="0px" y="0px"
	 viewBox="0 0 1366 768" style="enable-background:new 0 0 1366 768;" xml:space="preserve">
<style type="text/css">
	.st0{fill-rule:evenodd;clip-rule:evenodd;fill:#C6D2ED;}
	.st1{fill-rule:evenodd;clip-rule:evenodd;fill:#DD6E42;}
	.st2{fill-rule:evenodd;clip-rule:evenodd;fill:#727270;}
	.st3{fill-rule:evenodd;clip-rule:evenodd;fill:#696D7D;}
</style>
<g>
	<path class="st0" d="M721.3,276.8l44.7-14.4v25c-7.6,1.5-15.1,3.8-22.7,6.1c-7.6,3-15.9,7.6-22,14.4V276.8z"/>
	<path class="st1" d="M823.5,140.4l98.5,37.9l0.8,0.8l-0.8,0.8l-99.3,44.7l0,0c-3,0-6.1-0.8-7.6-3c-1.5-1.5-3-3.8-3.8-6.8l0,0v-62.9
		c0-4.6,1.5-6.8,3.8-9.1C816.7,141.2,819.7,140.4,823.5,140.4L823.5,140.4z"/>
	<path class="st2" d="M788.7,110.1h3.8c9.1,0,16.6,7.6,16.6,16.7l0,0c0,5.3-2.2,9.8-6.1,12.9V298c13.7,0.8,27.3,3,37.1,7.6
		c12.9,4.5,20.4,11.4,20.4,19.7c0,8.3-7.6,15.1-20.4,20.5c-12.1,4.5-28,6.8-46.2,6.8c-17.4,0-34.1-2.3-45.5-6.8
		c-13.6-5.3-21.2-12.1-21.2-20.5c0-8.4,7.6-15.2,21.2-19.7c8.4-3.8,18.2-6.1,30.3-6.8V139.7c-4.5-3-6.8-7.6-6.8-12.9l0,0
		C772,117.7,779.6,110.1,788.7,110.1L788.7,110.1z M794,345.8c17.4,0,32.6-2.3,43.2-6.8c10.6-3.8,16.7-8.3,16.7-13.6
		c0-5.3-6.1-9.9-16.7-13.6c-9.1-3.8-21.2-6.1-34.1-6.1v16.7c0,2.3-1.5,5.3-3,6.8c-2.3,2.3-4.5,3-7.6,3H791c-3.8,0-6.8-1.5-8.3-3.8
		c-2.3-1.5-3.8-4.5-3.8-8.3v-14.4c-10.6,1.5-20.5,3-28,6.1c-10.6,3.8-15.9,8.3-15.9,13.6c0,5.3,5.3,9.8,15.9,13.6
		C761.4,343.5,777.3,345.8,794,345.8L794,345.8z"/>
	<path class="st0" d="M815.2,245.7l33.3-10.6V295c-1.5-0.8-3-0.8-3.8-1.5c-9.1-3.1-18.9-5.3-29.5-6.8V245.7z"/>
	<path class="st0" d="M848.5,355.6v209.8l-127.3,41.7V343.5c6.1,6.1,14.4,10.6,22,13.7c15.9,6,34.1,8.3,50.7,8.3
		c16.7,0,34.9-2.3,50.8-8.3C845.5,356.3,847,356.3,848.5,355.6L848.5,355.6z"/>
	<polygon class="st3" points="705.3,607.1 582.6,566.9 582.6,236.7 705.3,276.8 	"/>
	<polygon class="st0" points="565.9,570 443.2,610.1 443.2,279.1 565.9,238.9 	"/>
</g>
</svg>
