<?xml version="1.0" encoding="utf-8"?>
<!-- Generator: Adobe Illustrator 21.0.0, SVG Export Plug-In . SVG Version: 6.00 Build 0)  -->
<svg version="1.1" id="Capa_1" xmlns="http://www.w3.org/2000/svg" xmlns:xlink="http://www.w3.org/1999/xlink" x="0px" y="0px"
	 viewBox="0 0 1366 768" style="enable-background:new 0 0 1366 768;" xml:space="preserve">
<style type="text/css">
	.st0{fill:#FFFFFF;}
</style>
<g>
	<path class="st0" d="M682.1,281.6c33.4,0,37.3,0.1,50.5,0.7c12.2,0.6,18.8,2.6,23.2,4.3c5.8,2.3,10,5,14.4,9.4
		c4.4,4.4,7.1,8.5,9.4,14.4c1.7,4.4,3.7,11,4.3,23.2c0.6,13.2,0.7,17.1,0.7,50.5c0,33.4-0.1,37.3-0.7,50.5
		c-0.6,12.2-2.6,18.8-4.3,23.2c-2.3,5.8-5,10-9.4,14.4c-4.4,4.4-8.5,7.1-14.4,9.4c-4.4,1.7-11,3.8-23.2,4.3
		c-13.2,0.6-17.1,0.7-50.5,0.7c-33.4,0-37.3-0.1-50.5-0.7c-12.2-0.6-18.8-2.6-23.2-4.3c-5.8-2.3-10-5-14.4-9.4
		c-4.4-4.4-7.1-8.5-9.4-14.4c-1.7-4.4-3.7-11-4.3-23.2c-0.6-13.2-0.7-17.1-0.7-50.5c0-33.4,0.1-37.3,0.7-50.5
		c0.6-12.2,2.6-18.8,4.3-23.2c2.3-5.8,5-10,9.4-14.4c4.4-4.4,8.5-7.1,14.4-9.4c4.4-1.7,11-3.8,23.2-4.3
		C644.8,281.8,648.7,281.6,682.1,281.6 M682.1,259.1c-33.9,0-38.2,0.1-51.5,0.8c-13.3,0.6-22.4,2.7-30.3,5.8
		c-8.2,3.2-15.2,7.5-22.1,14.4c-7,7-11.2,13.9-14.4,22.1c-3.1,8-5.2,17-5.8,30.3c-0.6,13.3-0.8,17.6-0.8,51.5
		c0,33.9,0.1,38.2,0.8,51.5c0.6,13.3,2.7,22.4,5.8,30.3c3.2,8.2,7.5,15.2,14.4,22.1c6.9,7,13.9,11.2,22.1,14.4
		c7.9,3.1,17,5.2,30.3,5.8c13.3,0.6,17.6,0.8,51.5,0.8c33.9,0,38.2-0.1,51.5-0.8c13.3-0.6,22.4-2.7,30.3-5.8
		c8.2-3.2,15.2-7.5,22.1-14.4c7-7,11.2-13.9,14.4-22.1c3.1-7.9,5.2-17,5.8-30.3c0.6-13.3,0.8-17.6,0.8-51.5
		c0-33.9-0.1-38.2-0.8-51.5c-0.6-13.3-2.7-22.4-5.8-30.3c-3.2-8.2-7.5-15.2-14.4-22.1c-7-6.9-13.9-11.2-22.1-14.4
		c-8-3.1-17-5.2-30.3-5.8C720.3,259.3,716.1,259.1,682.1,259.1"/>
	<path class="st0" d="M682.1,319.9c-35.4,0-64.2,28.7-64.2,64.2s28.7,64.2,64.2,64.2c35.4,0,64.2-28.7,64.2-64.2
		S717.6,319.9,682.1,319.9 M682.1,425.8c-23,0-41.7-18.7-41.7-41.7c0-23,18.7-41.7,41.7-41.7c23,0,41.7,18.7,41.7,41.7
		C723.8,407.1,705.1,425.8,682.1,425.8"/>
	<path class="st0" d="M763.8,317.4c0,8.3-6.7,15-15,15c-8.3,0-15-6.7-15-15c0-8.3,6.7-15,15-15C757.1,302.4,763.8,309.1,763.8,317.4
		"/>
</g>
</svg>
