<?xml version="1.0" encoding="utf-8"?>
<!-- Generator: Adobe Illustrator 21.0.0, SVG Export Plug-In . SVG Version: 6.00 Build 0)  -->
<svg version="1.1" id="Capa_1" xmlns="http://www.w3.org/2000/svg" xmlns:xlink="http://www.w3.org/1999/xlink" x="0px" y="0px"
	 viewBox="0 0 750 1334" style="enable-background:new 0 0 750 1334;" xml:space="preserve">
<style type="text/css">
	.st0{fill:#FFFFFF;}
	.st1{fill:#709BD2;}
</style>
<g>
	<g>
		<g>
			<g>
				<path class="st0" d="M56.8,552.3l34.4,96.5h0.4L129.4,547l42-3.1l-0.3,17.8l-7,1.2c-4.3,0.8-6.4,3.5-6.3,8.1l3.7,100l13.2-0.3
					l-0.3,18.7l-51.1,3.8l0.3-17.8l7.7-1.2c3.8-0.6,5.7-2.6,5.6-6.1l-2.8-77.1h-0.4l-34,89.9l-20.1,1.5l-30.8-84.2h-0.4l-5.6,81.6
					l13.8-0.4L56.2,698l-50.1,3.7l0.3-17.9l7.7-1.2c3.3-0.5,5.1-2.6,5.4-6.3l7.4-102.3L14,574.2l0.3-18.7L56.8,552.3z"/>
				<path class="st0" d="M185.5,688.4l0.3-17.8l7.7-1.2c3.7-0.6,5.6-2.8,5.6-6.6l1.6-101.9l-12.1,0.2l0.3-18.7l38.2-2.8l58.4,96.2
					h0.4l1.3-81.3l-14,0.4l0.3-18.7l51.8-3.8l-0.3,17.8l-7.7,1.2c-3.4,0.5-5.1,2.9-5.2,7.2l-1.9,120.6l-24.8,1.8l-59.6-97.7h-0.4
					l-1.3,82.9l13.8-0.4l-0.3,18.7L185.5,688.4z"/>
				<path class="st0" d="M422.5,548.5c-1.5-2.7-7.3-3.6-17.4-2.9c-13.2,1-23.1,6.3-30.1,16.1c-6.9,9.7-10.6,23.2-10.8,40.6
					c-0.6,36.1,12.2,53.2,38.3,51.3c0.4,0,2.3-0.2,5.6-0.4c3.3-0.2,6.5-1,9.5-2.1c3-1.2,4.8-2.3,5.4-3.4c0.6-1.1,0.9-2.7,0.9-4.9
					l0.3-17.6l21.6-0.1l-0.6,37.9c-11.1,6.8-25.1,10.9-42.1,12.1c-21.6,1.6-38-3.5-49.2-15.2c-11.2-11.8-16.6-30-16.2-54.9
					c0.2-13.8,2.3-25.8,6.3-36.4c4-10.5,9.3-18.9,15.9-25c12.9-11.9,28.1-18.5,45.6-19.7c14.2-1,27.3,1,39.7,6.1l-0.6,37.3
					l-21.6,3.1l0.3-17.1C423.4,551,423.1,549.4,422.5,548.5z"/>
				<path class="st0" d="M503.1,508.8l-2.2,138l12.1-0.2l-0.3,17.6l-50.5,3.7l0.3-16.7l7-1.2c4.1-0.7,6.2-3.2,6.3-7.5l1.7-108
					c0.1-3.2-1.7-4.8-5.2-4.9l-7.4,0.1l0.3-18.2L503.1,508.8z"/>
				<path class="st0" d="M636.4,637.7l-0.3,17.4l-34.3,2.5l0.2-14.3c-8,12-19.5,18.6-34.6,19.6c-21.9,1.6-32.6-10.2-32.2-35.5
					l0.8-50.7c0.1-4-1.7-5.9-5.2-5.8l-6.8,0.1l0.3-18l37.3-2.8l-1.1,69.5c-0.1,7.8,0.8,13.5,2.9,17.3c2.1,3.8,6.4,5.5,13.1,5
					c6.7-0.5,12-3,16.1-7.6c4.1-4.5,6.2-9.8,6.3-15.8l0.7-46.3c0-2.3-0.3-4-1.1-4.9c-0.8-0.9-2.1-1.3-4.1-1.3l-6.8,0.1l0.3-18
					l37.3-2.8l-1.4,85.9c0,2.3,0.3,3.9,1,4.6c0.7,0.8,2.1,1.2,4.2,1.3L636.4,637.7z"/>
				<path class="st0" d="M652.1,647.3l2-125.8c0.1-3.4-1.7-5-5.2-4.9l-7.4,0.1l0.3-18.2l37.3-2.8l-0.8,52
					c6.5-6.6,15.1-10.3,25.8-11.1c13.3-1,23.7,2.9,31.3,11.6c7.6,8.7,11.3,21.4,11.1,38.3c-0.7,42.2-18.2,64.6-52.3,67.1
					c-7.4,0.5-15.1,0.2-23.1-1C662.8,651.4,656.6,649.6,652.1,647.3z M677.8,574.4l-0.9,56.8c5.3,2.5,11.5,3.5,18.6,3
					c16.2-1.2,24.3-15.3,24.8-42.3c0.4-24.7-7.3-36.5-23.1-35.3c-5.1,0.4-9.6,2.2-13.5,5.6C679.9,565.6,677.9,569.7,677.8,574.4z"/>
			</g>
		</g>
	</g>
	<g>
		<path class="st1" d="M203,446.5l25.4,19.3l72-124.9l17.5,15.9l13.5-33.5c0,0,8.4,8.3,9.1,6.1c0.7-2.2,34.8-87.3,34.8-87.3
			l95.6,159.6l26.5-34.9l21.5,58.6l6.8-22.3l65,134.6l-63.5-95l18.7,74.2l-49.1-99.1l5.8,58.4l-63-78.4l22.6,75.7l-48.4-104.3
			c0,0,12,141.4,12.8,136.9c0.7-4.5-48.3-169.4-48.3-169.4l-5.7,95.7l-14.2-70.4l-36.8,76.5l9.9-60.4l-66.1,122l27.3-102.1
			l-64.9,117l-22.8-37.9l-40.2,51.9L203,446.5z"/>
	</g>
	<g>
		<g>
			<g>
				<path class="st0" d="M256.6,304.1v4.8h-20.1V283h19.6v4.8h-13.7v5.7h12.1v4.7h-12.1v6H256.6z"/>
				<path class="st0" d="M264,308.6c-1.9-0.6-3.5-1.3-4.6-2.2l2-4.5c1.1,0.8,2.4,1.5,4,2c1.5,0.5,3.1,0.7,4.6,0.7
					c1.7,0,3-0.3,3.8-0.8s1.2-1.2,1.2-2c0-0.6-0.2-1.1-0.7-1.5c-0.5-0.4-1.1-0.7-1.9-1c-0.8-0.2-1.8-0.5-3.1-0.8
					c-2-0.5-3.6-0.9-4.9-1.4s-2.3-1.2-3.3-2.3c-1-1.1-1.4-2.4-1.4-4.2c0-1.5,0.4-2.9,1.2-4.1c0.8-1.2,2.1-2.2,3.7-2.9
					c1.6-0.7,3.7-1.1,6-1.1c1.7,0,3.3,0.2,4.9,0.6c1.6,0.4,3,1,4.2,1.7l-1.9,4.6c-2.4-1.4-4.8-2-7.2-2c-1.7,0-2.9,0.3-3.7,0.8
					c-0.8,0.5-1.2,1.3-1.2,2.2s0.5,1.6,1.4,2c0.9,0.4,2.3,0.9,4.3,1.3c2,0.5,3.6,0.9,4.9,1.4c1.3,0.5,2.3,1.2,3.3,2.2
					c0.9,1,1.4,2.4,1.4,4.1c0,1.5-0.4,2.8-1.2,4.1c-0.8,1.2-2.1,2.2-3.7,2.9c-1.7,0.7-3.7,1.1-6.1,1.1
					C267.9,309.4,265.9,309.1,264,308.6z"/>
				<path class="st0" d="M290.1,287.9h-8.4V283h22.6v4.9h-8.3v21h-6L290.1,287.9L290.1,287.9z"/>
				<path class="st0" d="M330.2,297.9c0.8,1.1,1.3,2.5,1.3,4.1c0,2.3-0.9,4-2.7,5.3c-1.8,1.2-4.4,1.8-7.8,1.8h-13.4v-25.9h12.7
					c3.2,0,5.6,0.6,7.3,1.8c1.7,1.2,2.5,2.9,2.5,4.9c0,1.3-0.3,2.4-0.9,3.4c-0.6,1-1.5,1.8-2.5,2.3
					C328.2,296,329.3,296.8,330.2,297.9z M313.5,287.6v6.1h6c1.5,0,2.6-0.3,3.4-0.8c0.8-0.5,1.2-1.3,1.2-2.3s-0.4-1.8-1.2-2.3
					c-0.8-0.5-1.9-0.8-3.4-0.8L313.5,287.6L313.5,287.6z M324.2,303.6c0.8-0.5,1.2-1.3,1.2-2.4c0-2.2-1.6-3.2-4.8-3.2h-7v6.4h7
					C322.2,304.4,323.4,304.2,324.2,303.6z"/>
			</g>
			<g>
				<path class="st0" d="M437.5,283v25.9h-6v-21h-5.2v-4.8L437.5,283L437.5,283z"/>
				<path class="st0" d="M459.8,285.9c2.1,2.2,3.1,5.4,3.1,9.6c0,2.9-0.6,5.5-1.7,7.6s-2.7,3.7-4.7,4.8c-2,1.1-4.3,1.6-7,1.6
					c-1.4,0-2.7-0.2-4-0.5c-1.3-0.3-2.3-0.7-3.2-1.3l2.2-4.4c1.3,0.9,2.9,1.3,4.9,1.3c2.2,0,4-0.7,5.2-2c1.2-1.3,2-3.2,2.1-5.6
					c-1.6,1.6-3.7,2.3-6.5,2.3c-1.7,0-3.2-0.3-4.5-1c-1.4-0.7-2.4-1.6-3.2-2.8c-0.8-1.2-1.2-2.6-1.2-4.3c0-1.7,0.4-3.3,1.3-4.6
					c0.9-1.3,2.1-2.3,3.6-3c1.5-0.7,3.2-1.1,5-1.1C454.9,282.6,457.7,283.7,459.8,285.9z M454.9,293.8c0.8-0.7,1.2-1.7,1.2-2.8
					s-0.4-2.1-1.2-2.8c-0.8-0.7-1.9-1.1-3.3-1.1c-1.3,0-2.3,0.3-3.1,1c-0.8,0.7-1.2,1.6-1.2,2.8s0.4,2.1,1.2,2.8
					c0.8,0.7,1.9,1.1,3.2,1.1C453,294.9,454.1,294.5,454.9,293.8z"/>
				<path class="st0" d="M486.4,297.9c0.7,1,1,2.2,1,3.6c0,1.6-0.5,3-1.4,4.2c-0.9,1.2-2.2,2.1-3.9,2.8c-1.7,0.7-3.6,1-5.8,1
					c-2.2,0-4.1-0.3-5.7-1c-1.6-0.7-2.9-1.6-3.8-2.8c-0.9-1.2-1.4-2.6-1.4-4.2c0-1.4,0.3-2.6,1-3.6c0.7-1,1.7-1.9,2.9-2.5
					c-1-0.6-1.7-1.3-2.2-2.2s-0.8-1.9-0.8-3.1c0-1.5,0.4-2.8,1.3-3.9c0.8-1.1,2-2,3.5-2.6c1.5-0.6,3.2-0.9,5.2-0.9s3.7,0.3,5.3,0.9
					c1.5,0.6,2.7,1.5,3.6,2.6c0.8,1.1,1.3,2.4,1.3,3.9c0,1.2-0.3,2.2-0.8,3.1c-0.5,0.9-1.3,1.7-2.3,2.2
					C484.8,296,485.7,296.9,486.4,297.9z M480,304c0.9-0.7,1.3-1.6,1.3-2.7s-0.4-2-1.3-2.7c-0.9-0.7-2.1-1-3.6-1
					c-1.5,0-2.7,0.3-3.5,1c-0.9,0.7-1.3,1.6-1.3,2.7c0,1.2,0.4,2.1,1.3,2.8c0.9,0.7,2,1,3.5,1C478,305,479.1,304.6,480,304z
					 M473.5,287.9c-0.7,0.6-1.1,1.4-1.1,2.4s0.4,1.8,1.1,2.3c0.7,0.6,1.7,0.9,2.9,0.9s2.2-0.3,3-0.9c0.7-0.6,1.1-1.4,1.1-2.3
					c0-1-0.4-1.8-1.1-2.4c-0.7-0.6-1.7-0.9-3-0.9C475.2,287,474.3,287.3,473.5,287.9z"/>
				<path class="st0" d="M510.9,297.9c0.7,1,1,2.2,1,3.6c0,1.6-0.5,3-1.4,4.2c-0.9,1.2-2.2,2.1-3.9,2.8c-1.7,0.7-3.6,1-5.8,1
					c-2.2,0-4.1-0.3-5.7-1c-1.6-0.7-2.9-1.6-3.8-2.8c-0.9-1.2-1.4-2.6-1.4-4.2c0-1.4,0.3-2.6,1-3.6c0.7-1,1.7-1.9,2.9-2.5
					c-1-0.6-1.7-1.3-2.2-2.2s-0.8-1.9-0.8-3.1c0-1.5,0.4-2.8,1.3-3.9c0.8-1.1,2-2,3.5-2.6c1.5-0.6,3.2-0.9,5.2-0.9
					c2,0,3.7,0.3,5.3,0.9c1.5,0.6,2.7,1.5,3.6,2.6c0.8,1.1,1.3,2.4,1.3,3.9c0,1.2-0.3,2.2-0.8,3.1c-0.5,0.9-1.3,1.7-2.3,2.2
					C509.2,296,510.2,296.9,510.9,297.9z M504.5,304c0.9-0.7,1.3-1.6,1.3-2.7s-0.4-2-1.3-2.7c-0.9-0.7-2.1-1-3.6-1
					c-1.5,0-2.7,0.3-3.5,1c-0.9,0.7-1.3,1.6-1.3,2.7c0,1.2,0.4,2.1,1.3,2.8c0.9,0.7,2,1,3.5,1C502.5,305,503.6,304.6,504.5,304z
					 M498.1,287.9c-0.7,0.6-1.1,1.4-1.1,2.4s0.4,1.8,1.1,2.3c0.7,0.6,1.7,0.9,2.9,0.9c1.2,0,2.2-0.3,3-0.9c0.7-0.6,1.1-1.4,1.1-2.3
					c0-1-0.4-1.8-1.1-2.4c-0.7-0.6-1.7-0.9-3-0.9C499.8,287,498.8,287.3,498.1,287.9z"/>
			</g>
		</g>
	</g>
</g>
</svg>
