<?xml version="1.0" encoding="utf-8"?>
<!-- Generator: Adobe Illustrator 21.0.0, SVG Export Plug-In . SVG Version: 6.00 Build 0)  -->
<svg version="1.1" id="Capa_1" xmlns="http://www.w3.org/2000/svg" xmlns:xlink="http://www.w3.org/1999/xlink" x="0px" y="0px"
	 viewBox="0 0 689.2 250" style="enable-background:new 0 0 689.2 250;" xml:space="preserve">
<style type="text/css">
	.st0{fill:#280003;}
</style>
<title>logoNaranja</title>
<path class="st0" d="M0,60.7c0,0,23.7-22.7,51.9-13.2c9.1,2.5,21.2-5.4,53-1.2s37.3,7.9,64.5-1.2s49.4,14.6,83.7-2.9
	s30-24.9,106.9-30.4s96.5-18.8,151.5-7c-9,5.7-10.4,9.4-10.4,9.4s-41,3.7-57.1,32.3s-65.9,45.5-82.9,52.4s-35.4,31.9-35.4,31.9
	s-16.4-9.5-45-2.7s-54.6-18.2-78.9-13.5s-71.9,12.9-111.6-7.5S15.3,79.3,0,82.3L0,60.7z"/>
<path class="st0" d="M32.8,250h656.3l-19.3-18.7c0,0-67.2-2.3-90.6-22c48.1-2,71.1-2.9,71.1-2.9s-27.4-21.8-36.4-36.3
	c-60.2-8.6-93.1-33-93.1-33s65.8,4.9,83.4,3.7c-1.3-26.3-2.2-35.8-2.2-35.8s-65.9,1.3-97.2-21c69.6-1.2,89.4-1.2,89.4-1.2
	s-19-17.1-34.6-29.2c-19.3-19.4-15.9-30.4-30.6-38.3c-19.2,13.9-53.1,20.4-61.9,30.5s-30.6,48.9-69.7,63.2s-63,22.5-69.8,33
	s-22,30.8-22,30.8s-8.5-8.4-13-7.5s-36.9,6.6-49.4,27.2c-6.8,8-34-4.2-58.3,4.1S84.8,213,32.8,250z"/>
</svg>
