<?xml version="1.0" encoding="utf-8"?>
<!-- Generator: Adobe Illustrator 21.0.0, SVG Export Plug-In . SVG Version: 6.00 Build 0)  -->
<svg version="1.1" id="Capa_1" xmlns="http://www.w3.org/2000/svg" xmlns:xlink="http://www.w3.org/1999/xlink" x="0px" y="0px"
	 viewBox="0 0 750 1334" style="enable-background:new 0 0 750 1334;" xml:space="preserve">
<style type="text/css">
	.st0{fill:#284773;}
	.st1{fill:#709BD2;}
	.st2{fill:none;}
</style>
<g>
	<g>
		<g>
			<path class="st0" d="M56.5,541.1l34.5,96.7l0.4,0l37.9-102l42.1-3.1l-0.3,17.8l-7,1.2c-4.3,0.8-6.4,3.5-6.3,8.1l3.7,100.3
				l13.2-0.3l-0.3,18.7l-51.2,3.8l0.3-17.8l7.7-1.2c3.8-0.6,5.7-2.6,5.6-6.1l-2.8-77.3l-0.4,0l-34.1,90.1l-20.2,1.5l-30.9-84.4
				l-0.4,0l-5.6,81.8l13.8-0.4l-0.3,18.7l-50.2,3.7L6,673l7.7-1.2c3.3-0.5,5.1-2.6,5.4-6.3l7.4-102.6l-12.9,0.1l0.3-18.7L56.5,541.1
				z"/>
			<path class="st0" d="M185.5,677.5l0.3-17.8l7.7-1.2c3.7-0.6,5.6-2.8,5.6-6.6l1.6-102.2l-12.1,0.2l0.3-18.7l38.3-2.8l58.5,96.4
				l0.4,0l1.3-81.5l-14,0.4l0.3-18.7l51.9-3.8l-0.3,17.8l-7.7,1.2c-3.4,0.5-5.1,2.9-5.2,7.2l-1.9,120.9l-24.9,1.8l-59.8-97.9l-0.4,0
				l-1.3,83.1l13.8-0.4l-0.3,18.7L185.5,677.5z"/>
			<path class="st0" d="M423.1,537.3c-1.5-2.7-7.3-3.6-17.4-2.9c-13.2,1-23.2,6.3-30.2,16.1c-6.9,9.7-10.6,23.3-10.8,40.7
				c-0.6,36.2,12.2,53.3,38.4,51.4c0.4,0,2.3-0.2,5.6-0.4c3.3-0.2,6.5-1,9.5-2.1c3-1.2,4.8-2.3,5.4-3.4c0.6-1.1,0.9-2.7,0.9-4.9
				l0.3-17.6l21.7-0.1l-0.6,38c-11.1,6.8-25.2,10.9-42.2,12.1c-21.7,1.6-38.1-3.5-49.3-15.2c-11.2-11.8-16.6-30.1-16.2-55
				c0.2-13.8,2.3-25.9,6.3-36.5c4-10.5,9.3-18.9,15.9-25.1c12.9-11.9,28.2-18.5,45.7-19.8c14.2-1,27.4,1,39.8,6.1l-0.6,37.4
				l-21.7,3.1l0.3-17.1C424,539.8,423.7,538.2,423.1,537.3z"/>
			<path class="st0" d="M504,497.5l-2.2,138.4l12.1-0.2l-0.3,17.6L463,657l0.3-16.7l7-1.2c4.1-0.7,6.2-3.2,6.3-7.5l1.7-108.3
				c0.1-3.2-1.7-4.8-5.2-4.9l-7.4,0.1l0.3-18.2L504,497.5z"/>
			<path class="st0" d="M637.6,626.7l-0.3,17.4l-34.4,2.5l0.2-14.3c-8,12-19.5,18.6-34.7,19.7c-22,1.6-32.7-10.2-32.3-35.6l0.8-50.8
				c0.1-4-1.7-5.9-5.2-5.8l-6.8,0.1l0.3-18l37.4-2.8l-1.1,69.7c-0.1,7.8,0.8,13.5,2.9,17.3c2.1,3.8,6.4,5.5,13.1,5
				c6.7-0.5,12-3,16.1-7.6c4.1-4.5,6.2-9.8,6.3-15.8l0.7-46.4c0-2.3-0.3-4-1.1-4.9c-0.8-0.9-2.1-1.3-4.1-1.3l-6.8,0.1l0.3-18
				l37.4-2.8l-1.4,86.1c0,2.3,0.3,3.9,1,4.6c0.7,0.8,2.1,1.2,4.2,1.3L637.6,626.7z"/>
			<path class="st0" d="M653.3,636.3l2-126.1c0.1-3.4-1.7-5-5.2-4.9l-7.4,0.1l0.3-18.2l37.4-2.8l-0.8,52.1
				c6.5-6.6,15.1-10.3,25.9-11.1c13.3-1,23.8,2.9,31.4,11.6c7.6,8.7,11.3,21.5,11.1,38.4c-0.7,42.3-18.2,64.8-52.4,67.3
				c-7.4,0.5-15.1,0.2-23.2-1C664.1,640.4,657.8,638.6,653.3,636.3z M679.1,563.3l-0.9,56.9c5.3,2.5,11.5,3.5,18.6,3
				c16.2-1.2,24.4-15.3,24.9-42.4c0.4-24.8-7.3-36.6-23.2-35.4c-5.1,0.4-9.6,2.2-13.5,5.6C681.2,554.4,679.2,558.5,679.1,563.3z"/>
		</g>
	</g>
	<g>
		<path class="st1" d="M203.1,435l25.5,19.3l72.2-125.2l17.5,15.9l13.5-33.6c0,0,8.4,8.3,9.1,6.1c0.7-2.2,34.9-87.5,34.9-87.5
			l95.8,160l26.6-35l21.6,58.7l6.8-22.4l65.2,134.9L528.1,431l18.7,74.4L497.6,406l5.8,58.5l-63.2-78.6l22.7,75.9l-48.5-104.6
			c0,0,12,141.8,12.8,137.3c0.7-4.5-48.4-169.8-48.4-169.8l-5.7,95.9l-14.2-70.6L322,426.7l9.9-60.6l-66.3,122.3L293,386
			l-65.1,117.3l-22.9-38l-40.3,52L203.1,435z"/>
	</g>
	<g>
		<g>
			<path class="st0" d="M256.8,292.3v4.8h-20.2v-26h19.7v4.8h-13.7v5.7h12.1v4.7h-12.1v6H256.8z"/>
			<path class="st0" d="M264.2,296.8c-1.9-0.6-3.5-1.3-4.6-2.2l2-4.5c1.1,0.8,2.4,1.5,4,2c1.5,0.5,3.1,0.7,4.6,0.7
				c1.7,0,3-0.3,3.8-0.8c0.8-0.5,1.2-1.2,1.2-2c0-0.6-0.2-1.1-0.7-1.5c-0.5-0.4-1.1-0.7-1.9-1c-0.8-0.2-1.8-0.5-3.1-0.8
				c-2-0.5-3.6-0.9-4.9-1.4c-1.3-0.5-2.3-1.2-3.3-2.3s-1.4-2.4-1.4-4.2c0-1.5,0.4-2.9,1.2-4.1s2.1-2.2,3.7-2.9
				c1.6-0.7,3.7-1.1,6-1.1c1.7,0,3.3,0.2,4.9,0.6c1.6,0.4,3,1,4.2,1.7l-1.9,4.6c-2.4-1.4-4.8-2-7.2-2c-1.7,0-2.9,0.3-3.7,0.8
				c-0.8,0.5-1.2,1.3-1.2,2.2c0,0.9,0.5,1.6,1.4,2c0.9,0.4,2.3,0.9,4.3,1.3c2,0.5,3.6,0.9,4.9,1.4c1.3,0.5,2.3,1.2,3.3,2.2
				c0.9,1,1.4,2.4,1.4,4.1c0,1.5-0.4,2.8-1.2,4.1c-0.8,1.2-2.1,2.2-3.7,2.9c-1.7,0.7-3.7,1.1-6.1,1.1
				C268.1,297.6,266.1,297.3,264.2,296.8z"/>
			<path class="st0" d="M290.4,276H282v-4.9h22.7v4.9h-8.3v21.1h-6V276z"/>
			<path class="st0" d="M330.6,286c0.8,1.1,1.3,2.5,1.3,4.1c0,2.3-0.9,4-2.7,5.3c-1.8,1.2-4.4,1.8-7.8,1.8H308v-26h12.7
				c3.2,0,5.6,0.6,7.3,1.8c1.7,1.2,2.5,2.9,2.5,4.9c0,1.3-0.3,2.4-0.9,3.4c-0.6,1-1.5,1.8-2.5,2.3
				C328.6,284.1,329.7,284.9,330.6,286z M313.9,275.7v6.1h6c1.5,0,2.6-0.3,3.4-0.8c0.8-0.5,1.2-1.3,1.2-2.3c0-1-0.4-1.8-1.2-2.3
				c-0.8-0.5-1.9-0.8-3.4-0.8H313.9z M324.6,291.8c0.8-0.5,1.2-1.3,1.2-2.4c0-2.2-1.6-3.2-4.8-3.2h-7v6.4h7
				C322.6,292.6,323.8,292.4,324.6,291.8z"/>
		</g>
		<g>
			<path class="st0" d="M438.2,271.1v26h-6V276H427v-4.8H438.2z"/>
			<path class="st0" d="M460.5,274c2.1,2.2,3.1,5.4,3.1,9.6c0,2.9-0.6,5.5-1.7,7.6c-1.1,2.1-2.7,3.7-4.7,4.8c-2,1.1-4.3,1.6-7,1.6
				c-1.4,0-2.7-0.2-4-0.5c-1.3-0.3-2.3-0.7-3.2-1.3l2.2-4.4c1.3,0.9,2.9,1.3,4.9,1.3c2.2,0,4-0.7,5.2-2s2-3.2,2.1-5.6
				c-1.6,1.6-3.7,2.3-6.5,2.3c-1.7,0-3.2-0.3-4.5-1c-1.4-0.7-2.4-1.6-3.2-2.8c-0.8-1.2-1.2-2.6-1.2-4.3c0-1.7,0.4-3.3,1.3-4.6
				c0.9-1.3,2.1-2.3,3.6-3c1.5-0.7,3.2-1.1,5-1.1C455.6,270.7,458.4,271.8,460.5,274z M455.6,281.9c0.8-0.7,1.2-1.7,1.2-2.8
				c0-1.1-0.4-2.1-1.2-2.8c-0.8-0.7-1.9-1.1-3.3-1.1c-1.3,0-2.3,0.3-3.1,1c-0.8,0.7-1.2,1.6-1.2,2.8s0.4,2.1,1.2,2.8
				s1.9,1.1,3.2,1.1C453.7,283,454.8,282.6,455.6,281.9z"/>
			<path class="st0" d="M487.2,286c0.7,1,1,2.2,1,3.6c0,1.6-0.5,3-1.4,4.2c-0.9,1.2-2.2,2.1-3.9,2.8c-1.7,0.7-3.6,1-5.8,1
				c-2.2,0-4.1-0.3-5.7-1c-1.6-0.7-2.9-1.6-3.8-2.8c-0.9-1.2-1.4-2.6-1.4-4.2c0-1.4,0.3-2.6,1-3.6s1.7-1.9,2.9-2.5
				c-1-0.6-1.7-1.3-2.2-2.2c-0.5-0.9-0.8-1.9-0.8-3.1c0-1.5,0.4-2.8,1.3-3.9c0.8-1.1,2-2,3.5-2.6c1.5-0.6,3.2-0.9,5.2-0.9
				c2,0,3.7,0.3,5.3,0.9c1.5,0.6,2.7,1.5,3.6,2.6c0.8,1.1,1.3,2.4,1.3,3.9c0,1.2-0.3,2.2-0.8,3.1c-0.5,0.9-1.3,1.7-2.3,2.2
				C485.6,284.1,486.5,285,487.2,286z M480.8,292.2c0.9-0.7,1.3-1.6,1.3-2.7c0-1.1-0.4-2-1.3-2.7c-0.9-0.7-2.1-1-3.6-1
				c-1.5,0-2.7,0.3-3.5,1c-0.9,0.7-1.3,1.6-1.3,2.7c0,1.2,0.4,2.1,1.3,2.8c0.9,0.7,2,1,3.5,1C478.8,293.2,479.9,292.8,480.8,292.2z
				 M474.3,276c-0.7,0.6-1.1,1.4-1.1,2.4c0,1,0.4,1.8,1.1,2.3c0.7,0.6,1.7,0.9,2.9,0.9c1.2,0,2.2-0.3,3-0.9c0.7-0.6,1.1-1.4,1.1-2.3
				c0-1-0.4-1.8-1.1-2.4c-0.7-0.6-1.7-0.9-3-0.9C476,275.1,475.1,275.4,474.3,276z"/>
			<path class="st0" d="M511.8,286c0.7,1,1,2.2,1,3.6c0,1.6-0.5,3-1.4,4.2c-0.9,1.2-2.2,2.1-3.9,2.8c-1.7,0.7-3.6,1-5.8,1
				c-2.2,0-4.1-0.3-5.7-1c-1.6-0.7-2.9-1.6-3.8-2.8c-0.9-1.2-1.4-2.6-1.4-4.2c0-1.4,0.3-2.6,1-3.6s1.7-1.9,2.9-2.5
				c-1-0.6-1.7-1.3-2.2-2.2c-0.5-0.9-0.8-1.9-0.8-3.1c0-1.5,0.4-2.8,1.3-3.9c0.8-1.1,2-2,3.5-2.6c1.5-0.6,3.2-0.9,5.2-0.9
				c2,0,3.7,0.3,5.3,0.9c1.5,0.6,2.7,1.5,3.6,2.6c0.8,1.1,1.3,2.4,1.3,3.9c0,1.2-0.3,2.2-0.8,3.1c-0.5,0.9-1.3,1.7-2.3,2.2
				C510.1,284.1,511.1,285,511.8,286z M505.4,292.2c0.9-0.7,1.3-1.6,1.3-2.7c0-1.1-0.4-2-1.3-2.7c-0.9-0.7-2.1-1-3.6-1
				c-1.5,0-2.7,0.3-3.5,1c-0.9,0.7-1.3,1.6-1.3,2.7c0,1.2,0.4,2.1,1.3,2.8c0.9,0.7,2,1,3.5,1C503.3,293.2,504.5,292.8,505.4,292.2z
				 M498.9,276c-0.7,0.6-1.1,1.4-1.1,2.4c0,1,0.4,1.8,1.1,2.3c0.7,0.6,1.7,0.9,2.9,0.9c1.2,0,2.2-0.3,3-0.9c0.7-0.6,1.1-1.4,1.1-2.3
				c0-1-0.4-1.8-1.1-2.4c-0.7-0.6-1.7-0.9-3-0.9C500.6,275.1,499.6,275.4,498.9,276z"/>
		</g>
	</g>
</g>
<rect x="199.5" y="620.6" class="st2" width="220.1" height="3"/>
</svg>
