<svg id="Capa_1" data-name="Capa 1" xmlns="http://www.w3.org/2000/svg" viewBox="0 0 689.17 250"><defs><style>.cls-1{fill:#dd6e42;}</style></defs><title>logoNaranja</title><path class="cls-1" d="M338.42,320.54s23.68-22.67,51.9-13.18c9.11,2.51,21.17-5.36,53-1.21s37.3,7.93,64.48-1.23,49.37,14.6,83.74-2.92,30-24.92,106.89-30.42,96.55-18.77,151.55-7.05c-9,5.68-10.41,9.37-10.41,9.37s-40.95,3.71-57.13,32.28-65.93,45.53-82.94,52.44-35.41,31.89-35.41,31.89-16.39-9.47-45-2.66-54.56-18.17-78.89-13.54-71.87,12.93-111.6-7.54-74.9-27.61-90.14-24.6Z" transform="translate(-338.42 -259.84)"/><path class="cls-1" d="M371.25,509.84H1027.6l-19.25-18.74s-67.15-2.26-90.63-22c48.13-2,71.05-2.89,71.05-2.89s-27.38-21.84-36.43-36.26c-60.18-8.65-93.14-33-93.14-33s65.78,4.85,83.37,3.66c-1.25-26.3-2.21-35.83-2.21-35.83s-65.9,1.28-97.23-21c69.64-1.16,89.35-1.24,89.35-1.24s-19-17.12-34.61-29.16C878.57,294,882,283,867.31,275.1c-19.22,13.91-53.11,20.39-61.88,30.49s-30.56,48.87-69.65,63.21-63,22.53-69.83,33-22,30.76-22,30.76-8.53-8.39-13-7.47-36.86,6.56-49.41,27.19c-6.78,8-34-4.17-58.27,4.12S423.17,472.87,371.25,509.84Z" transform="translate(-338.42 -259.84)"/></svg>