<?xml version="1.0" encoding="utf-8"?>
<!-- Generator: Adobe Illustrator 21.0.0, SVG Export Plug-In . SVG Version: 6.00 Build 0)  -->
<svg version="1.1" id="Capa_1" xmlns="http://www.w3.org/2000/svg" xmlns:xlink="http://www.w3.org/1999/xlink" x="0px" y="0px"
	 viewBox="0 0 1366 768" style="enable-background:new 0 0 1366 768;" xml:space="preserve">
<style type="text/css">
	.st0{fill:#B8C6F2;}
	.st1{fill:#6E8EE6;}
</style>
<g>
	<g>
		<path class="st0" d="M495.7,227.7c-2.2,1.8-4.8,2.9-7,4.6c-3.2,2.5-4.3,6.3-6.7,9.3c-1.8,2.3-4.3,5.3-7,6.4c-3,1.2-6,0.5-8.7,2.9
			c-1.9,1.7-2.5,4.1-4.2,6c-1.2,1.3-3,2.2-4.5,3.3c-3.1,2.3-5,5.2-7.7,7.8c-3.8,3.6-14.5,1.9-14.6,9.3c-5.5,0.3-10.8,5.2-12.7,10.1
			c-1.3-0.6-2.9-0.8-4.4-1.3c-3.5-1.1-6-3-9.1-4.7c-3.5-2-7.6-5.1-11.5-6.1c-1.8-0.5-8.9-1.8-10.5-0.5c-1,0.9-0.2,3.7-1.9,4.6
			c-1.6,0.8-1.9-0.4-3.4-0.7c-3.9-0.6-2.7,0.2-6.6,2.5c-3.2,1.9-5,2.2-7.1,5.2c-2.3,3.3-6.2,17.2-11.3,16.4
			c-1.2,3.2-3.1,6.1-2.3,10.5c-2.4,0.1-6.3-1.1-8.4,0.7c-1,0.8-1.4,3.5-2.7,5.8c-1.4,2.5-3.5,4.5-4.1,5.8c-1.4,2.9,0.3,5.4-2.2,7.7
			c-3.2,2.8-6.9,3.7-10.7,5.8c-4.4,2.4-8.3,5.1-12.4,8.4c-3.5,2.8-7.6,4.4-9.3,8.7c-0.9,2.2-1.2,4.7-2.2,6.9
			c-0.6,1.3-2.3,2.8-2.4,4.2c-0.1,1.3,0.9,2.5,1.5,3.7c-0.8,2.3-2.2,2.2-3.6,4.1c-0.9,1.2-0.6,2.3-1.1,3.8c-0.6,1.7-1.6,2.9-2,4.6
			c-0.4,1.7-0.3,3.6-1,5.3c-3.2,8.6-10.6,13.1-15.6,20.3c-1.6-1.3-2.8-3.2-4.4-4.2c-5.3,5.7-11.3,9.9-18.3,13.5
			c-16,8.3-27.8,22.8-42.8,32.6c-6.8,4.5-13.3,9.6-20,14.1c-2.5,1.6-5.7,4.2-9.1,6c0.3-0.1,0.7-0.3,1-0.4c3-1.2,5.2-3.3,8-4.8
			c3.1-1.8,6.7-2.3,10-3.8c9.7-4.6,18.3-11.2,28.1-15.6c3.8-1.7,7.8-4.1,11.8-5c2.3-0.5,5-0.7,7.3-1.2c-1,5.2,6.8-3,7.9-4
			c3.5-3.1,8.5-7,9.5-11.8c1.1,0.3,2.7-0.1,3.7,0.4c1.6,0.7,2.4,2.7,3.7,3.7c2.5-5.3,7.1-10,10.1-15c1-1.7,1.8-4.4,3.1-5.8
			c1.2-1.3,3.2-1.8,4.6-2.9c2.9-2.3,4.7-3.1,6.7-6.5c1.6-2.8,2.9-5.5,5.6-6.4c4.4,4,9.3,8.8,9.8,14.9c0.4,4.8-0.2,6.6,3.6,9.7
			c2,1.7,2.6,3.3,3.9,5.2c1.6-0.1,3.7,1.3,5.3,3.1c-1.8-2.6-2.3-6.7-3.4-9.7c-2.1-5.5-4.1-10.8-5.9-16.3c1.7,3.4,3.1,7,4.2,10.5
			c3.7,11.7,12.6,20.9,15.5,32.9c-2-7.1-2.5-14.6-3.6-21.9c-1.3-7.8-2.4-16.1-2.6-24c-0.2-5-0.1-12,1.3-16.9c1-3.4,3.3-6.2,4.3-9.6
			c0.6-2.3,0.7-4.8,1.7-7c0.9-1.8,2.7-3,3.6-4.6c1.2-2.2,1.1-5.9,3.7-6.9c3.6,4.1,4,8.5,5,13.6c0.6,3,2.3,5.8,3,9
			c1,4.3,2.4,8.6,3.4,13c1.2,5.1,1.6,10,3.6,14.9c2.3,5.4,6.2,8.8,9.7,13.6c-2.6-4.3-2.8-9.6-3.1-14.6c-0.9-12.2,1.6-26.2,8.2-36.7
			c2.5-4,5.6-4.3,6.4-9.3c0.5-3,0.4-5.5,2.1-8.4c1-1.8,2.6-2.3,3.6-3.4c3.5-4.4,1.3-12.1,6.4-16.1c4.1-3.2,5.6,0.3,8.1,3.4
			c3.3,4.1,6.7,7.5,9.4,12.1c2.4,3.9,6,6.7,7.9,10.9c1.2,2.7,1.9,5.9,2.9,8.7c1.4,4,2.6,8,4.1,11.8c0.4,1,0.5,1.8,1,2.8
			c1,2.1,3.4,3.5,4.3,4.8c1.3,2,1.2,5.4,1.5,7.7c0.5,3.6,1.9,6.8,2.5,10.2c1.5,7.6,2.1,16.2,2.5,23.8c3-6.6,4-13.4,7.5-19.7
			c6.1-11,4.1-19.7,1.7-31.9c-1.5-7.5-2.4-12.3-7.4-17.9c-5.3-6-8.3-13.7-13.6-19.9c-5.4-6.4-10.3-13.8-15.1-20.7
			c-2.3-3.4-3.3-7.4-5.5-10.9c-2-3.1-4.2-5.9-5.7-9.4c8.7,3.6,17.5,6.9,24.7,12.9c3.1,2.5,5.4,5.5,8.2,8.1c3.8,3.5,8.5,4.6,11.9,8.8
			c4.1,5.1,4.4,10.3,6.5,16.1c1.4,3.7,4.7,5.6,6.8,8.8c2.1,3.3,2.9,6.8,5.4,10c4.4,5.6,8.5,11.3,13.4,16.4
			c-5.6-9.7-8.2-20.7-11.1-31.4c-1.5-5.7-1.8-11.8-4.1-17.3c-2.4-5.9-6.9-11.2-8.7-17.4c5,3.4,6.8,9,10.6,13.7
			c4.2,5.1,7,13.6,12.9,16.9c-1.2-7.5-5.7-14-5.7-21.8c0-3.6-0.9-6.2-1.4-9.5c-0.7-4.4-0.2-9.7-0.3-14.3c1.3,1.1,4.9,1.9,6.6,2.3
			c2.2,0.5,6,1.7,8.1,1.7c0.2-4.4-0.1-8.8,0.1-13.2c0.2-3.5,1.4-5.8,2.3-8.9c0.6-2.1,0.2-4.3,0.5-6.5c0.4-2.6,1.3-4.4,1.2-7.1
			c-0.1-2.3-1.1-4.7-0.9-7c0.2-2.6,2.1-4.7,2.9-7.2c1.1-3.6-1.1-7.3,0.6-10.5c1.5-2.9,5.5-4.5,5.3-8.5
			C495.2,226.8,495.6,227.1,495.7,227.7z"/>
		<path class="st0" d="M619.9,321.9c6.4,9.8,9.4,24.7,27.8,31.5c-4.7-8.3-1.4-29.2-6-42.7c-4-11.9,1.1-24.4-10.6-31.9
			c0.8-0.4-4.9-6-4-6.2c-3.4-10.4,4.7-12.1,7.9-20.4c1.1-2.8,7.2-3.4,8.3-7c1.2-4.3,3.8-10.3,3.4-14.7c-0.6-6.2,5.1-10.4,6.4-18.1
			c0.7-4-0.2-8.2,0.8-11.9c1.1-4.2,5.2-5.8,4.5-11.4c-8.3,9.1-20.7,15.9-28.7,25.3c-7.4,8.7-6.2,24.7-17.2,32.9
			c-3.3-1.5-10.6,10.7-18.9,19.8c-5.8,6.3-16.3,12.4-17.9,15.3c-5,9.2-14,24.2-18.9,25.1c-3.2,0.6-7.3-2.9-11.8-6.9
			c-0.6,5.9,4.7,8.6,5.4,14.8c0.2,1.8,9.1,11.3,11.9,15.4c8.1,11.8,10.4,14.6,11.2,26.9c0.4,3.2,4.8,9.7,6.1,9.5
			c-2.8-9.2-3.4-27-8.7-34.1c4.5-2.6,8.3-5.2,11.8-9.4c3-3.6,5.8-13.9,9.7-17c8.6-6.8,13.6-11.3,13.6-11.3s6.7,1.7,8.3,10.4
			C615.2,310.3,615.6,315.2,619.9,321.9z"/>
		<path class="st0" d="M183.8,470.8c-2.6,1-5.9,2-8.5,2.4C178,473.5,180.9,472.4,183.8,470.8z"/>
		<path class="st0" d="M287.4,289.5c0.1-0.1,0.2-0.1,0.3-0.2C287.2,289,286.7,288.8,287.4,289.5z"/>
		<path class="st0" d="M287.8,345.1c0,1.1-0.1,2.2-0.1,3.3C287.7,347.7,287.8,346.2,287.8,345.1z"/>
		<path class="st0" d="M229.6,348.7c2.4,3.2,1.5,6.8,5.1,9.2c1.7,1.1,3.9,1.2,5.6,2.2c1,0.6,1.7,1.7,2.7,2.3c1.6,1,2.9,1.7,4.4,2.8
			c4.6,3.7,9.4,7.4,13.5,11.5c4.6,4.6,8.7,10.2,12.8,15.3c3.1,3.8,5.1,8.2,8.2,11.9c-0.6-2.4-0.5-4.3-2.4-6.2
			c-5.2-5.1-3.8-10.2-5.5-15.2c-1.3-3.9-5.3-5.9-7.3-9.6c-1.8-3.3-6-8-6.7-11.6c-0.9-5.1,5.5-3.1,5.4-6c0-1.1-3-3.4-3.4-4.9
			c-0.5-1.9-0.2-3.2,0.7-4.7c3-4.9,10-10.9,15.9-8.1c2.8,1.4,3.6,4.6,6.3,5.6c1.1,0.4,0.9-1.6,2.3,0.2c0.2,0.3,0.4,0.9,0.4,1.6
			c0.1-5.2,0.4-10.3,0.2-15.4c-0.4-7.4,0.3-14.4-0.5-21.9c-0.4-3.5-0.4-6.3,0.2-9.6c0.4-2.4-1.9-7.1,0.1-8.4
			c-0.1-0.1-0.2-0.2-0.3-0.3c-2.6,1.8-6.3,6-9.3,6.3c-0.9,0.1-1.9-0.9-3-0.8c-2,0.3-4,2.7-5.4,3.8c-2.2,1.6-5.3,2.3-7.2,4
			c-1.2,1-1.5,2.8-2.6,3.9c-1.9,2.2-6.4,5.4-9.2,5.9c-1,0.2-2.1-0.5-3.2-0.1c-1.3,0.5-2.8,2.5-3.8,3.4c-2.5,2.1-2.4,2.6-3,5.4
			c-1.2,5-6.6,9.5-10.8,12.4c-3.7,2.5-6,6.4-9.2,9.4C223.5,345.2,227.4,345.8,229.6,348.7z"/>
		<path class="st0" d="M174,408.6c-0.5-4.6,0.8-9.2,3.2-12.9c3-4.5,4.1-6.6,3.6-11.6c-0.3-3.4,1.2-6.3,2.8-9.3
			c2.7-5,4.5-10.4,7.1-15.5c1.9-3.6,4.9-7.7,3.8-12c-1.1-4.4-4.5-9.7-4.1-14.4c-2.1,0.3-1.9,0.1-1.6-0.1c-3.3,1.3-6.6,2.9-9.5,5.1
			c-4.6,3.4-8.7,5.4-14.1,7.4c-4.9,1.9-9.7,3.3-13.8,6.8c-3.4,3-6.3,6.6-9.8,9.5c-4.1,3.4-4.8,3.6-9.3,3c-5.3-0.7-9.3,0.6-13.4,3.9
			c-4.6,3.6-8.8,6.7-12.8,11c-1.3,1.3-2.7,3-4.2,4.6c0.1-1.1,0-2.2-0.6-3.7c-0.9-2.2-3.2-5-3.4-6.7c-0.3-2.9,2.8-5.7,4-8.1
			c0.6-1.2,0.8-2.7,1.4-3.8c0.7-1.2,2.3-2.2,2.6-3.5c0.2-0.8-0.6-2.5-0.4-3.6c0.2-1.4,1-2.7,1.3-4c-1.6,3.8-10.2,7.3-13.5,9.4
			c-3.8,2.3-6,7-8.6,10.7c-3,4.2-6.3,7.5-11,10.7c-1.6,1.1-8.8,7.8-5.8,9.1c-0.4,0.9-0.6,1.9-0.5,2.9c0.6-0.1,1.4,0.2,2,0.1
			c0.1,2.2-1.9,4-3.8,5.3c-0.5,0.1-1,0.3-1.5,0.4c0.3,0,0.6,0,0.9,0c-0.2,0.1-0.4,0.2-0.6,0.3c1.1-0.2,2.1-0.3,3.1-0.4
			c0.4,0.1,0.9,0.4,1.3,0.9c1.3,1.6,0.1,2.1,0,4.2c3.9-0.3,10.4-7.1,13.7-2.4c2.7,3.9-2.2,9.7,1.1,13.5c1.1,1.3,2.3,0.8,3.5,1.5
			c1.8,1,1.7,1.1,2.6,3.2c2.6-1.5,3.6-5.5,5.4-7.8c1.2,3.5-1.6,7.1-2.4,10.3c-1.1,4.2,0.3,8.5,1.2,12.5c1,4.2,0.7,8.1,0.8,12.4
			c0.1,4.7,2.4,4.9,4.8,8.2c4.7-3.2,7.7-8.4,13.5-10.3c7-2.3,7.3,3.5,10.5,7.3c2-0.5,2-2.9,2.7-4.6c0.8-2.1,1.4-2.2,2.7-3.4
			c3.3-3.1,8.1-3.5,12.4-4.6c4.8-1.3,6,2.2,6.2,6.7c0.3,6.2-0.3,12.5,0,18.7c2.9-3.9,3.9-9.5,6.5-13.7c1.5-2.5,2.5-4.9,3.9-7.5
			c2.6-5,7.9-10,13.2-12c0.5-4.9,6.4-8.1,6.6-13.7C178.1,414.5,174.4,412.5,174,408.6z"/>
		<path class="st0" d="M724.1,253.5c-0.4,2.6-0.5,4.6-0.6,6.5C724.1,258,724.3,255.9,724.1,253.5z"/>
		<path class="st0" d="M745,274.4c-3.4,3.8-4.4,7.5-7,11.7c-5.9,9.7-20.6,20.9-30.5,26.1c7.1-8.8,5.5-20.4,9.7-31.7
			c1.7-4.5,4-8.6,5.2-12.9c0.9-3.1,1.1-5.3,1.2-7.7c-1.3,4.9-4.2,8.9-5.4,12.2c-2.7,7.4-5.3,13.8-8.7,20.9
			c-3.1,6.5-6.2,10.7-11.6,16.1c-4.2,4.1-8.6,12.4-13.3,14.6c1.9,6.9-4.6,9.3-7.3,14.1c-4.8,8.7-7.2,19.2-14.5,27.4
			c-1.4-2-3.9-2.8-5.5-4.2c-5.8,12-12.7,24.9-23.8,31.3c-5.6,3.2-5.3,0.8-8.7,8.9c-3.1,7.2-7.8,13.1-11.2,19.9
			c5.2-1.1,8.5-3.7,11.8-7.7c2.5-2.9,6.6-10.2,6.6-10.2s4.3,2.1,7.4-0.2c3.6-2.7,8.3-13.6,10.7-17.4c0.5,1.3,2.1,2.5,2.7,3.8
			c5.6-4.8,12-7.1,17.3-12.7c7.1-7.6,6.5-8.2,11.2-16.3c0.8-1.4,2.9-2.5,4.7-5.2c0.8-1.2,0.5-6.4,0.5-6.4s5.3,1.9,5.9,0
			c1.6-5.4,4.7-6.9,6.6-8.8c5.5-5.7,24.3-6.1,20.7-16.6c4.9-1.5,8.9-8.4,12.1-12.4c3.7-4.7,7.4-6.9,11.2-10.6c4.1-4,3.9-10,9.1-18.6
			c0.2-0.4-1-3,0.3-5.9c2.2-4.7,1.9-8.8,1.3-10.8C752.2,268,747.9,271.2,745,274.4z"/>
		<path class="st0" d="M860.5,332.6c0.1-7.6-0.3-14.1,2.7-21.5c2.4-6,7.6-10.9,7.4-17.7c-0.2-6.8-3.8-12.6-6.3-18.6
			c-1.2-2.9-5.6-8.9-0.1-10.6c1.5,2.2,4.7,2.1,6.7,4.5c1.8,2.2,3,4.4,5.4,6.1c3.2,2.3,5.4,3.3,7.9,6.5c2.3,3,4.4,6.5,6.9,9.3
			c-0.1-6,1.3-12.2,0.8-17.9c-0.4-3.9-1.2-9.1-3-12.7c-1.7-3.2-4.9-4.9-6.6-8.1c-2.1-4-0.4-6.7-4.9-9c-3.2-1.6-6.7-1.5-6-6.4
			c-4.6,1.7-9.1,4.6-12.6,6.6c-6.5,3.8-3.5-2.8-5.4-6.9c-5,5.3-13.5,10.7-19.7,14.4c0-1.7,0-3.4,0-5.1c-3.1,3.6-5.1,6.4-7,10.7
			c-1.4,3.4-5.4,9.9-3.9,13.3c3.9-7.1,10.5-10.1,15.4-16.5c0.2,6-2.7,12.5-2.1,18.4c1.9-0.9,2.8-3.2,4.6-4.2c0.7-0.4,2.6-0.7,3-0.9
			c1.3-0.8,3.6-2.3,5.3-4.1c2,4.9-2.7,15-5.6,18.8c-2.4-0.2-3.2-2.6-3.8-4.8c-1.7,2.5,0,6.2-0.3,9.1c-0.3,2.4-1.2,4.6-2.2,7
			c-1.2,3.1-2.3,4.8-1.5,8c0.5,2.1,2.2,3,1.2,5.2c-2.4-1.3-5.1-0.8-7.6-2.3c-2.2-1.3-2.9-3.1-5.9-2.4c2.1,4.3-2.3,7.2,3.2,9.1
			c4.5,1.6,6.4-0.2,10.8,2.8C844.7,318,851.1,330.7,860.5,332.6z"/>
		<path class="st0" d="M1029.8,326.6c-0.5-2,0.1-3.8,2.4-3.6c0.3-2.2-1.4-3.7-1.9-5.5c2.7-0.3,4.6-2.7,7.5-2.5
			c-2.4-0.5-5.1-0.7-7.5-0.8c-2.5-0.1-5.4-1.2-7.4-1.2c-2.8-0.1-10.8,4.3-12.3,7.2C1015.9,321.9,1024.7,328.6,1029.8,326.6z"/>
		<path class="st0" d="M1181.7,373.3c-2.7,1-5.2,1.6-8,2.2c-4.9,1-9.2-1.1-14.2-1.3c-0.4,1.4,0.3,2.6,1.7,3.3
			c-3.2,1-7.5,2.5-10.8,2.8c-2.9,0.3-4.9-1-7.6,0.6c0.5,0.7,0.7,2.4,1.3,3.2c-6.4,3.3-14.6,3-21.5,3.9c-14.4,2-33.8,8-47.3,0.1
			c-5.4-3.2-9.4-7.9-15.1-10.9c-4.7-2.4-8.2-4.9-12-8.4c-2.1-1.9-4.8-4.6-9.1-2.9c9.1,8.9,10.2,25.4,8.1,37.3
			c-1.1,6.4-2.7,13.1-5.3,19c-2.8,6.1-6.1,7.6-12,10.1c-5.4,2.2-9,3.9-14.5,1.9c-6.6-2.5-12-6-19.2-6.8c1.8,1.1,3.5,2.8,4.7,4.4
			c-4.5,3-8.6,6.5-13.8,8.1c-7.2,2.1-18.9,6.8-26.2,4.8c2.3,0.3,4.4,1.6,6.7,2.1c-2.3,2.5-3.1,5.1-6.8,6.3
			c-3.4,1.1-7.6,1.5-11.2,1.7c-10.9,0.5-18.1-1.7-27.2-7c-5.4-3.1-13.2-5.3-19.3-3.4c3.8,1.2,8,4.1,11.2,6.3
			c3.5,2.4,3.1,3.9,3.3,7.7c-8.3,0.2-16.9,2.6-26,4.1c-4.9,0.8-9.8,3.1-9.8,3.1s9.3,7.4,11.3,10c-5.1,0.1-8.8,3.5-14.3,3.3
			c-3.4-0.1-15.4,0-11.4,7.1c-4.3,0.7-8,3.1-12.2,4c-3,0.7-6.5,0.4-9.2,2.1c-2.2,1.4-3.5,3.5-4.5,5.9c7.2-6.3,12.5-5.9,21.5-3.9
			c1.1,0.2,3.3,1.2,4.3,1.1c3.2-0.3,1.5-0.9,4-2.7c3.4-2.3,5.9-1.6,9.8-2.1c6.8-0.8,13.1-3.8,19.7-5.5c8-2.1,16.5-1.8,24.4-4.4
			c2.9-1,5.8-2.1,8.6-3.3c-1.9,3.4-7.6,4.5-10.6,6.1c-1.8,0.9-14.8,6-14.5,8c0.5,3.4,4.7-0.7,5.4-0.9c2.5-0.8,5.9-0.1,8,1.6
			c5.3,4.1-0.7,8.1,0.4,13.7c3,0.3,6.6-1.3,9.5,0.2c2,1,2.5,2.5,4.6,3.5c2.6,1.3,2.4-0.6,4.3,1.8c1.7,2,1.4,5,2,7.3
			c2.3-4.8,5-9.3,3.3-14.4c-1.3-3.7-3.6-4-6.2-6.7c-2.5-2.6-2.2-6.3-4.3-8.7c-2-2.3-5.9-2.1-8.3-3.4c3-2.3,8.3-3.5,6.7-8.2
			c5.4-2.4,10.6-5.1,15.7-7.9c9-4.9,19.6-5.9,28.9-10.7c9.6-4.9,20.8-4,31.4-6.2c9.4-2,17.8-6.7,27-9.4
			c12.8-3.9,24.7-10.4,36.5-16.6c9.8-5.1,18.6-10.1,29-14.3c9.9-4,19.2-10.2,28.7-15.2c2.4-1.2,4.8-2.3,7.3-3.2
			c-1.1,1.9-3.3,2.6-4.2,4.4c-0.4,0.7,0.4,2.1,0,2.9c-0.5,1.2-1.6,1.9-2.2,3c-1.5,2.5-2.3,2.5-0.6,4.6c0.8,1,4.1,2,5.1,1.2
			c2.9,2.8,2.8,7,3,10.7c0.5-0.3,0.6-0.2,1.2-0.6c-0.2,5.9-0.4,14.7-3.1,20.6c4.7-8.2,13.3-17.5,12.8-27.1
			c-0.2-3.5-1.4-7.8-2.8-10.9c-1.1-2.4-6.7-6.9-6.9-9.6c6.1-2.2,12.4-4,18.4-6.8C1165.9,382.7,1177.5,380.4,1181.7,373.3z"/>
		<path class="st0" d="M1245.4,391c-1.4-4.4-4.1-8-4.9-12.3c-0.7-3.8-1.4-7.6-2.4-11.3c-1.8-6.7-7.9-15.8-4.9-22.7
			c-3.4,5.6-15.4,12.4-22,14.4c0.8,1.5,1.5,4.8,0.2,6.3c-2,2.5-1,0-2.9,0.6c-2.1,0.7-6.4,3-9,2.9c-1.3,5.6-2.6,13.7-8.5,14.7
			c-0.8,0.1-1.7-0.6-2.8-0.4c-1.8,0.3-3.6,1.9-5.4,2.5c-3.4,1.3-5.9,1.6-9-0.1c-0.8,5.9,2.7,11.1,0.8,17.2c-1.6,5-5.9,8.7-6.9,14.1
			c-0.2,1,0.6,2.2,0.4,3.1c-0.3,1.8-1.9,3.1-2.4,4.7c-0.7,2.2-0.8,4.8,0,6.9c0.6,1.6,1.8,2.7,2.4,4.5c0.5,1.5,1.5,4.3,1.6,5.8
			c0.9,8.3-4.9,17.6-5.7,25.8c2.8-5.2,7.2-9,10.1-13.5c3.5-5.5,7.5-16.4,8-23.1c0.5-5.5-4.4-13.5-3.1-18c1-3.3,6.2-5.9,9.4-5.5
			c0,2.1,0.5,4.5,2.3,5.6c4-4.7,2.5-12,4.6-17.6c3.5-9.5,12.2-15.9,20.5-20.7c2.9,2.8,2.2,16.3,5.5,16.2c0,1.7,0.2,3.4,0.4,5.1
			c1.5-2.9,4.6-10.6,7.6-12.1c2.7-1.3,4.9,1.3,6.6,2.5c5.5,4,9.4,9.5,12.4,15.9C1247.3,398.8,1246.6,395,1245.4,391z"/>
		<path class="st0" d="M1137.2,440.6c-0.3,0.6-0.7,1.2-0.9,1.7C1136.6,441.8,1136.9,441.2,1137.2,440.6z"/>
		<path class="st0" d="M1105,412.3c-5,2.5-17.1,8.4-16.4,15.2c2.4,0,4-2.1,5.9-3.5c1.3,1.7,1.2,4.5,2,6.6c1.5,4.2,4.5,7.4,6.6,11.3
			c1.6-4.5-2.6-10-1.2-15.1C1103.2,421.4,1105,418.3,1105,412.3z"/>
		<path class="st0" d="M1069.5,441.6c-4.2-0.7-8.4,0.7-12.6-0.2c-2.4-0.5-4.3-1-7.4-0.3c-4.7,1-10.2,1.7-13.3,2.9
			c-6,2.9-12.1,5-18,7.7c1.8,1.6,6.4,1,8.9,2.7c-2.4,3.2-5.2,5-7.1,8.8c5.2-0.5,10.2-2.9,15.5-3.5c3.4-0.4,9.2-2.3,11.8,0
			c3.8,3.4,3.9,12.3,2.8,16.8c-1.2,5-3.8,10.9-6.8,15c5.4-4.4,9.9-9.2,15.9-12.8c-0.2,1.8-1.2,3.3-1.8,5c8.4-8.3,21-16.3,20.4-29.7
			C1077.4,448.1,1076,442.6,1069.5,441.6z"/>
		<path class="st0" d="M1000.1,493c-0.4-2.3,1.3-4.6,1.2-6.4c-0.1-1.5-1.5-3.4-2.7-4.9c-2.1-2.5-4.8-5.1-7.4-7
			c-3-2.2-6.7-3.4-9.5-5.8c-4.2-3.8-0.4-4.9-1.3-9.5c-2.7,2.5-8.6,3.7-10.8,6.5c-0.9,1.2-3.6,8.6-3.3,9.4c0.8,2.1,6,3.2,7.8,4.2
			c2.3,1.3,4.9,2.9,6.7,4.8c4.4,4.6,4.5,8.4,4.5,14c5.5,0.3,11.4-0.1,16.9,0.5c5.3,0.6,8.7,4.8,12.4,8.3c-1.4-3.5-0.7-9-3.4-11.7
			C1009,493.2,1002.7,491.1,1000.1,493z"/>
		<path class="st0" d="M868.9,495.1c-1.6,1.8-4.1,1.9-6.3,1.2c-1.2,6.1-4.6,8.5-9.9,11.6c-3.9,2.3-6.6,1.9-3.2,5.3
			c3.4,3.3,3,1.8,0.2,6.3c3.7,0.2,7.3,1.9,9.6,4.9c2.6,3.2,1.6,7.9,3.5,11.2c0.8-5.3,3.2-11.3,5.5-16.2c1.5-3.2,2.5-5.8,2.1-9.5
			c-0.3-2.8-1.2-5.5,0.1-8.4C870.7,499.5,869.2,497.5,868.9,495.1z"/>
	</g>
	<g>
		<g>
			<path class="st1" d="M668.7,269.4c-0.2,1.5-0.5,2.9-0.7,4.2C668.3,272.2,668.6,270.8,668.7,269.4z"/>
			<path class="st1" d="M668.7,269.4c0.4-2.6,0.9-5.4,1.7-7.5c0.9-2.3,2.9-3.1,2.6-5.9c-0.3-2.4-2.5-3.8-3.2-6.2
				c-0.7-2.6-0.7-6.1-1-8.7c-0.4-4.3-0.3-7,0.7-11.1c0.8-3.2,1.2-6.4-0.1-9.7c-1.3-3.5-4.1-9.5-4.5-10c-5.1,0.3-0.9,9.5-0.8,12.4
				c0.2,5.8,0.1,9.6-2.6,14.5c-1.3,2.4-3.1,6.7-1.9,9.5c1.7,4.1,5.9,6.2,7.3,10.9C668.2,261.9,669,265.5,668.7,269.4z"/>
			<path class="st1" d="M688,259.1c0,0.1,0,0.3,0,0.4C688.1,259.6,688.1,259.4,688,259.1z"/>
			<path class="st1" d="M685.8,292.2c-0.7-2.5-2.3-3.6-1.6-6.5c0.5-2.2,2.4-4,3.2-6.2c1.2-3,2-6.8,2.1-10c0.1-3.4-1.6-6.6-1.6-10
				c-0.3-0.1-1.4-2.5-1.9-4.6c0,5.3-0.7,11.7-2.4,16.7c-1.6,4.6-4.8,8.8-5.6,13.6c-1.1,6.4,4.8,10.4,2.7,17c-2,6.3-5,12.9-8.3,18.4
				c-1.6,2.6-1.3,4.5-1.4,7.3c-0.2,4.4-3.2,8.2-3.3,12.3c1.4-2.7,1.9-6.5,3.1-9.5c1.5-4,4.5-7.4,6.6-11c3.4-5.6,5.7-8.9,6.8-15.3
				C684.9,300.7,686.8,296.2,685.8,292.2z"/>
			<path class="st1" d="M711,295.6c0.2-2.7-1.2-2.3,0.4-4.5c1-1.3,2.7-2,3.7-3.5c2.1-3.1,4.1-7.9,5.4-11.4c2.4,3.4,6.9,5.7,6.7,10.6
				c0.4-3.2,0.9-5.4,0.8-8.3c-0.1-2.7,0.4-6,0-8.9c-0.6-4.6-3.4-10-3.5-14.2c-2.1,4.1-2,8.3-5.6,12.1c-4.3,4.7-4.4,6.2-5.9,12.1
				c-1.1,4.4-4.2,7.3-5.1,11.9c-0.7,4-1.3,8.2-3.9,11.6c-2.1,2.8-5,4.4-7,7c-1.5,1.8-2.9,3.8-4.3,5.7
				C699.1,313.4,710.5,302.9,711,295.6z"/>
			<path class="st1" d="M641,217.7c2.5-3.6,4.4-6.6,3.8-11.3c-2.7,2.7-4.7,6.6-8,8.8v-0.8c-0.9,4.4,0.7,9.3-1.9,14.2
				C638.2,227.8,639.2,220.3,641,217.7z"/>
			<path class="st1" d="M597,285.3c0.9,1.7,1.2,4.6,0.5,6.4c1.2-4.9,4.4-7,4.6-11.8c0.2-4.7,3.1-8.9,3-13.4
				c-3.2,2.4-4.2,6.7-4.2,4.1c-1.6,2.3-8.2,8-7.3,11.2C593.9,282.6,596.4,284,597,285.3z"/>
			<path class="st1" d="M760.6,301.9c0.8,3.6,4.3,7.3,5.8,10.8c2,4.7,4.7,8.9,7.6,13.2c4.5,6.7,6.8,11.6,7.6,19.8
				c1.6-3.6-1.7-9.8-2.6-13.6c-1.2-5,0.2-9.3-2-14.3c-1.9-4.3-2.9-8.9-4.7-12.9c-1.5-3.3-8-10.8-2.7-14c-3.5-2.2-3.8-5.5-6.4-8.8
				c-1.9-2.4-4.4-7.6-7.1-8.8c0.5,5.1,3.8,10.2,5.4,14.8C763.2,293.3,759.6,296.9,760.6,301.9z"/>
			<path class="st1" d="M755,320.3c3.5,10.2,5,21.3,5.9,32c0.6-1.7,1.7-3.8,3.6-4.7c-5.2-1.9-0.9-19.1-2.5-23.5
				c-0.5,0.6-1.5,1-2,1.9c-1.8-5.5-4.2-10-5.1-15.7c-0.8-5.3-1.1-11.1-2.6-16c0,0.5,0,1,0,1.9c0.3,4.1-2,7.3-1.9,11.2
				C750.4,311.3,753.6,316.4,755,320.3z"/>
			<path class="st1" d="M746.9,337c3.2,4.9,5.2,10.5,7.7,15.5c0.1-9-5-13.7-8.8-21.1c-1.5-3-2.1-5.9-3.2-8.8c-1-2.5-3-3.7-3.4-3.8
				c4.7,9.6,7.6,20.1,8.9,30.7C748,345.3,747.6,341,746.9,337z"/>
			<path class="st1" d="M730.7,326.9c1.2,3.3,1.5,6.8,2.4,10.1c0.6,2.4,3.3,4.5,3.1,6.8c5.4-2.8,15.7,33.1,19.6,36.9
				c-2.4-4.7-3.5-9.8-5.6-14.6c-1.5-3.4-3.6-6.5-5.1-9.8c-2.2-5-4.3-9.6-6-14.8c-0.7-2.2-2.1-4.2-2.6-6.4c-0.3-1.6,0.4-3.3,0-4.6
				c-0.9-2.9-4.4-5.3-6.1-7.7C730.2,324.6,731,326.3,730.7,326.9z"/>
			<path class="st1" d="M710.4,347.7c2.1,5.5,9,11.1,12.6,16c2.7,3.6,5.7,7.8,7.8,11.7c2.5,4.6,4.5,12.1,8.7,15.3
				c0.2-4-4.9-8.6-6.4-12.4c-2.6-6.6-5.6-14.5-7.4-21.5c-1.3-5.1-3.4-6-6.5-9.8c-2-2.4-3.7-7.1-4.6-9.1c0.5,1.2-0.8,8-2,10
				C711.8,347.7,711,347.9,710.4,347.7z"/>
			<path class="st1" d="M704.5,376.5c1.9,1.6,4.9,3,6.5,5.1c1.6,2.2,1.6,5.3,3.5,7.2c-0.2-1.1-0.1-2.5-0.2-3.7
				c7.1,0.8,11.7,8.2,17.9,11.1c-2.5-4.1-4-8.8-7.2-12.5c-3.2-3.6-7.7-5-10.7-8.8c-5-6.4-8.3-15.4-12.3-22.6c0,2.7,1.2,5.4,0.9,7.8
				c-0.3,1.7-2.1,1.7-1,3.9c-2.6-1.6-4.9-4.5-8-4.9c-0.2-0.6,0.1-0.9-2.4,0C696.3,364.4,699.1,372,704.5,376.5z"/>
			<path class="st1" d="M800.7,363.2c-0.8-4.9-4.5-8-6.6-12.1c0.6,2.9,1.1,9,1.2,11.1c0.2,4.3,2.2,11,0.8,15.1
				c-1.6-0.3-3.4-1.4-4.9-2.2c0.9,2.9,3.8,4.7,5.2,7.4c1.1,1.9,1.3,4.3,2.5,6.1c2.3,3.2,6.8,5.1,9.6,8c1.9,2,3.4,4.3,5.4,6.2
				c-3.1-9.1-6.7-18.8-11.3-27C800.2,371.4,801.4,367.6,800.7,363.2z"/>
			<path class="st1" d="M793.5,349.6c0.2,0.5,0.4,1,0.7,1.5C793.9,349.9,793.7,349.2,793.5,349.6z"/>
			<path class="st1" d="M779.4,429.3c-9-4.8-14.5-12.3-21.7-19.7c-3.7-3.9-6.9-5.6-12.1-6.8c-5-1.2-6.8-5.3-11.1-6.9
				c2.8,4.6,4.8,7.3,9.6,10.2c5.2,3.2,8,9.3,13,13.2c3.3,2.5,5.9,5.6,9.1,8.2c3.6,2.9,6.6,4,9.4,7.9c4.7,6.6,8.4,14.1,13.5,20.5
				c-1.2-7-8.3-12.4-10-19.2c2.7,1.1,4.7,3.5,6.8,5.6c-1.2-1.4-1-1.4-0.2-2.8c-4.4-4-8.6-8.3-13-12.3c3.1,2.1,6.6,2.9,10.1,4.2
				C781.7,430.6,780.6,429.9,779.4,429.3z"/>
			<path class="st1" d="M795.4,438.5c-0.6-0.2-1.2-0.5-1.7-0.7c2.8,1.9,5.7,3.4,8.3,3.4C800.1,440.2,797.6,439.4,795.4,438.5z"/>
			<path class="st1" d="M785.4,432.4c-0.9-0.4-1.7-0.8-2.6-1.1c3.6,2.3,6.9,4.7,10.8,6.5C790.7,435.9,787.8,433.6,785.4,432.4z"/>
			<path class="st1" d="M810,354.9c3.1-6.4,0.2-13.7-0.9-20.1c-0.9-4.7-0.6-9.8-1.7-14.3c-0.6,6.2-3.9,4.7-8.1,3.3
				c-0.7,0.8,5.2,14.3,6.3,16.9C807.4,345,811.7,350,810,354.9z"/>
			<path class="st1" d="M844.7,341.2c0,2.7-3,8.3-5.8,9.4c-4.1,1.6-4.5-7.1-6.2-10.9c-2.2-4.9-5.1-9.8-7.4-14.7
				c-1,2.6,0.7,7.2,1.3,9.9c1.2,5.1,1.6,9.5,1.5,14.8c-0.1,5.4,3.6,9.4,6.8,14c3.5,5,6.6,8.9,9,14.8c2.3,5.9,3.2,12.6,5.8,18.3
				C842.4,378.1,844.5,360.3,844.7,341.2z"/>
			<path class="st1" d="M823.9,321.8c0.4,1.1,0.9,2.2,1.4,3.2c0.1-0.2,0.1-0.3,0.2-0.5C823.9,323,823.9,321,823.9,321.8z"/>
			<path class="st1" d="M588.3,341.8c-0.3-5.5-4-8.5-3.1-13.8c-1.6,6.2-4.7,10.6-2.8,17.3c1.2,4.6,2.8,8.9,3.8,13.7
				c0.8,3.5,3.1,7.3,2.8,10.8c0-7,0.4-13.8,0.8-20.7c0.3-4.5,2-6.9,3.4-11C591.8,339.5,590.3,341.5,588.3,341.8z"/>
			<path class="st1" d="M496.2,229.5c-0.3,0.7-0.9,1.5-1.6,2.4C495.6,231,496.3,230.1,496.2,229.5z"/>
			<path class="st1" d="M479.1,252.9c0.4,2.2,3.3,3.5,4.5,5.6c1.7,2.9,1.3,5.9,1.1,8.8c-0.3,3.8,0.6,6.4,1.3,10.2
				c-0.5-5.8,3.6-9.7,3.3-15.4c-0.2-4.2-0.2-7.9,0.5-12.1c0.3-1.9,1.4-4.2,1.3-6c-0.1-1.9-1.5-2.7-1-5.2c0.4-2.3,2.7-4.8,4.4-6.9
				c-2.4,2.2-6.7,5-7.7,7.2c-2.2,4.2-0.7,9.6-3.4,13.2c-1.4-1-2.4-3-2.8-4.9C480.7,249.7,478.8,251.2,479.1,252.9z"/>
			<path class="st1" d="M480.4,246.3c0,0.4,0.1,0.7,0.2,1.1C480.6,247,480.5,246.7,480.4,246.3z"/>
			<path class="st1" d="M506.2,235c0.1,0.1,0.1,0.1,0.2,0.2C506.5,235,506.4,234.9,506.2,235z"/>
			<path class="st1" d="M505.4,241.5c2-0.6,3.8-4.2,1-6.4c-0.1,0.4-0.6,1.5-1,2.5c-0.5,1.7-1.1,2.8-1.4,4.6c-0.4,3-0.4,7.4,0.4,10.2
				C504.2,249.5,504.3,244.2,505.4,241.5z"/>
			<path class="st1" d="M507.9,311.2c1.7-4.6,2-9.7,3.5-14.3c0.7-2.3,1.9-10.4,2.9-11.5c0,0.5,0,1,0,1.5c2.4-3.2,3.8-5.1,6.8-7.5
				c1.8-1.4,3.5-2.8,4.6-4.6c2.8-4.3,4.9-10.8,6.3-15.7c-5.1,4.4-7.7,10.2-13.7,13.3c-0.7-0.7-3.4-1.1-3.6-1.4
				c-1.7-2.6,1.5-6.6,2.6-9c1.8-4.2,4.9-7.4,4.3-12.4c-0.6,1-1.9,1.6-2.6,2.4c-1-3.3,2.7-7.4,2.6-11c-2.3-0.2-3.4,1.8-5.5,2.1
				c-0.1-1.8,0.2-3.6,0.4-5.4c-0.5,0.6-3.9,2.7-4.3,5.4c-0.2,1.5,0.8,2.7,0.3,4.6c-0.4,1.6-1.7,2.8-2.2,4.5
				c-1.8,6.9,0.5,14.2-3.5,20.6c-0.4-0.5-1.6-1.6-1.6-1.7c-0.4,2.7,0.8,3.4,1.4,5.7c1.1,4,0,2.8-0.6,6.2c-0.9,5.6,0.6,8.5-2.4,14
				c1.6-0.7,3.2-2.5,4.9-3.3C509.4,299.4,507.2,305.4,507.9,311.2z"/>
			<path class="st1" d="M516.6,237.6c0,0,0,0.1,0,0.1C516.7,237.7,516.7,237.7,516.6,237.6z"/>
			<path class="st1" d="M435.2,287.1c0.4,0.7,3.3,0.8,4.1,1.3c2.1,1.2,2.8,3.3,4.5,4.7c2.2,1.9,4.1,1,6,2.2c2.9,1.7,7,7.4,9.6,10.4
				c3.7,4.3,6.6,10,9.1,15.1c2.6,5.4,4.9,15.9,9.4,19.7c-1.6-6.1-4.9-11.7-7-17.5c-1.6-4.5-2.2-10.2-4.4-14.2
				c-1.6-2.9-4.6-4.5-6.8-6.8c-1.7-1.7-2.6-3.9-4.3-5.7c-3.4-3.7-7.9-6.5-10.7-10.4c-2.4-3.3-2.4-9-6.2-11.2
				c-6.4,4.6-2.8,5.4-2.4,7.8C436.5,283.8,434.7,286.2,435.2,287.1z"/>
			<path class="st1" d="M432.8,300.5c5.4,4.9,11.4,9,16,14.8c1.9,2.4,2.2,4.1,3.1,6.8c1.1,3.3,2.9,5.9,4.8,9
				c3.7,6.1,6.9,12.1,9.8,18.5c1.8,3.9,3.2,8.3,4.8,12.1c2,4.6,5.6,8.2,7.9,12.6c-4.2-7.1-8.5-16.1-9.7-24.2c-1-6.2-4.5-12-7.2-18.3
				c-2.7-6.4-4.5-13.9-9-18.8c-5-5.5-9.8-12.2-15.7-16.8c-3-2.3-6-4.3-8.6-7c-2.8-3-0.9-4.5-2.7-7.6c-1.1,0.5-2,1.4-2.5,3.4
				C422.8,289.4,429.7,297.6,432.8,300.5z"/>
			<path class="st1" d="M549.8,276.5c-0.7-2,1.6-7.1,1.6-9.6c-1.9,0.2-3.5,1.6-5.3,2.2c0.1-3.3-3.1-2.8-3.8-5.6
				c-0.4-0.1-0.8-0.1-0.9-0.4c-0.1,1.6,0.8,4.5,0,6.1c-0.9,2-2.9,1.3-3.4,3.6c0.9,0,1.8,0.7,2.9,0.6c0.6,4.6,1.7,11.2-0.8,15.2
				c-2.9,4.7-8.4,4.5-12.9,6.7c2.2-3.1,4.3-8.8,4.9-12.7c0.4-2.8,1.6-7.3,1-10.1c-1.9,2.3-4.5,5.2-7.6,4.3
				c-1.5,3.6-1.4,7.8-2.2,11.6c-1.1,5.2-4.8,7.7-6.9,12.2c-2.4,5-0.9,11.1-3.6,16.2c-1.9,3.5-4.8,6.3-5.8,10.4
				c4.4-1.9,11.4-10.5,15-13.8c2.1,4,3.5,3.8,5.6,2.2c3.1-2.4,5.9-7.2,9-9.5c3.1-2.3,8.2-8.8,10.7-6.2c3.9-4.4,3.1-9,6-13.8
				c2.2-3.5,2.3-8.5,5.2-11.4C556.1,274.7,551.3,281.3,549.8,276.5z"/>
			<path class="st1" d="M541.5,263.1c0-0.2,0-0.4,0.1-0.5C541.5,262.8,541.5,263,541.5,263.1z"/>
			<path class="st1" d="M393.9,294.4c2.4,3.7,3.7,2.6,6.9,4.8c2.3,1.6,4.5,4.8,6.7,6.7c-1-2.8-2.8-4.9-4-7.6c-1.3-3-0.4-4.5-1.9-7.4
				c-2.5-5-9.6-11.4-12.6-15.1c-3.5,6.9-3.2,10.2-1.6,12.1C389.5,290.5,391.9,291.4,393.9,294.4z"/>
			<path class="st1" d="M451.5,376.2c-0.9-1.8-0.3-4.4-0.8-6.3c-0.5-1.9-1.9-4.3-2.7-6.2c-1.5-3.6-1.7-7.5-3-11
				c-1.3-3.4-3.1-2.8-4.9-4.7c-2.5-2.6-4.4-6.7-6.5-9.7c-2.4-3.3-4.9-4.4-7.8-7.1c-4.2-3.9-6.4-9-10.9-12.8c1.7,2.7,1.7,6.4,3.4,9.3
				c0.5,0.9,1.9,1.2,2.6,2.8c0.7,1.6-0.2,2.6,0.6,4.3c2.7,5.6,9.6,7.8,11.4,14.2c1.2,4,1.5,6.6,3.3,10.4c1.8,3.9,0.3,8.3,1.9,12
				c1.7,3.8,4.6,5.4,4.7,10.3c0,4-0.5,7.3,0.1,11.3c0.4,2.4,1.1,3.5,0.2,5.8c-0.7,1.8-2.1,1.4-2.5,4c-0.2,1.2,0.5,2,0.5,3.1
				c0.2,3.1-0.5,4.2-1.3,7.2c-0.7,2.5-0.4,5.7-1.6,7.9c0.6,0.1,1.4,0,1.9-0.1c0.3-6.1,4.1-12.2,7.1-17.3c2.3-3.8,7-7.3,8.5-11.5
				c-4.5-3.3,0.3-4.1,1.2-6.1c1-2.4,0.5-3.2-1.2-5.3C454.6,379.3,452.3,377.9,451.5,376.2z"/>
			<path class="st1" d="M403.1,326c-2.9-4.8-6.7-10.8-11.1-14.7c-2.1-1.9-4.9-3.7-6.6-6c-2-2.8-3.3-6.2-5.2-9.1
				c-1.7-2.4-9.4-10.2-8.7-12.2c-2.3,2.8-9.3,6.2-7.2,12.1c1-1.6,2-3.4,3.6-4.2c1.6,2.4,3.7,6.7,6.8,6.6c0.7,3.1-1.1,5.6-3.4,7.6
				c-0.3-3.1-2.4-0.3-3.6-2.1c-0.9-1.3-1-5.4-1.1-6.9c-1.5,4.4-5.1,6.7-7.3,11.1c1.3-1.4,2.9-2.5,4.7-2.5c0.1,2.5,2.2,3.8,3.9,5
				c1.3-0.8,2.8-1.2,4.2-1.1c-0.2,2.7-2.4,5.3-3.8,7.6c0-0.2-0.1-0.5-0.1-0.7c-2.4,1.9-2.7,6-1.9,8.7c0.5,1.6,4,9.2,4.8,9.8
				c2.3-3,4-6.2,6.5-9c-1.3,3.1-4.8,11.1-2.1,14.2c2-5.3,3.1-12.1,9-12c-0.9-3.2,4.9-4.5,6.6-6.7c-1.5,3.6-5,4.8-4.2,8.6
				c0.6,3,3.5,5.8,5.2,8.3c0-3.7,2.6-8.2,6.1-7.2c2.1,0.6,3.3,3.7,4.6,5.3c1.8,2.3,4.2,3.9,6.1,5.9c3.2,3.4,5.1,8.2,7.6,12.2
				c2.3,3.6,4.9,6.8,7.3,10.3c1.8,2.7,5.7,7.4,6.2,10.2c-0.7-10.5-7.2-20.2-12.9-28.3C412.1,339.7,407.5,333.1,403.1,326z"/>
			<path class="st1" d="M371.5,284c0.1-0.1,0.2-0.2,0.3-0.3C371.7,283.7,371.6,283.9,371.5,284z"/>
			<path class="st1" d="M504.9,387.5c-1.7,1.3-3.3,1.3-4.8,3.3c-2.7,3.5-5.1,10.6-6.5,14.8c-1.7-2-2.8-6.4-5.9-9
				c1.1,6,1.6,9.5-0.8,15.1c-2,4.8-2.7,10.2-4.4,14.9c-3.2,9.2-9.1,12-16.1,17.4c4.2,2.2,12-6.2,14.7-8.7c2.4-2.3,5.4-4.3,7.4-7
				c2.3-3.1,2.6-6.4,4.4-9.9c1.7-3.1,3.8-6,5.2-9.3c1.7-3.9,1.7-8.4,3.6-12.3c2.8-5.9,7.8-11.7,8.2-18.6
				C509.4,381.8,507.9,385.2,504.9,387.5z"/>
			<path class="st1" d="M609.6,360.8c-1.5-2.6-1.5-6.1-3-8.6c-1.1-2-3.2-2.5-4.1-4.7c1.2-1.1,1.6-2.7,2.7-3.8c2.1-2.1,2.9-1.3,5-2.9
				c1.5-1.2,2-1.4,2.1-3.3c0.1-2.3-1.9-1.5-2.1-3c-0.4-3.2,2.1-4.8,2.5-8c0.5-4.2-2.8-7-2.7-10.9c-4.7,0.8-9.3,1.4-14,2.5
				c2.6-2.9,2.7-6.3,5.4-9.2c1.6-1.8,3.1-2.6,3.5-5.1c0.3-2-0.9-4.2-0.4-5.6c0,1.6-6.1,10.5-9.9,11.3c-0.3,4.4-3.8,8.4-4.3,12.8
				c0.4-0.3,1.2-0.6,1.6-0.9c1.6,2.6,1.4,5.1,1.4,8.1c3.9-3.8,7.9-6.6,13-8.7c1.6,1.7,2.7,6.7,2,9c-0.6,2.2-5.1,8.5-7.1,9.2
				c-1.3,4.9-6.4,9.8-4.1,15.5c0.5-0.4,2-0.8,2.5-1.6c2,3.4,1.8,6.9,3,10.6c6.4-1.8,6.4,16.5,7.3,21.1c1.1-1,1.9-1.9,2.4-3.3
				c0.7,1.4,1.1,3.4,1.2,5.3c-1.9,8.4-2.4,18.1-5.1,26.1c1.5-2.8,4.9-5,6.1-8.1c0.8-2,1.1-5.2,1.6-7.4c1.4-5.8,1.5-13.4,0.6-19.4
				C615.9,372.2,612.4,365.7,609.6,360.8z M613.5,386.9c0,0.3,0,0.6,0,0.9C613.4,387.6,613.5,387.2,613.5,386.9z"/>
			<path class="st1" d="M601,339.2c0,0,0.1,0,0.1,0c0.2-0.7,0.3-1.3,0.3-2C601.3,337.8,601.2,338.5,601,339.2z"/>
			<path class="st1" d="M633,283.2c1.7,2.2,3.7,5.3,4.2,8.1c1.3,7.1,0.5,14.9,2.8,21.9c0.5,1.4,1.7,2.3,2.1,3.7
				c0.9,2.8,0.4,5.9,0.5,8.8c0.2,6.2,2,13.8,7.3,17.8l3.3,2.2c0.5,0.1,0.7,0.7,0.8,0.1c-6.8-6.2-8.9-19.8-8.4-28.4
				c0.2-3.3,1.8-6.6,2.1-9.7c0.2-2.4-0.1-6.3-0.1-9.1c-0.1-5,0.7-14.1-2.7-17.9c-3.5,2.4-3.5-1.2-4.2-3.6c-1.2-3.9-0.9-2.3-3.5-4.7
				c-2.8-2.7-5.9-4.8-5.1-9.1c0.9-5.2,5.1-8.1,8.6-11.6c2-2,3.5-6.7,6.8-6.9c0.6-2.6,1.6-3.9,1.8-6.6c0.2-2.3-1.6-7-0.2-9.1
				c1.4-2.3,3.3-1,4.8-3c0.5-0.8,0.9-4.6,1-5.6c0.6-5.4-2.1-16.3,0.5-22.6l-0.4,0c-2.9,2.9-1.3,10.9-3.3,15
				c-2.2,4.5-7.2,8.9-7.1,14.2c0,2.6,1.1,4.4,0.4,7c-0.7,2.6-2.5,5.5-4.1,7.6c-3.5,4.9-8.1,8.6-10.9,13.9c-2.5,4.6-5.6,7.5-8.8,11.4
				c3.4,2.9,2.8,8.7,5.8,11.8C628.9,281,630.9,280.4,633,283.2z"/>
			<path class="st1" d="M657.4,466.7c-3-4.4-1.7-11.3,0.1-15.9c1.3,0.9,2.5,2.4,2.5,4.2c0-11.1-6.1-20.2-7.4-30.8
				c-2.2,2.5-2.9-0.2-4.9-0.5c-1.9-0.2-4.4,1.5-5.5-1.2c-4.9,1.2-2.3,1.7-5.5-1.4c-1.8-1.7-4.1-2.7-3.5-5.6
				c-1.7,6.4-1.3,6.4-0.9,6.5c-0.2,2.7,1.5,11.6,3,13.3c1.7,1.9,4.2,1.1,6.3,2.6c2.2,1.5,4.1,8.8,7,4.8c0.9,6.6,2.1,13.2,0.3,19.8
				c-0.7,2.4-0.8,6.2-3.7,5.7c-3.9-0.8-3.4-7.2-4.6-9.9c-3.7,1.1-7.1-2-10.4,0.4c-0.6-1.7-0.9-3.6-1.7-5.3c-3.1,1.8-0.1,6.6,0.5,9.3
				c0.5,2.1,0.6,9.9,3,11c2.3,1.1,2-1,3.9-1.7c2.2-0.9,0.7-1.3,3-1.1c1.3,0.1,4.2,3.1,5.6,3.6c5.1,1.7,5.6-0.9,7.4,6
				c0.2-0.4,0.2-0.7,0.4-1.1c0.8,1.2,1.5,3,2.4,3.9c0.1-0.4-0.1-0.8,0-1.2c2.1,3.6,3,9.1,6.4,11.5c1.8-9.2-0.8-19.2-1.3-28.4
				C659.5,465.7,657.9,466.2,657.4,466.7z"/>
			<path class="st1" d="M361.4,399.6c0.8,1.8,1.6,3.3,2.6,4.4C363.7,402.1,362.6,400.8,361.4,399.6z"/>
			<path class="st1" d="M365.5,354.8c-0.5,2.1-2.7,4.1-5.1,2.6c-1.1-0.7-0.4-5.1-1.5-6.4c-1.2-1.5-3.8,0.4-4.9-0.6
				c-4.9-4.2-5.9-12.7-8.3-18c-0.5,0.1-1.1,0.3-1.6,0.5c-0.2-2.6,0.1-5.4-0.6-7.9c-1.3,3-1.1,9.9-3.3,9.9c3,3.7,0.5,10.9,2.4,15.7
				c2.9,7.4,6.1,11.7,6.4,20.2c0.2,7.6,0.9,9.4,4.5,15.5c2,3.3,2.5,7.2,4.9,10.4c0.9,1.2,2,2.2,3,3.2c-2.8-6.6-4.2-16.8-2.9-22
				C360.4,369.9,364.2,362.5,365.5,354.8z"/>
			<path class="st1" d="M330.5,421c-1.7-4-0.9-8.2-3.1-12c-2.5-4.2-3.5-3.6-3.9-9c-0.7-8.2,1-15.4,2.5-23.2c-5.1,5.4-9.9,8.5-15.5,1
				c-2.5-3.4-2.2-8.5-1.8-12.5c0.5-5.2,3.9-7.1,4.6-11.2c-4,3-13.9,16.3-13.9,16.3s6.5,12.1,8.2,16.7c3.3,8.5,6.1,16.4,10.3,24.5
				c1.7,3.4,2.4,7.9,4.5,11c1.6,2.4,4,3.2,5.8,5.3c3.9,4.5,6.3,11.9,8.3,17.3c0.9-8.9-2-19-2.6-27.9
				C333.3,418.5,331.2,419.9,330.5,421z"/>
			<path class="st1" d="M858.1,244.1c-2.3-0.7-3.8-5.6-4.9-7.7c-0.7,0.4-1.7,2.1-1.7,2.9c0.3,8-4.7,13.4-3.4,21.4
				c1.2-3.1,2.6-5.2,4.8-8.2C854.6,250.2,856,245.8,858.1,244.1z"/>
			<path class="st1" d="M891.9,251.3c-4.2-3.9-6.7-7.9-10.3-12c-2.1,1.7-2.8,3.3-5.8,2.2c-1.5-0.5-4.5-2.7-5.1-3.9
				c-0.3,3.6,3.6,7.5,7.1,7.2c0.1,3.9-1.8,7.7,1.3,10.9c2.6,2.8,5.9,1.7,7.9,6.1c2,4.5-0.3,8.4,0.5,13.2c0.7,4.4,3.7,7.7,3.6,12.5
				c-0.3-6.8,1.5-12.2,3-18.3c1.8-7.7,4.6-6.2,8.8-9.3C900.1,256.8,895.1,254.2,891.9,251.3z"/>
			<path class="st1" d="M928.4,277c0.9,3.1,2.6,5.5,2.6,8.8c2.9-2,2.5-4.7,6.5-4.7c2.6,0,4.1,1.6,5.5,3.4c2.6,3.4,4.6,12,2.9,16.2
				c1.9-0.2,3.4-1.8,4.6-3.4c2.3,4.7,4.5-2.4,7.9-1.9c2.3,0.3,7.4,8,9.6,9.6c5.8,4.4,11,8.3,15.7,14.2c-0.4-4.6-3.6-9-5-13.4
				c-1-3.3-1.2-6.1-3-9.2c-1.3,1.6-6.9-5.3-8.7-6.7c-6.7-5.2-13.7-10-20.5-15c-5.7-4.3-11.9-6.1-16.8-11.3c-0.9,2.5-1.3,6.1-3.8,7.8
				c-1.6-1.6-2.3-4.2-4.5-5.2c1.3,4.4,3.8,6.9,3.7,11.9C925.7,277.6,927.8,277.4,928.4,277z"/>
			<path class="st1" d="M891.7,323.2c1.2-4.7,7.3-7.2,6.9-12.2c-0.3-4.1-5.1-6.6-5.8-10.5c-3.3,2.3-10.8,2.5-10.3-3.1
				c-5.4-1-5.8,2.2-7.8-3.1c-1.3-3.5,0.1-7.6-1.7-11c-1.9-3.7-3.9-2.9-6.6-6.5c-0.9-1.2-1.9-3.3-2.3-4.8c-0.5-1.8-2-2.9-1.2-2.1
				c-4.2,5.1,3.8,10.5,3.6,16.1c-0.1,3.8-2.1,12.7-3.6,16.4c-1.3,3.2-4.4,3.6-6,6.6c-1.7,3,0.6,4.2,0.3,6.3c-0.2,2-2.9,4.3-2.7,7.2
				c0.1,1.4,4.1,7.4,4.2,7.8c1.4,5.8,10.8,6.3,15.1,6.2c3.3-0.1,7.3-0.8,10.1,0.3c2.6,1,4.4,3.4,7,4.5c1.8,0.8,3.8,0.9,5.5,1.6
				c1.6,0.7,2.1,2.1,4.2,2.3c0.1-0.5,1.2,1.1,1.1,0.6c0.1,0.1,1.2,1.5,0.8,0.7C898.8,338.1,889.2,333.2,891.7,323.2z"/>
			<path class="st1" d="M966.8,408.1c-0.4-1.4-0.4-3-0.7-4.4c-1.3-5.2-6.9-11.6-5.9-16.8c1,0.3,3-0.2,4.2,0.4
				c-2.2-5.8-6.8-8.4-10.6-13c6.5-4.9-8.9-20.2-11.5-25.5c-2.9-5.9-10.6-8.8-12-15.8c-1.3-6.5,4-8.7,3.7-15.3
				c0.7-0.3,1.5-0.3,2.2-0.3c-0.6-0.7-0.8-1.7-1.5-2.3c8.1-2.7,16.3,7.1,24.8,5.9c-1.3-3.5,1.3-7.4-2.7-10c-3.2-2-7.7,0.9-10.4,0
				c-2-0.7-5-4.4-6.7-5.9c-3.4-2.8-6.7-5.7-10.5-7.9c-1.1,5.3-21.5-6.9-23.9-12c-0.7,6.5,5.8,10.9,8.7,16.1c2.4,4.3,6,9.7,6.1,14.8
				c-1,0.1-1.8,0.7-2.8,0.8c0.3,1.1-0.4,2.8-0.2,4c-0.7,0-1.5,0.2-2.2,0.2c-3.5,6.6,8.2,19.1,11,25.5c-2.8,0.3-5-1.3-6.9-3.3
				c-0.4,0.4,0.2,1.2,0.3,1.5c-0.7,0-2-0.1-2.7,0.2c5.6,5.9,7.1,11.9,10.9,18.7c1,1.8,2.9,3,3.9,4.8c0.6,1.1,0.7,2.3,1,3.5
				c0.4,1.3,1,2.1,1.9,3c1.8,1.8,3.1,4,4.3,6.2c1.4,2.7,2.9,5.2,4.7,7.7c4.2,5.8,10.5,9.6,15.5,14.5c1.6,1.6,3.1,3.2,4.7,4.7
				c2.4,2.2,4.8,4.6,5.6,7.7c0-1.4,0-3.1-0.6-4.4C968.1,410.3,967.2,409.4,966.8,408.1z"/>
			<path class="st1" d="M184.1,417c3.1,0,6.2-3.1,4.6-6.2c-4.6-4.6-6.2-10.8-3.1-15.4c2.5-5.1,8.3-8.3,12.5-12.4
				c0-2.3,0.7-3.6,1.9-5.6c2.3-3.8-0.2-3.1-1.6-6.8c-0.3-0.8-1-3.7-0.8-4.3c0.8-3,3.7-4.2,4.1-7.7c0.2-1.5,0.2-4,0-7.4
				c-0.1,0.2-0.3,0.4-0.4,0.6c0.3-1.1,0.1-2.2-1.1-3.6c-1.7-1.9-3.4-3.9-5.2-5.6c-1.2-1.2-2.3-2.4-3.1-4c-0.5-1-0.6-3.7-1.3-3.3
				c-1.4,2.1-1.1,3-0.5,5.5c0.3,1.1,0.6,2.2,1,3.3c0.2,0.6,1.5,2.3,1.4,2.9c-0.3,2.4-5.7,3-6.6,5.9c-1.6,5.8-4.5,11.5-8.7,16
				c-1.8,1.9-3.2,4-5.6,5c-1.9,0.8-4.8,1.6-5.9,3.5c2.7-0.1,5.5-2.7,8.2-3.3c1.7-0.4,2.8,1.2,4.2,1.4c-0.2,0.2-0.4,0.3-0.5,0.5
				c-3.4,2.9-7.3,10-11.6,11.3c-2.3,0.7-3.7-1-5.9,0.7c-2.2,1.7-3.4,4.7-5.8,6.6c-2.1,1.6-4.5,2.6-6.6,4.2c-2.3,1.8-3.8,4.1-5.9,6.2
				c-3.6,3.7-6.6,7.9-10.2,11.6c4.2-3.9,9-7,12.9-11.2c2.6-2.8,4.9-4.2,8-6.2c1.5-0.9,5.6-6.5,7-6.4c4.7,0.3-0.6,6.4-1.8,7.4
				c-1.8,1.6-4.4,2-6.2,3.5c-3.4,2.7-5.3,7.8-7.4,11.5c2.9-2.8,5.4-6.2,8.9-8.4c1.8-1.1,3-1.5,4.4-3.4c3.3,0.5,2.1,5.9,2,8.4
				c-0.2,5.4,1.7,11.6,3.1,16.9c1.8,6.5-2.1,8.4-6.1,13.5c-2,2.5-3.6,6.2-3.2,9.4c3.7-0.6,5.6-6.4,8.8-8.4c1.8-1.1,6.3-2.9,8.4-2.3
				c4.6,1.4,8,11.4,13.7,8.2c0.1-1.3,0-2.7-0.2-4c3.2-0.6,6.4,3.2,8.2,5.5c2.3,3,2.7,3.5,6.3,4.8c2.3,0.8,2.8,1.3,4.5,1
				c-5.1-6-10.6-12-14.2-18C185.6,432.4,188.7,426.2,184.1,417z"/>
			<path class="st1" d="M281.8,404c0-0.1,0-0.2,0-0.2l-0.3-1C281.6,403.3,281.8,404.1,281.8,404z"/>
			<path class="st1" d="M296.1,343.4c1.4-1.8,6.4-1,8.4-1.7c-1.2-2.9-3.4-5.2-4.5-8.3c-0.9-2.7-4.3-6.6-3-9.5
				c1.2,0.4,2.5,0.6,3.6,1.1c-0.4-1.4-1.5-2.1-2.1-3.2c-0.6-1.2-0.8-2.4-1.4-3.6c-2.1-4-3.1-7.2-3.4-11.8c0.7,0.5,1.5,1.2,2.2,1.8
				c1-2.1,2.1-3.2,0.3-5c-1-1-2.8-1.6-3.8-2.6c-1.2-1.2-2.7-2.9-3.5-4.3c-0.7-1.3-0.5-4.6-2.3-4.4c0.2,2.7,1.8,2.8,0.1,5.1
				c-0.7,1-1.2,0.7-1.3,1.9c-0.1,0.7,0.8,2.5,0.9,3.3c0.5,2.5,0.7,4.9,1.2,7.4c0.3,1.9,1.4,4.3,0.3,6c-0.8-2.1-2.1-4.1-4.4-4.8
				c2,5.3-9.3-1-10.7-2.5c1.5,2.7,5,5.7,7.2,7.9c1.4,1.4,2.9,3,4.2,4.5c-3.3,5.2,0.3,10.9,0.7,16.3c0.2,3.4,0,7.7-0.8,10.9
				c-0.5,2.1-1.4,3.8-2.2,5.8c-0.9,2.2,0.1,2.5,0.1,4.7c0,2.8-1.7,3.9-4.4,4c0.1,1.7-1,2.5-1.8,3.8c-1.9,3-1.1,4.4,0.6,7.3
				c1,1.6,2,3.6,2.8,5.2c1.1,2.3,0,4.6,0.4,7c0.3,1.9,1,0.7,1.9,2.3c1.1,1.9-1.6,4.6-1.4,6.7c0.3,2.4,1.8,4,1.9,6.6
				c0,0.9,0,1.8,0,2.7l0.5,1.2c-0.4-1.2,1.3-2.9,1.6-4.3c1.1-5,1.6-10.5,2.5-15.7c0.8-4.8-1.5-8.2-1.8-12.8
				c-0.2-3.1,3.4-10.2,6.5-5.4c-0.1-2.1,1.2-3.8,2.1-5.6c1.1-2.2,1.6-4.7,2.8-6.9c1.3-2.3,3-2.6,2.4-5.2
				C297.8,347.3,294.8,345.1,296.1,343.4z"/>
			<path class="st1" d="M281.3,402.5l0.1,0.3C281.3,402.4,281.2,402.1,281.3,402.5z"/>
			<path class="st1" d="M255.3,313.3c-1.7-0.4-1.6-0.1-3.4-0.5c-0.9-0.2-3,1-3.4,0.5c0.4,1.9,0.4,1.3-0.6,2.8
				c-0.8,1.2-1.5,1.9-2,3.4c-0.8,2.5-1,8.4,0,10.4c-0.1-2,0.6-6,3-6.6c0.9-0.2,1.7,0.5,2.8,0.8c1.4,0.4,2.7,0.6,3.9,1.1
				C254.3,321.2,250.3,316.5,255.3,313.3z"/>
			<path class="st1" d="M1034.9,328.9c1.2,1,2.4,1.5,3.8,1.8C1038.4,329.4,1035.9,329.2,1034.9,328.9z"/>
			<path class="st1" d="M1034.9,328.9c-0.1-0.1-0.2-0.2-0.4-0.3C1034.5,328.7,1034.7,328.8,1034.9,328.9z"/>
			<path class="st1" d="M1249.1,416.9c3.2-2.3,6.8-4.8,9.2-7.7c-4-5.5-6.1-14.3-5.3-21.1c4.4,1.3,11.2,1.8,15.7,2.1
				c-0.3-2.9,1-5.7,3.2-7.5c-5.1-8.3-15.2-11.9-22.4-17.8c-5.7-4.7-8.7-18.1-16.1-19.8c-1.3,1-1.5,2.1-2.5,5.8
				c-0.3-1.2-0.4,1.6,0.4,3.2c3.9,4.8,3.4,6.1,4.1,12.1c1,7.7,2,10.8,5.4,17.5c2.1,4.2,4.8,10.1,5.9,14.9
				C1248.2,404.1,1245.7,412.7,1249.1,416.9z"/>
			<path class="st1" d="M1106.1,414.6l-0.8-0.8c-3.7,2.9-3.7,7.7-7.5,11.6c1.2,4.3,3.5,14.9,6.5,17.7c0.8-2.7,0.7-6,1.6-8.5
				c0.6-1.5,3.7-4.8,3.8-6.1C1110.5,423.6,1102.7,417.8,1106.1,414.6z"/>
			<path class="st1" d="M1125,407c0,0.3,0.2,0.8,0.5,1.2C1125.8,407.6,1125.8,407.1,1125,407z"/>
			<path class="st1" d="M1118.9,419.9c0.4,3.3,4,4.8,4.8,7.5c1.2,4.1-0.6,10.3-2.4,14.2c5.9-6.3,6.4-16.2,12.1-23.2
				c-1.4-3.2-6.2-7.5-7.9-10.1C1124.5,410.5,1118.5,415.7,1118.9,419.9z"/>
			<path class="st1" d="M1157.6,387.3l-15.9,3.8c-7.9,4.6,1.4,10.4,3,14c2,4.4,1.6,15.1-0.1,19.8c3.6-3.4,6.1-6.7,6.9-11.5
				c1-5.8-1.8-6.3-3.3-10C1144.4,393.7,1151.8,393.4,1157.6,387.3z"/>
			<path class="st1" d="M1172.7,379.7l0.2,0.3c-6,0.7,0.6,10.8,0.5,15.3c-0.1,4-1.9,11.5-4.3,14.7c2.5-1.8,7.3-4.3,9-7.3
				c1.7-2.8,0.2-7.8,2-10.8c2.8-4.7,5.9-2.5,9.1-5.3c3.3-2.9,2.3-4.3,3.7-8.9c-3-0.2-9.1-2.1-11-2
				C1178.7,375.8,1176,378.1,1172.7,379.7z"/>
			<path class="st1" d="M1032.6,450.1c0,0,10.9-2.2,13.3-2.9c10.9-3.1,17.7-0.6,29.1-0.7c3.9,9.7,0,19.7-5.9,27
				c7.9-4.7,14.3-11.5,12.8-21.5c-1.2-8.2-1.2-13.8-9.7-14.9c2.1-7.1,12.3-8.3,13.5-16.5l-41.8,21
				C1042.4,441.5,1032.6,450.1,1032.6,450.1z"/>
			<path class="st1" d="M870.7,498.6h-1.5c-3.3,4.6-8.1,8.1-14.3,9.3c2.7,1.8,6.9,1.4,10.4,1.4c0.2,5.3-1.3,9.7-1.5,14.8
				c3.9-3.9,7.9-7.3,11.8-11.1c6.6-6.4,4-5.6,3.3-14.3C876.5,499.6,873.1,499.6,870.7,498.6z"/>
			<path class="st1" d="M934.1,480.2c-3.8,1.4-7.1,4.5-10.3,6.1c2.3,1.9,4.8,2.8,7.8,2.7c1.4,3.5,2.4,10.9,5.1,13.2
				c3.8,3.5,10.2-1.2,8.6,8.7c2.8-10.5,3-9.9-2-18.4C940.3,487.5,941.3,481.3,934.1,480.2z"/>
			<path class="st1" d="M1007.7,489.9c-3.3-5.1-1-2.9-2.2-8.3c-1.5-6.8-4.2-11.1-12.4-10.2c-0.6-6.8-7.4-5.4-13.6-7
				c-2.6,0.6-4.8,2.3-5.5,4.6c10.8,1.9,24.4,11,23.9,23.1c9,0.5,8.9,1.7,14.8,7.2C1013.8,494.1,1010,493.4,1007.7,489.9z"/>
			<path class="st1" d="M1177.5,439.2c-0.8-6.9-12-14.9-11.2-15.4c-8.3,4,0.2,17.1-1.6,24.2c-1.4,5.5-5.4,11.3-7,17.1
				c-1.8,6.7-3.4,13.2-5.8,19.6c4-4.7,9.7-6.1,14.4-9.5c3.3-2.4,6.2-5.9,9.5-8.4c-2.5,0.1-5.3-0.4-7.8-0.3
				C1168.7,456.7,1178.8,450.2,1177.5,439.2z"/>
			<path class="st1" d="M1283.1,446.9c-3.4-1.3-8.1,0.4-10.9-1.3c-0.1-0.1-5.9-7.6-6.4-8.3c-4-5.7-4.2-12.1-2.6-18.4
				c-4.1,2.6-7.7,5.4-12.3,6.6c-0.1,0.9-0.3,2-0.3,2.9c-1.3,1.7-0.3-0.8-0.6-0.6c-1.7,3.7-5.7,11-5.6,14.7c0.3,7,7.3,9,11.3,14
				c3.5,4.3,5.5,9.2,6.1,15.1c0.5,4.8-1.5,10.2,0.2,14.3c6.2-4.1,10.2-11.8,15.5-17.3c-2.7,1-5.9,3.1-9.2,3
				c-0.5-4.1,2.5-7.7,1.5-11.9c-0.6-2.7-5.2-3.6-4.8-7.1C1265.6,446.6,1278.3,446.4,1283.1,446.9z"/>
			<path class="st1" d="M1085.5,330.9c0.1,0.1,0.1,0.2,0.2,0.2C1085.8,330.9,1085.6,330.9,1085.5,330.9z"/>
			<path class="st1" d="M1084.4,340.2c-0.1,0.7,0.3,2.1,0.5,2.7c0.7,1.9,2.1,3.5,2.8,5.3c0.9,2.3,0.6,5.3,1.8,7.3
				c0.4-5.2,3-11.6,1.9-16.9c-0.5-2.3-1.6-1.8-3.1-3.5c-1.1-1.2-1.6-2.8-2.7-4c-0.1,0.2-0.3,0.4-0.7,0.8c-0.2,2.1,1.5,3.8,1.1,5.7
				C1085.8,338.6,1084.6,339,1084.4,340.2z"/>
			<path class="st1" d="M1139.8,387.8c-0.7-2.2,0.2-3.8-0.8-6.1c-1.5-3.4-5.2-3.6-8.7-3.3c-1.5,0.1-7.3,1.8-7.1-1.8
				c0.1-1.7,3.3-2.4,3.6-4.1c0.1-0.6-0.8-2.1-0.9-2.8c-0.3-2.4,2.2-5.8,4.3-6.9c2.3-1.2,8.1,0.1,10.1,1.5c-0.9-1.8-2.1-3.2-3.5-4.6
				c-1-1.1-1.5-2.5-2.3-3.4c-1-1.2-2.6-1.7-4.1-2.1c-2.9-0.7-3-0.8-4.9-3.2c-1.5-1.8-3.6-2.6-3.9-2c1.2,1,2.2,2.4,2.6,3.9
				c-3.3,2-7.9,3.2-7,7.7c0.6,2.7,2,5.6,2.4,8.2c0.7,4.7-3.6,4.2-7,4.4c-5,0.4-11.3,4.4-16.1,2.9c-1.8-0.6-3-1.5-5-1.6
				c-1.5-0.1-2-0.1-3.1-0.5c-3.3-1.2-5.5-4.4-8.1-6.5c0.6,2.1,1.4,5.5-0.7,6.9c-0.8-0.8-1.9-1.4-3-1.7c-2.8-2.9-5.3-5.8-7.5-9
				c-2.6-3.7-4.7-7.7-7-11.6c0.1-0.3,0.3-0.7,0.5-1.2c0.9-2.6,1.4-5.5,1.4-8.2c0-3.2,0.1-5.7,0.8-8.7c0.5-2.2,1.1-4,0.5-6.3
				c0.4,0.1,1.1,0.1,1.5,0.2c-1-4.8-8.2-5.2-9.6-9.3c-0.8,2.2,3.8,5.3,4.4,7.9c0.7,2.9,0.1,5-2.6,6.1c1.5,4.7,2.2,6.8-3.7,6.2
				c-1.2-0.1-2.3-0.3-3.3-0.7c-6-6.3-10-6.8-13.2-7.6c0.1,0.4,0,0.9-0.3,1.5c-0.6,0,2,2.1,1.5,2.2l1.8,1.5c3.7,6.2-1.1,6.9-5.9,8.5
				c2.7,7.9-2.9,11.6-3,19.4c7.8,1.9,12.9,14.4,16.1,20.9c5.3,10.7,0.5,23.6,4.3,34.3c1-7,10-11.6,9-18.7c7.3,0,16.8,7,21,12.6
				c-2.2-15.8,24-2.2,26.5-8.6c1.3,0.5,2.7,1,3.6,0.8c2.8-0.5,5.6-4.5,7.9-6.3c3.5-2.8,8.6-3.4,12.8-4.8c1.6-0.6,3.2-1.3,4.7-2.2
				C1141.5,390,1140.6,390.5,1139.8,387.8z"/>
			<path class="st1" d="M518.9,372h-1.6c9.8-0.2,11.3,23.7,12.7,32.9c3.5-13,2.6-31.4,13.2-40.6c5.1,0.8,9.5,3.1,13.6,7.2
				c-1.2-10.9-12.2-18.9-12.8-29.5C536.5,345,522.1,363.5,518.9,372z"/>
			<path class="st1" d="M708.2,420c-8.2-3.3-9.5-13.4-12.7-18.5c-5.8-9.2-10-20.1-15.6-29.2c-1.9,9.9,4.9,17,4.4,19
				c1.3,6.3-2.3,18.9-1.3,22.6c1.8,6.9,6.9,8,10.9,13.9c8.7,12.8,10.2,28,12.4,42.6c3.4-10.2-1.5-19,0.7-29.6
				c5-0.2,7.5-0.1,10.9,5.6c6.2-10.3,20.2,1.2,24,9.7C736,443.7,732,432.5,727,420C720.3,419.5,714.3,422.4,708.2,420z"/>
			<path class="st1" d="M145,357.7c-2.2,1.7-4.6,0.5-6.4,4.2c-11.4-13.4-22.2,11.2-30.5,0.8c-1.8,2.2-4,3.9-4.9,7.6
				c-0.6,0.1-1-0.2-1.1-0.8c-6.2,10.5,3.9,10.4-3.3,19.4c2.5-1.1,0.2-0.3,5.1-4.6c1.9-1.7,3.7-2.5,5.1-4.1c2.8-3.2,3.5-2.9,6.6-3.7
				c7.8-1.9,5.3-5.7,9.2-8.6C133.3,361.9,132.7,371.8,145,357.7z"/>
		</g>
		<g>
			<path class="st1" d="M842.2,320.1c1.5,1.6,3,3.4,4.6,5c1.6,1.6,3.4,3.1,5.3,4.4c3.7,2.6,7.9,4.7,12.2,6.2
				c2.2,0.7,4.4,1.3,6.7,1.6c1.2,0.1,2.3,0.3,3.5,0.2c1.2-0.1,2.3-0.2,3.4-0.3c2.2-0.2,4.4-0.5,6.4-0.1c1,0.2,1.6,0.6,2.3,1.4
				c0.7,0.8,1.3,1.8,2.3,2.7c1.9,1.6,4.3,2.3,6.4,2.9c2.1,0.6,4.1,1.3,5.7,2.7c3.2,2.7,5.4,6.7,8.2,10.3c1.4,1.8,2.9,3.5,4.7,5
				c1.7,1.5,3.8,2.7,5.7,3.7c4,2.1,8.1,3.8,11.5,6.5c1.7,1.3,3,3,4.3,4.9c1.2,1.8,2.4,3.7,3.6,5.6c2.3,3.8,4.8,7.6,8,10.8
				c6.3,6.4,14,11.1,19.9,17.9c-5.8-6.9-13.4-11.8-19.5-18.3c-3.1-3.2-5.5-7-7.7-10.8c-1.1-1.9-2.3-3.8-3.5-5.7
				c-1.2-1.9-2.6-3.8-4.4-5.2c-3.6-2.9-7.7-4.7-11.6-6.9c-1.9-1.1-3.8-2.2-5.4-3.7c-1.6-1.4-3.1-3.1-4.4-4.8
				c-2.6-3.5-4.8-7.6-8.4-10.7c-3.8-3.2-8.9-3-12-5.6c-0.7-0.6-1.3-1.5-2-2.5c-0.4-0.5-0.8-0.9-1.4-1.3c-0.6-0.4-1.2-0.6-1.8-0.7
				c-2.5-0.5-4.7-0.2-7,0c-1.1,0.1-2.2,0.2-3.3,0.3c-1,0.1-2.1-0.1-3.1-0.2c-2.1-0.3-4.2-0.9-6.3-1.6c-4.1-1.4-8-3.5-11.6-6
				c-1.8-1.3-3.4-2.7-4.9-4.2c-1.5-1.6-2.9-3.2-4.4-4.9c-1.5-1.7-3-3.4-4.9-4.9c-0.5-0.4-1-0.8-1.4-1.1c-0.5-0.3-1-0.7-1.6-1
				c-1.1-0.6-2.3-0.9-3.5-1.1c-2.3-0.4-4.6-0.5-6.5-1c-0.2-0.1-0.4-0.1-0.7-0.2c-0.3-0.1-0.5-0.2-0.6-0.3c-0.3-0.2-0.3-0.2-0.4-0.4
				c0-0.1-0.1-0.3-0.2-0.8c-0.1-0.4-0.4-1.1-0.9-1.4c-0.5-0.4-0.9-0.5-1.4-0.5c-0.2,0-0.3,0-0.5-0.1l-0.1,0l-0.1,0l-0.1,0l-0.4,0
				c-0.9,0.1-1.6,0.5-2.2,0.8c-0.5,0.4-1,0.8-1.5,1.1c-0.9,0.8-1.7,1.5-2.5,2.1c-0.2,0.2-0.4,0.3-0.6,0.4l-0.3,0.2
				c-0.1,0-0.1,0-0.1,0.1c0,0-0.2,0.1-0.3,0.1l-0.1,0l-0.1,0c-0.1,0-0.2,0-0.4-0.1c-0.7-0.2-1.4-1-2.9-1.6c-0.2-0.1-0.4-0.1-0.7-0.2
				c-0.3,0-0.6,0-0.7,0c-0.5,0-0.7,0.1-1.1,0.2c-0.7,0.2-1.3,0.5-1.8,0.8c-1.1,0.7-2,1.4-2.8,2.2c-1.3,1.2-2.6,2.4-3.9,3.1
				c-2.6-4.8-6.1-9-8.7-13.4c-0.7-1.2-1.3-2.4-1.9-3.7c-0.6-1.3-1.1-2.6-1.6-3.9c-0.5-1.3-1.1-2.7-1.8-4.1c-0.5-1-1.2-2-2-2.9
				c0.6,0.1,1.2,0.1,1.7,0.1c1.5-0.1,2.9-0.7,4.2-1.3c2.7-1.2,5.1-2.8,7.5-4.4c2.4-1.6,4.6-3.4,6.9-5.2l3.4-2.6
				c1.1-0.9,2.2-1.6,3.5-2.3c2.4-1.5,4.9-2.9,7.4-4.5c1.2-0.8,2.4-1.6,3.6-2.5c1.2-0.9,2.3-1.8,3.4-2.9c0.5-0.5,1-1,1.5-1.6
				c0.5-0.6,1-1.2,1.4-1.7c0.9-1.2,1.7-2.4,2.5-3.6c1-1.5,2-2.9,3-4.3l0.1,2.5l2.2-1.2c3.3-1.8,6.7-3.5,10-5.6
				c2.9-1.8,5.6-3.8,8.1-6.2c0.1,0.1,0.2,0.2,0.2,0.3c0.3,0.5,0.5,1.2,0.8,1.9c0.5,1.4,0.9,3.1,2,4.7l1.1,1.5l1.2-1.4
				c1.7-1.9,3.8-3.5,6.1-5c2-1.3,4-2.5,6.1-3.6c0.5,0.6,1,1.2,1.5,1.7c0.8,0.8,1.7,1.6,2.7,2.2c0.2,0.2,0.5,0.3,0.8,0.4
				c0.3,0.2,0.6,0.2,0.9,0.4c0.6,0.2,1.4,0.3,2.1,0.2c0.4-0.1,0.7-0.2,1-0.3c0.3-0.2,0.7-0.3,0.9-0.6c0.1-0.1,0.2-0.2,0.3-0.3
				l0.2,0.3l1.1,1.5c0.8,1,1.5,1.9,2.4,2.8c0.4,0.5,0.9,0.9,1.3,1.3c0.4,0.4,0.9,0.8,1.4,1.2c0.9,0.8,1.9,1.5,2.8,2.3
				c1.9,1.4,3.9,2.8,5.9,4.1c2,1.3,4.1,2.5,6.1,3.7c-0.5,0.4-1.1,0.7-1.9,0.8c-0.8,0.1-1.8,0.2-2.6,0.6c-0.2,0.1-0.5,0.3-0.6,0.4
				c-0.2,0.2-0.3,0.2-0.5,0.5c-0.3,0.3-0.6,0.7-0.8,1.1c-0.9,1.6-1.2,3.3-1.6,4.9c-0.4,1.6-0.7,3.3-1.5,4.8c1-1.4,1.4-3.1,1.9-4.7
				c0.5-1.6,1-3.3,1.9-4.6c0.2-0.3,0.5-0.6,0.7-0.9c0.1-0.1,0.3-0.2,0.5-0.4c0.2-0.1,0.3-0.2,0.5-0.3c0.7-0.3,1.4-0.3,2.3-0.4
				c0.9,0,1.9-0.3,2.7-0.9c0.4-0.3,0.7-0.7,1-1.1c0.1-0.1,0.1-0.1,0.1-0.2l0.4,0.5c0.4,0.4,0.8,0.8,1.3,1.1c0.9,0.7,1.8,1.3,2.8,1.9
				c1.9,1.1,4,1.9,5.9,2.8c1,0.4,2,0.8,2.9,1.3c0.9,0.5,1.8,1,2.7,1.5l1.2,0.9l1.1,1l0.9,1.1l0.8,1.2l0.6,1l1-0.5
				c0.5-0.2,0.9-0.4,1.3-0.7c0.4-0.3,0.8-0.7,1.1-1.1c0.7-0.8,1-1.7,1.3-2.6c0.2-0.8,0.4-1.5,0.7-2.2c0,0,0.1,0.1,0.1,0.1
				c0.6,0.6,1.2,1.1,1.8,1.6c1.2,1,2.5,1.9,3.8,2.7l3.8,2.5c0.6,0.4,1.2,0.9,1.8,1.3c0.3,0.2,0.6,0.4,0.8,0.6
				c0.1,0.1,0.2,0.2,0.3,0.3c0,0,0.1,0.1,0,0c0,0,0,0,0-0.1c0-0.1-0.1-0.2-0.1-0.3l0.6,1c2.7,2.2,5.7,3.8,8.6,5.3
				c2.9,1.5,5.8,2.8,8.4,4.5l0.9,0.6c0.3,0.2,0.7,0.5,1,0.7c0.6,0.5,1.2,1,1.7,1.5c1.1,1.1,2.2,2.2,3.3,3.4c2.2,2.4,4.4,4.9,7,7
				l1.8,1.4l0.5-2.1c0.1-0.2,0.4-0.8,0.8-1.3c0.1-0.1,0.2-0.3,0.3-0.4c0.4,0.3,0.7,0.5,1.1,0.7c0.9,0.5,1.8,1,2.7,1.4
				c1.8,0.8,3.7,1.3,5.6,1.8c3.6,0.8,7.3,1.1,11,1c0.2,0.3,0.3,0.6,0.5,0.9c0.3,0.4,0.6,0.9,0.9,1.3c0.6,0.9,1.4,1.7,2.1,2.5
				c1.5,1.6,3,3,4.7,4.3c0.8,0.6,1.7,1.3,2.6,1.8c0.9,0.6,1.8,1.1,2.8,1.6c0.5,0.2,1,0.5,1.5,0.6c0.5,0.2,1,0.4,1.5,0.5
				c0.5,0.2,1,0.2,1.6,0.3c0.3,0.1,0.6,0.1,0.8,0.1c-0.6,0.5-1.1,0.9-1.7,1.4c-1.1,0.9-2.1,1.8-3.1,2.8c-0.5-0.1-1.1-0.3-1.8-0.4
				l-1-0.1l-0.4,1c-1.1,2.4-2.4,4.7-3.9,6.8c-0.8,1.1-1.6,2.1-2.4,3.1c-0.9,1-1.8,1.9-2.8,2.8c-1,0.9-2,1.7-3,2.5
				c-1.1,0.8-2.2,1.5-3.3,2.1c-1.2,0.6-2.2,1.2-3.5,1.7c-1.2,0.5-2.7,1.1-3.9,1.9c-1.2,0.8-2.4,1.6-3.5,2.5
				c-1.1,0.9-2.1,1.8-3.1,2.8c-2,1.9-3.9,4-5.7,6.1c-3.6,4.2-6.9,8.6-9.9,13.2c3.7-4.1,7.4-8.1,11.2-11.9c1-1,2-1.9,2.9-2.8
				c1-0.9,2-1.8,3-2.7c1-0.9,2.1-1.7,3.1-2.5c1.1-0.8,2.1-1.5,3.3-2.2c1.1-0.7,2.2-1.1,3.5-1.6c1.3-0.5,2.7-1.1,3.9-1.8
				c1.3-0.7,2.5-1.5,3.6-2.3c1.2-0.8,2.3-1.7,3.3-2.7c1.1-1,2.1-2,3-3.1c0.9-1.1,1.8-2.2,2.6-3.4c0.8-1.2,1.6-2.4,2.2-3.6
				c0.5-0.9,0.9-1.9,1.3-2.8c0.8,0.2,1.8,0.5,2.7,0.8c1.3,0.5,2.6,1,3.9,1.5c2.6,1,5.2,2.2,8,3c0.7,0.2,1.4,0.4,2.2,0.5
				c0.4,0.1,0.8,0.1,1.2,0.1l0.5,0c0.2,0,0.4,0,0.5,0c0.5,0,1.2,0.2,1.9,0.4c0.7,0.2,1.3,0.4,2,0.7c1.3,0.5,2.6,1,4,1.5
				c1.3,0.4,2.8,0.8,4.2,0.6c-1.4,0-2.7-0.6-4-1.2c-1.3-0.6-2.5-1.3-3.7-1.9c-0.6-0.3-1.3-0.6-2-0.9c-0.7-0.3-1.3-0.5-2.2-0.7
				c-0.2,0-0.4,0-0.5-0.1l-0.3,0l-0.2,0c-0.3,0-0.6-0.1-0.9-0.2c-0.6-0.1-1.3-0.4-1.9-0.6c-2.5-1-5-2.3-7.6-3.5
				c-1.3-0.6-2.6-1.2-3.9-1.8c-0.7-0.3-1.5-0.6-2.3-0.8c1-0.8,2-1.6,3-2.4c1.2-0.9,2.5-1.8,3.7-2.6c0.6-0.4,1.3-0.8,1.9-0.9
				c0.7-0.1,1.3-0.1,2.1-0.1c2.9,0.3,5.8,1.4,8.9,1.9c3.2,0.4,6.2,0.3,9.3,0.2c3-0.1,6.1-0.2,8.9,0.3c2.9,0.4,5.4,1.7,7.4,3.7
				c0.9,1,1.9,2.2,2.9,3.4c1,1.2,2.2,2.5,4,3.3c1.9,0.7,3.6,0.5,5.1,0.5c1.5,0,3-0.1,4.5-0.1c1.5,0,3,0.1,4.3,0.3
				c1.3,0.2,2.4,0.7,3.4,1.6c1,0.8,2.1,2,3,3c0.2,0.3,0.5,1,0.8,1.6c0.3,0.7,0.5,1.5,1,2.3c0.5,0.8,1,1.6,1.9,2.3l0.3,0.2l0.5,0.2
				c0.3,0.1,0.5,0.2,0.7,0.3c0.5,0.2,0.9,0.2,1.3,0.3c1.6,0.3,3,0.5,3.9,1.1c1,0.6,1.9,1.6,2.8,2.8c0.9,1.2,1.7,2.6,3.1,3.8
				c1.4,1.2,3.1,1.9,4.9,2.3c0.7,0.1,1.7,0.2,2.5,0.2c0.8,0,1.7,0,2.4-0.1c3.2-0.3,6.1-0.9,8.7-0.4c0.6,0.1,1.3,0.3,1.9,0.6l0.4,0.2
				c0,0,0.3,0.2,0.4,0.2c0.3,0.2,0.5,0.3,0.7,0.5c1,0.8,1.7,2.1,3,3.3c0.6,0.6,1.3,1.2,2.2,1.6c1.1,0.5,2,0.5,2.8,0.5
				c1.6,0,2.6,0.2,3.4,1l0.8,0.7l0.9-0.8c0.2-0.2,0.5-0.3,0.9-0.4c0.4,0,1,0.1,1.5,0.3c0.5,0.2,1.1,0.4,1.7,0.7
				c0.6,0.3,1.1,0.6,1.7,0.9c1.1,0.6,2.2,1.3,3.5,2c0.3,0.2,0.6,0.3,1,0.5l0.9,0.4l1.8,0.7c2.4,1,5,2,7.8,2.3
				c0.7,0.1,1.4,0.1,2.1,0.1c0.7,0,1.4-0.1,2.1-0.3c0.4-0.1,0.7-0.2,1-0.3c0.3-0.1,0.7-0.3,1-0.5c0.5-0.2,0.9-0.6,1.3-0.9
				c2.3,1.6,4.5,3.2,6.7,4.9c2.3,1.8,4.6,3.6,6.7,5.7l0,0l0,0c0.1,0,0.1,0,0.2,0c0,0,0.1,0,0.1-0.1c0-0.1,0-0.1-0.1-0.1
				c-0.1-0.1-0.2-0.2-0.4-0.2c-0.2-0.1-0.3-0.2-0.5-0.3c-3.7-4.2-8.2-7.6-12.6-11.1l-0.3-0.3l-0.4,0.3c-0.5,0.3-1,0.7-1.5,1
				c-0.3,0.1-0.5,0.3-0.8,0.3c-0.3,0.1-0.6,0.2-0.9,0.2c-0.6,0.1-1.2,0.2-1.8,0.2c-0.6,0-1.2-0.1-1.8-0.2c-2.5-0.4-4.8-1.5-7.2-2.5
				l-1.8-0.8c-0.3-0.1-0.6-0.3-0.9-0.4c-0.2-0.1-0.5-0.2-0.8-0.4c-1.1-0.6-2.2-1.4-3.3-2.1c-0.6-0.3-1.2-0.7-1.8-1
				c-0.6-0.3-1.3-0.6-2-0.9c-0.7-0.3-1.5-0.4-2.3-0.5c-0.5,0-1.1,0.2-1.7,0.4c-0.5-0.4-1.1-0.6-1.7-0.8c-0.9-0.3-1.8-0.3-2.6-0.4
				c-0.7,0-1.4-0.1-1.7-0.3c-0.5-0.3-1-0.7-1.5-1.1c-0.9-0.9-1.7-2.3-3.1-3.5c-0.3-0.3-0.8-0.6-1.1-0.8c-0.2-0.1-0.3-0.2-0.6-0.3
				l-0.6-0.3c-0.8-0.4-1.6-0.6-2.5-0.8c-3.4-0.7-6.6,0-9.5,0.3c-0.7,0.1-1.4,0.1-2.1,0.1c-0.7,0-1.2-0.1-2-0.2
				c-1.2-0.2-2.4-0.8-3.3-1.6c-1.8-1.6-3.1-4.9-6.4-7c-1.8-1-3.5-1.1-4.8-1.4c-0.7-0.2-1.3-0.3-1.6-0.5c-0.3-0.2-0.7-0.7-1-1.2
				c-0.3-0.5-0.5-1.2-0.8-1.9c-0.3-0.7-0.6-1.5-1.3-2.5c-1.1-1.3-2.1-2.4-3.5-3.5c-1.3-1.1-3.1-1.9-4.8-2.2
				c-1.7-0.3-3.3-0.3-4.9-0.3c-1.6,0-3.1,0.1-4.6,0.2c-1.5,0.1-3,0.1-4-0.3c-1-0.4-2-1.4-3-2.5c-1-1.1-1.9-2.3-3.1-3.5
				c-2.4-2.3-5.6-3.8-8.8-4.2c-3.2-0.5-6.3-0.2-9.4,0c-3,0.2-6.1,0.4-9,0.2c-2.9-0.4-5.9-1.3-9.1-1.4c-0.8,0-1.7,0-2.5,0.2
				c-0.8,0.3-1.5,0.7-2.1,1.1c-0.6,0.4-1.3,0.9-1.9,1.4c-0.3,0-0.6-0.1-0.9-0.1c-0.5-0.1-1-0.2-1.5-0.5c-0.5-0.2-1-0.4-1.4-0.6
				c-0.5-0.2-0.9-0.5-1.4-0.7c-0.9-0.5-1.8-1.1-2.6-1.7c-0.8-0.6-1.6-1.3-2.4-2c-1.5-1.4-3-2.9-4.3-4.5c-0.6-0.8-1.3-1.6-1.8-2.5
				c-0.3-0.4-0.5-0.9-0.8-1.3c-0.3-0.4-0.5-0.9-0.7-1.3l-0.3-0.5l-0.6,0c-1.8,0-3.7-0.1-5.5-0.3c-1.8-0.2-3.6-0.6-5.4-1.1
				c-1.8-0.5-3.5-1.1-5.1-1.8c-0.8-0.4-1.6-0.8-2.3-1.3c-0.7-0.5-1.4-1-2-1.6l-1.7-1.5l-0.5,2.2c-0.1,0.2-0.4,0.8-0.8,1.3
				c-0.1,0.1-0.1,0.2-0.2,0.3c-1.8-1.8-3.5-3.8-5.3-5.8c-1.1-1.2-2.2-2.5-3.5-3.6c-0.6-0.6-1.3-1.1-2-1.7c-0.3-0.3-0.7-0.5-1-0.7
				l-1.1-0.7c-2.8-1.9-5.8-3.3-8.7-4.8c-2.8-1.4-5.5-2.8-7.8-4.6c0,0,0,0,0,0c-0.1-0.2-0.2-0.3-0.3-0.4c-0.2-0.2-0.4-0.4-0.5-0.6
				c-0.3-0.3-0.7-0.6-1-0.8c-0.6-0.5-1.3-0.9-1.9-1.4l-3.8-2.5c-1.2-0.8-2.5-1.7-3.7-2.6c-0.6-0.4-1.1-0.9-1.7-1.4
				c-0.5-0.5-1-1-1.2-1.4l-1.3-2.1l-1.2,2.1c-1,1.7-1.2,3.5-1.6,4.8c-0.2,0.7-0.5,1.3-0.8,1.7c-0.1,0.2-0.3,0.3-0.4,0.5l-0.2-0.3
				l-1.2-1.3l-1.3-1.2c-0.5-0.3-0.9-0.7-1.4-1c-1-0.6-2-1.1-3-1.6c-1-0.4-2-0.8-3-1.2c-2-0.8-4-1.5-5.9-2.4c-0.9-0.5-1.8-1-2.6-1.6
				l-1.2-1l-1.1-1.1l-0.8-0.8l-0.5,1c-0.2,0.3-0.3,0.7-0.5,1c-0.2,0.3-0.4,0.6-0.7,0.8c0,0,0,0-0.1,0c-3.8-2.9-7.8-5.6-11.3-8.7
				c-0.9-0.8-1.8-1.6-2.6-2.4c-0.4-0.4-0.8-0.8-1.2-1.3c-0.4-0.4-0.8-0.8-1.2-1.3c-0.8-0.9-1.5-1.8-2.1-2.7l-0.9-1.5l-0.8-1.5
				l-0.7-1.3l-1,1.2l-0.4,0.5c-0.1,0.2-0.3,0.3-0.5,0.4c-0.1,0.2-0.3,0.2-0.5,0.3c-0.2,0.1-0.3,0.1-0.5,0.1c-0.3,0-0.7,0-1.1-0.2
				c-0.2-0.1-0.4-0.1-0.6-0.3c-0.2-0.1-0.4-0.2-0.6-0.4c-0.8-0.5-1.5-1.2-2.2-2c-0.7-0.8-1.3-1.6-1.9-2.4l-0.6-0.9l-1,0.5
				c-2.5,1.2-5,2.5-7.4,4c-1.8,1.2-3.6,2.4-5.3,3.9c-0.3-0.7-0.5-1.5-0.8-2.3c-0.2-0.8-0.5-1.6-1-2.4c-0.2-0.4-0.5-0.8-0.8-1.2
				c-0.3-0.4-0.7-0.7-1.1-1.1l-1-0.8l-1,1c-2.6,2.6-5.6,4.8-8.7,6.7c-2.6,1.6-5.3,3.1-8.1,4.6c-0.1-0.4-0.2-0.7-0.2-1l0.1-4.1
				l-2.8,3c-2.1,2.2-3.7,4.8-5.2,7.2c-0.8,1.2-1.5,2.4-2.3,3.5c-0.4,0.6-0.8,1.1-1.3,1.6c-0.4,0.5-0.9,1-1.4,1.5
				c-0.9,0.9-2,1.9-3.1,2.7c-1.1,0.9-2.2,1.7-3.4,2.5c-2.3,1.6-4.7,3.1-7.2,4.7c-1.2,0.8-2.5,1.7-3.6,2.6l-3.3,2.8
				c-2.2,1.9-4.3,3.8-6.5,5.6c-2.2,1.8-4.5,3.5-7,4.9c-1.2,0.7-2.5,1.2-3.9,1.5c-0.6,0.1-1.3,0.1-1.9,0.1c-0.2-0.2-0.4-0.4-0.6-0.7
				c-1.1-1.2-2.3-2-3.4-2.9c-1.1-0.9-2.1-1.9-3.2-2.8c-1.1-1-2.2-2-3.4-2.9c-1.3-1-2.7-1.7-4.1-2.2c-1.4-0.6-2.7-1.1-3.8-1.7
				c-1.2-0.6-2.2-1.5-3.3-2.4c-1-0.9-2-1.9-2.9-2.9c-0.8-1-1.5-2.1-1.8-3.2l-0.7-2.5l-1.8,1.9c-1.3,1.4-2.4,2.6-3.7,3.9
				c-1.2,1.2-2.5,2.4-3.8,3.4c-0.6,0.4-1.4,0.8-1.8,1c-0.1,0,0,0.1-0.2,0.1l-0.2,0c-0.1-0.1-0.3-0.2-0.4-0.4c-0.5-0.5-1-1.3-1.5-2
				c-0.5-0.7-1-1.5-1.5-2.3c-0.2-0.2-0.3-0.4-0.5-0.6l-0.3-0.4l-0.3-0.3c-0.4-0.3-0.7-0.6-1.1-0.9l-2.1-1.6
				c-0.6-0.5-1.2-1.1-1.7-1.7c-0.3-0.3-0.5-0.6-0.7-0.9l-0.8-1.1c-2.2-3.1-4.7-5.6-5.8-8.5l-0.5-1.3l-1.3,0.3
				c-1.7,0.3-3.1,1.3-4.2,2.3c-1.1,1-1.9,1.9-2.8,2.5c-0.4,0.3-0.8,0.5-1.3,0.6c-0.2,0.1-0.4,0.1-0.5,0.1c-0.1,0-0.3,0-0.5,0l-0.2,0
				l0,0l0,0l0,0c-0.9-0.1-1.5-0.6-2.3-1.5c-0.7-0.9-1.5-2.2-2.9-3.2c-1.3-0.9-2.5-1.5-3.8-2c-1.3-0.5-2.3-0.9-3.2-1.6
				c-0.9-0.6-1.5-1.5-2.3-2.6c-1.4-2.1-2.7-4.4-3.9-6.7c-1.2-2.3-2.4-4.6-3.6-7c-2.3-4.7-4.6-9.5-6.7-14.3l-0.1-0.3l-0.2-0.2
				l-4.4-3.8l-2.2-1.9l-1.1-0.9c-0.3-0.3-0.8-0.6-1-0.9c-1.2-1.2-2.3-2.7-3.3-4.2c-1-1.6-1.9-3.2-2.7-4.9l-0.1-0.2l-0.1-0.1
				c-2-2.5-4-4.8-6-7.1c-2.1-2.3-4.3-4.6-6.6-6.7l-1.1-1l-0.9,1.1c-2,2.4-4.5,4.5-7,6.7c-1.2,1.1-2.5,2.2-3.7,3.3
				c-1.2,1.2-2.4,2.3-3.6,3.7c-1.2,1.5-1.8,3.2-2.5,4.6c-0.4,0.7-0.7,1.3-1.1,1.8c-0.3,0.3-0.8,0.6-1.5,0.9c-1.4,0.5-3.2,0.8-4.9,2
				c-1.2,0.9-2.7,1.6-4.2,2.7c-0.7,0.5-1.4,1.1-2.1,1.8c-0.3,0.4-0.6,0.7-0.9,1.2c-0.2,0.2-0.2,0.4-0.3,0.6l-0.2,0.3l-0.1,0.3
				c-0.6,1.6-1.1,3.2-1.6,4.8c-0.2,0.8-0.5,1.6-0.7,2.5c-0.2,0.8-0.3,1.4-0.7,2c-0.3,0.6-0.8,1.3-1.3,2.2c-0.4,0.9-0.6,1.8-0.8,2.7
				c-0.3,1.7-0.5,3.4-0.7,4.9c-0.3,1.6-0.6,3-1.4,4.1c-0.8,1.2-2,2.3-3.2,3.5c-1,1-1.9,2.1-2.7,3.4c-0.1,0-0.2-0.1-0.3-0.1
				c-0.5-0.1-1-0.2-1.5-0.1c-1.1,0.1-2,0.6-2.7,1.2c-1.4,1.2-2.3,2.6-3.1,4c-0.8,1.4-1.5,2.8-2.3,4c-0.7,1.2-1.9,2.3-2.9,3.4
				l-6.4,6.9c-1.1,1.2-2.1,2.3-3.1,3.5c-1,1.2-2,2.5-3,3.5c-2.1,2-5,3.2-7.7,5.1c-1.4,1-2.5,2.2-3.4,3.6c-0.9,1.4-1.6,2.8-2.2,4.3
				c-0.7,1.4-1.3,2.8-2,4.2c-0.2,0.3-0.4,0.6-0.6,0.9c-0.2-0.8-0.6-1.6-1.1-2.2c-0.8-1-1.7-1.9-2.4-2.9c-1.4-2-2.4-4.3-3.5-6.5
				c-2.3-4.4-5.1-8.7-8.9-12.1l-0.3-0.3l-0.3,0.1c-0.1,0.1-0.7-0.2-1.1-0.5c-0.5-0.3-0.9-0.8-1.4-1.2c-0.9-0.8-1.8-1.7-2.7-2.6
				c-1-0.8-2-1.7-3.4-2.2c-0.7-0.2-1.5-0.4-2.3-0.1c-0.3,0.1-0.5,0.2-0.7,0.3c-0.2-0.8-0.6-1.6-1-2.3c-0.6-1.1-1.4-2.1-2.1-3.1
				l-0.9-1.1l-0.6,1.3c-0.3,0.6-0.9,1.1-1.6,1.7c-0.5-0.7-1.2-1.4-2-1.8c-1.1-0.7-2.2-1.1-3.3-1.5c-1-0.4-2-0.9-2.7-1.5
				c-0.7-0.6-1.2-1.5-1.6-2.4c-0.3-0.9-0.4-2-0.5-3.1c-0.1-1.2-0.2-2.4-0.8-3.7c-0.3-0.7-0.8-1.3-1.3-1.8c-0.5-0.5-1-0.8-1.4-1.2
				c-0.5-0.4-0.9-0.7-1.3-1.1c-0.2-0.2-0.3-0.2-0.3-0.3c-0.1-0.1-0.1-0.3-0.2-0.6c-0.2-0.5-0.3-1.3-1-2.1c-0.1-0.1-0.1-0.1-0.3-0.3
				l-0.2-0.1c-0.2-0.1-0.5-0.3-0.6-0.3c-0.4-0.2-0.7-0.3-1-0.4c-1.2-0.4-2.5-0.5-3.3-0.8l-0.1,0c0,0,0,0,0,0
				c-0.1-0.1-0.2-0.3-0.4-0.6c-0.2-0.3-0.6-0.7-1.1-1c-0.3-0.1-0.4-0.2-0.8-0.3c0,0-0.5-0.1-0.8-0.1c-1,0.1-1.6,0.4-2,0.5
				c-0.2,0.1-0.4,0.1-0.5,0.1c-0.1,0-0.1,0-0.5-0.1c-0.3-0.1-0.5-0.1-0.7-0.2c-0.2-0.1-0.4-0.2-0.7-0.3c-0.5-0.2-0.9-0.5-1.3-0.7
				c-0.9-0.6-1.8-1.3-2.7-2c-1.8-1.4-3.7-2.9-6-4.1l-1-0.5l-0.7,0.8c-1.1,1.2-2.2,2.3-3.5,3.4c-1.3,1-2.6,2-4.1,3
				c-1.4,1-3,2.3-3.9,4.1c-0.9,1.6-1.5,3.1-2.4,4.2c-1,1.1-2.3,2.3-3.5,3.4c-0.6,0.5-1.3,1.1-1.9,1.5c-0.3,0.2-0.6,0.5-0.9,0.6
				c-0.1,0-0.3,0.2-0.5,0.3l-0.4,0.2c-0.6,0.2-1.3,0.4-2.2,0.5c-0.9,0.1-1.9,0.3-2.9,0.8c-1.9,0.9-3.3,2.3-4.5,3.6
				c-1.2,1.3-2.2,2.7-3.3,3.9c-0.5,0.6-1.1,1.1-1.7,1.5c-0.7,0.5-1.3,0.9-2,1.3c-1.4,0.9-3.1,1.9-4.4,3.3c-1.5,1.6-2.1,3.2-2.9,4.6
				c-0.4,0.7-0.9,1.4-1.1,1.5c-0.5,0.3-1.2,0.6-1.9,0.8c-1.5,0.4-3.2,0.6-5,1.1c-0.9,0.3-1.8,0.7-2.7,1.2c-0.8,0.5-1.5,1-2.2,1.5
				c-0.7,0.6-1.5,1.2-2.1,2.1c-0.4,0.5-0.7,1.2-0.9,1.8c-0.3,0-0.7,0.1-1,0.1c-0.8,0.1-1.5,0.3-2.2,0.5c-1.4,0.5-2.8,1.2-4,2
				c-2.1,1.5-3.9,3.5-5.1,5.7c-1.2-0.3-2.4-0.5-3.5-0.8c-0.7-0.2-1.5-0.3-2.2-0.5c-0.7-0.2-1.4-0.4-2.1-0.7c-1.4-0.5-2.8-1.1-4-1.8
				c-0.6-0.4-1.2-0.8-1.8-1.2c-0.6-0.5-1.1-0.9-1.8-1.4c-0.3-0.2-0.6-0.5-0.9-0.7c-0.4-0.2-0.8-0.5-1.1-0.7c-0.8-0.4-1.5-0.7-2.3-1
				c-1.6-0.5-3.2-0.8-4.7-1c-1.6-0.2-3.1-0.4-4.5-0.7c-0.7-0.1-1.5-0.3-2.2-0.5c-0.7-0.2-1.4-0.4-2-0.7l-0.9-0.4l-0.5,0.8
				c-1.2,2.2-2,4.5-2.8,6.7c-0.3,0-0.5,0-0.8-0.1c-0.5-0.1-0.9-0.4-1.4-0.6c-0.9-0.6-1.9-1.3-3-1.9l-0.9-0.4l-0.4,0.9
				c-0.5,1.2-1.4,2.1-2.6,2.8c-1.2,0.7-2.6,1.1-4,1.7c-0.7,0.3-1.4,0.6-2.1,0.9c-0.7,0.3-1.4,0.6-2.1,1c-0.8,0.4-1.3,1.3-1.6,2
				c-0.3,0.7-0.6,1.4-0.8,2.2c-0.2,0.7-0.4,1.5-0.6,2.2l-0.5,2.2c-0.3,1.4-0.7,2.9-1.2,4.3c-0.2,0.7-0.5,1.4-0.8,2
				c-0.3,0.6-0.7,1.3-1.1,1.8c-0.4,0.6-1,1-1.6,1.3c-0.3,0.2-0.7,0.2-1,0.3c-0.3,0-0.7,0-1,0l-0.2,0l-0.1,0.2c-1,1.9-1.7,3.9-2.1,6
				c-0.2,1-0.2,2.1-0.1,3.2c0.1,0.5,0.2,1,0.3,1.6c0,0.1,0.1,0.1,0.1,0.2c-1.7-0.1-3.5-0.4-5.2-0.5c-0.9,0-1.9,0-2.8,0.4
				c-0.8,0.4-1.5,1.2-1.9,2.1c-0.4,0.9-0.6,1.8-0.9,2.6c-0.3,0.8-0.8,1.6-1.3,2.3c-0.9,1.2-1.9,2.2-2.8,3.5
				c-1.7-1.8-3.7-3.4-5.8-4.7c-2.3-1.5-4.8-2.7-7.2-3.9c-2.5-1.2-4.9-2.3-7.4-3.4c-2.5-1.1-5.1-2-7.6-3c-2.5-1-5-2.1-7.2-3.4
				c-1.1-0.6-2.2-1.4-3.3-2.1c-1-0.8-2-1.6-2.8-2.6c-0.4-0.5-0.8-0.9-1.2-1.5c-0.4-0.5-0.7-1.1-1-1.6c-0.7-1.2-1.4-2.3-2.1-3.5
				c-0.7-1.2-1.5-2.3-2.5-3.5c-1-1.1-2-2.3-4-2.9l-1.2-0.4l-0.6,1.2c-0.4,0.8-0.8,1.5-1.3,2c-0.5,0.5-1.2,1-2.1,1.5
				c-1,0.7-1.7,1.3-2.4,1.8c-0.3,0.3-0.7,0.5-1,0.6c-0.1,0-0.1,0-0.2,0.1l0,0l0,0l-0.1,0c0,0,0,0,0,0c-0.1-0.2-0.2-0.3-0.4-0.5
				c-0.3-0.3-0.7-0.4-1-0.5c-0.1,0-0.3,0-0.4-0.1l-0.1,0l-0.2,0l-0.1,0c-0.1,0-0.2,0-0.4,0c-0.2,0-0.4,0.1-0.7,0.1
				c-1.4,0.4-2.3,1.1-3.1,1.8c-0.8,0.7-1.5,1.4-2.2,2c-0.3,0.3-0.7,0.6-1,0.8c-0.4,0.3-0.7,0.5-1.1,0.8c-1.5,1-3.2,1.8-5,2.6
				c-0.9,0.5-1.7,0.7-2.8,1.6c-1,0.8-1.6,1.8-2.2,2.6c-0.5,0.9-1,1.6-1.5,2.3c-0.1,0.2-0.3,0.3-0.4,0.4c-0.1,0.1-0.2,0.2-0.2,0.2
				l-0.3,0.2c-0.3,0.2-0.6,0.4-1,0.6c-1.5,0.8-3.2,1.3-5.1,1.6l-0.3,0c-0.2-0.2-0.5-0.5-1-0.6c-0.3-0.1-0.7-0.1-1,0l-0.1,0l-0.1,0
				l-0.2,0.1l-0.1,0l-0.2,0.1c-0.2,0.1-0.4,0.2-0.6,0.3l-0.4,0.3c-0.2,0.2-0.4,0.4-0.6,0.6c-0.4,0.4-0.7,0.7-1.1,1.1l-1.9,2.2
				c-0.3,0.3-0.6,0.7-0.9,0.9c-0.4,0.4-0.7,0.6-1.2,1.1c-0.4,0.4-0.8,0.9-1.1,1.5c-0.3,0.6-0.4,1.3-0.4,1.9c0.1,1.2,0.2,1.8,0.1,2.6
				c-0.1,0.8-0.5,1.6-1,2.3c-0.4,0.7-1,1.4-1.7,2.1c-1.3,1.3-2.9,2.4-4.4,3.6c-1.6,1.2-3.2,2.4-4.5,3.9c-1.3,1.5-2.3,3.2-3.4,4.8
				c-0.8,1.2-1.7,2.4-2.8,3.5c-0.2-0.1-0.4-0.3-0.6-0.5c-0.3-0.3-0.6-0.6-1.1-0.9c-0.5-0.3-0.8-0.4-1.2-0.6c-0.7-0.4-1.4-0.7-2.1-1
				c-0.6-0.3-1.1-0.7-1.8-1.1c-0.6-0.4-1.4-1-2.1-1.4c-2.9-1.6-5.8-2.7-8.1-4.3l-0.8-0.6l-1,0.6c-0.4,0.3-0.8,0.5-1.3,0.7
				c-0.4,0.2-0.8,0.4-1.2,0.5c-0.4,0.1-0.8,0.2-1.2,0.2c-0.4,0-0.8-0.1-1.2-0.2c-0.8-0.2-1.7-0.7-2.6-1.2l-2.9-1.6l-0.8-0.5
				l-0.8,0.6c-1.3,1-3.3,1.1-5.7,1.7c-0.6,0.2-1.2,0.4-1.8,0.7c-0.2,0.1-0.3,0.1-0.5,0.2l-0.3,0.2l-0.8,0.5c-1,0.7-1.8,1.4-2.7,2.1
				c-1.7,1.5-3.1,2.8-4.9,3.9c-1.6,1-3.6,1.7-5.6,2.3c-2,0.6-4.1,1.1-6.3,1.8c-2.2,0.7-4.2,1.8-6.1,3c-2.6,1.7-4.9,3.7-7.1,5.7
				c-1.7-0.6-3.2-1.4-4.7-2.4c-1.6-1-3.1-2.2-4.6-3.3l-0.5-0.4l-0.5,0.6c-0.5,0.7-1.1,1.3-1.8,1.7c-0.7,0.4-1.5,0.7-2.3,0.8
				c-1.7,0.3-3.5,0.1-5.4,0c-1,0-1.9-0.1-2.9-0.1c-0.5,0-1,0.1-1.6,0.1c-0.4,0.1-1,0.2-1.5,0.3c-2,0.4-3.7,1.1-5.4,1.4
				c-0.8,0.1-1.6,0.2-2.4,0.1l-0.5-0.1l-0.6-0.2c-0.4-0.1-0.8-0.3-1.2-0.4c-0.8-0.3-1.6-0.7-2.4-1.1l-0.6-0.3l-0.5-0.3l-0.6-0.4
				c-0.2-0.1-0.6-0.4-1.2-0.6c-0.6-0.1-1.2,0-1.5,0.1c-0.4,0.1-0.6,0.3-0.9,0.4c-0.3,0.1-0.4,0.2-0.7,0.4l-0.6,0.4
				c-1,0.7-1.7,1.4-2.4,2.1c-1.4,1.4-2.5,2.8-3.8,3.7c-1.2,0.8-3.1,1.2-5,2.2c-2,1-3.5,2.7-4.6,4.3c-2.4,3.3-3.7,6.9-5.9,9.6
				c-1.2,1.5-2.4,2.8-3.7,4.1c-1.3,1.3-2.7,2.6-4.1,3.9c-2.8,2.5-5.7,4.9-8.6,7.4c3.2-2,6.4-4,9.5-6.3c1.5-1.1,3-2.3,4.5-3.6
				c1.4-1.2,2.9-2.6,4.2-4c2.8-3,4.3-6.6,6.5-9.4c1.1-1.5,2.3-2.6,3.7-3.3c0.7-0.4,1.6-0.7,2.4-1c0.8-0.3,2-0.7,2.9-1.3
				c1.9-1.2,3.1-2.8,4.4-4.1c0.6-0.6,1.3-1.3,1.8-1.7l0.6-0.4l0.5-0.3c0.1-0.1,0.2-0.1,0.3-0.2c0.1,0.1,0.4,0.3,0.6,0.4l0.7,0.5
				l0.7,0.4c0.9,0.5,1.8,0.9,2.8,1.3c0.5,0.2,1,0.3,1.5,0.5l0.8,0.2c0.3,0.1,0.6,0.1,0.9,0.1c1.1,0.1,2.3,0,3.3-0.2
				c2-0.4,3.8-1.2,5.5-1.6c0.4-0.1,0.8-0.2,1.3-0.3c0.4-0.1,0.8-0.1,1.3-0.2c0.9-0.1,1.8-0.1,2.7-0.1c1.9,0,3.9,0,5.9-0.4
				c1-0.2,2-0.7,2.9-1.3c0.7-0.5,1.2-1.1,1.7-1.8c1.4,0.9,2.9,1.8,4.4,2.5c1.6,0.8,3.3,1.4,5,1.7c-1,0.9-2,1.8-2.9,2.7
				c-1.6,1.5-3.1,2.9-4.8,4.3c-1.6,1.3-3.4,2.6-5.1,3.5c-1.6,0.8-3.7,0.6-6,0.6c-1.1,0-2.4,0.2-3.5,0.7c-0.3,0.1-0.5,0.3-0.8,0.4
				c-0.2,0.2-0.4,0.3-0.7,0.5c-0.5,0.4-0.9,0.7-1.3,1.2c-1.6,1.6-2.7,3.5-4,5.2c-0.7,0.8-1.4,1.6-2.2,2.2c-0.2,0.2-0.4,0.3-0.6,0.4
				c-0.2,0.1-0.4,0.2-0.6,0.3c-0.5,0.2-1,0.2-1.5,0.3c-0.5,0-1.1,0.1-1.7,0.2c-0.6,0.2-1.1,0.4-1.5,0.8c-0.9,0.7-1.5,1.6-2.2,2.4
				c-1.4,1.6-3.5,2.5-4.8,4.2c1.4-1.7,3.6-2.3,5.2-3.9c0.8-0.8,1.5-1.6,2.3-2.2c0.8-0.6,1.8-0.7,2.9-0.8c0.5,0,1.1-0.1,1.7-0.2
				c0.3-0.1,0.6-0.2,0.9-0.3c0.2-0.1,0.5-0.3,0.7-0.5c0.9-0.6,1.7-1.4,2.5-2.3c1.5-1.7,2.7-3.5,4.2-4.8c0.4-0.3,0.8-0.7,1.2-0.9
				c0.2-0.1,0.5-0.3,0.7-0.4c0.2-0.1,0.4-0.2,0.6-0.3c0.9-0.4,1.8-0.5,2.8-0.5c2,0,4.4,0.5,6.8-0.5c2.1-1,3.9-2.3,5.7-3.6
				c1.7-1.4,3.4-2.8,5-4.3c1.6-1.4,3.2-2.9,4.8-4.3c1.6-1.4,3.3-2.6,5.1-3.7c1.8-1.1,3.6-2,5.6-2.6c2-0.6,4.1-1.1,6.2-1.7
				c2.2-0.6,4.3-1.3,6.4-2.5c0.5-0.3,0.9-0.5,1.4-0.9c0.5-0.3,0.9-0.7,1.4-1c0.9-0.7,1.7-1.5,2.5-2.2c1.6-1.4,3.2-2.7,4.8-3.1
				c1.6-0.4,3.6-0.5,5.6-1.5c0,0.4,0.2,0.8,0.2,1.2c0.2,0.7,0.5,1.4,0.8,2.1c0.3,0.7,0.6,1.4,1,2c0.4,0.7,0.7,1.3,1.2,1.9
				c0.5,0.6,1.1,1.1,1.6,1.6c0.5,0.5,1,1,1.3,1.5c0.5,0.7,0.9,1.2,1.4,1.8l1.4,1.7c0.5,0.6,0.9,1.1,1.3,1.7c0.4,0.6,0.8,1.2,1.1,1.8
				l1.1,1.9c0.4,0.6,0.8,1.3,1.3,1.9c0.4,0.6,0.8,1.2,1.3,1.8c0.5,0.6,0.9,1.2,1.9,1.9c0.1,0.1,0.2,0.2,0.5,0.3
				c0.1,0,0.3,0.1,0.4,0.1l0.1,0l0,0l0.2,0l0,0l0.2,0c0.1,0,0.2,0,0.3-0.1c0.2-0.1,0.4-0.1,0.5-0.2c0.5-0.3,0.8-0.6,1.1-0.9
				c0.4,0.9,0.7,1.7,1.1,2.6c0.8,1.6,1.6,3.2,2.8,4.7c1.2,1.5,2.8,2.6,4,3.6c0.7,0.5,1.2,1,1.8,1.6l1.7,1.8c1.1,1.2,1.9,2.3,2.4,3.7
				c0.1,0.3,0.2,0.7,0.3,1.1c0.1,0.3,0.1,0.7,0.2,1.1c0,0.3,0,0.2,0,0.4l-0.1,0.6c0,0.4-0.1,0.9-0.1,1.4c0,0.3,0,0.5,0,0.8
				c0,0.1,0,0.2,0,0.3l0,0.2c0,0.1,0.1,0.2,0.1,0.3c0.1,0.3,0.1,0.3,0.2,0.3l0,0c0.3,0.4,0.1,0.1,0.2,0.2l0.1,0.1l0.1,0.1
				c0.3,0.3,0.7,0.6,1.3,0.7c0.6,0.1,1.1,0,1.4-0.1c0.1,0,0.2-0.1,0.2-0.1c0.2,0.1,0.5,0.2,0.9,0.2c0.1,0.1,0.1,0.2,0.1,0.2
				c0.1,0.2,0.1,0.4,0.2,0.8c0.1,0.7,0,1.5,0.1,2.5c0,0.5,0.1,1,0.3,1.6c0.1,0.2,0.3,0.7,0.4,0.9l0.2,0.3c0.2,0.3,0.2,0.3,0.3,0.4
				c0.4,0.5,0.9,0.8,1.3,1.1c0.4,0.2,0.6,0.4,0.7,0.5c0.2,0.1,0.3,0.7,0.2,1.5c0,0.8-0.1,1.4-0.3,2.2c-0.1,0.4-0.3,0.9-0.3,1.5
				c-0.1,0.6,0.1,1.3,0.4,1.8c0.2,0.5,0.5,0.9,0.8,1.3l0.4,0.5c0.2,0.2,0.3,0.4,0.5,0.5c1.2,1.3,2.5,2.4,3.4,3.6
				c0.2,0.3,0.4,0.6,0.6,0.9c0.1,0.2,0.1,0.3,0.2,0.5l0.1,0.3l0,0.1c0,0,0,0,0,0l0,0.1c0.1,0.6,0,1.4-0.1,2.2
				c-0.1,0.8-0.2,1.9,0.1,2.8c0.5,1.1,1.2,1.7,1.8,2.3c0.7,0.6,1.4,1.1,2,1.6c0.6,0.5,1.2,1.1,1.7,1.8c0.9,1.1,1.8,2.4,3,3.4
				c-0.6,0.3-1.2,0.6-1.8,0.9c-1.3,0.7-2.5,1.4-3.7,2.2c-1.1,0.8-2.3,1.6-3.4,2.5c-2.2,1.7-4.4,3.6-6.4,5.4
				c-4.2,3.7-8.1,7.6-12.3,11.1c-2.1,1.7-4.3,3.4-6.5,5.1l-6.6,5c-4.4,3.3-8.9,6.5-13.5,9.5c-4.6,3-9.5,5.6-14.5,7.8
				c-5.1,2.1-10.4,3.9-15.8,4.7c5.5-0.5,10.9-2,16.1-4c5.2-2,10.2-4.4,15-7.3c2.4-1.4,4.7-3,7-4.5c2.3-1.5,4.6-3.1,6.9-4.7l6.8-4.8
				c2.2-1.6,4.5-3.2,6.7-5c4.4-3.5,8.5-7.3,12.6-10.9c2.1-1.8,4.1-3.6,6.3-5.2c1.1-0.8,2.2-1.6,3.3-2.4c1.1-0.7,2.3-1.4,3.4-2
				c2.4-1.3,4.9-2.4,7.4-3.6c2.5-1.2,5.1-2.5,7.5-4.2c2.4-1.7,4.5-3.5,6.6-5.4c1.8-1.6,3.5-3.2,5.3-4.8c0.4,0.3,0.9,0.6,1.3,0.9
				c0.7,0.5,1.4,1.1,1.9,1.6l1.3,1.4l1.1-1.4c2.8-3.6,5.9-7,8.7-10.9c0.7-1,1.4-1.9,2-2.9c0.6-1,1.2-2,1.8-3.1
				c0.6-1.1,1.1-2.2,1.5-3.3l0.6-1.7l0.5-1.8l0-0.1l0-0.1c0.1-1.7,0.2-3.4,0.5-5c0.3-1.4,0.8-2.8,1.3-4.2c0.1,0,0.1-0.1,0.2-0.1
				c0.3-0.2,0.5-0.3,0.7-0.5c0.4-0.4,0.7-0.7,0.9-1.1c0.5-0.8,1-1.6,1.1-2.8l0,0.2c0.3-1.8,0.6-3.5,1.3-4.9c0.7-1.5,1.9-2.7,3-4.5
				c1-1.7,1.6-3.5,2.3-5.2c0.3-0.8,0.7-1.7,1.1-2.4c0.2-0.4,0.4-0.7,0.6-1c0.3-0.4,0.5-0.7,0.8-1c1.1-1.2,2.5-2.3,4-3.3l4.6-3
				c1.5-1,3.1-2.2,4.4-3.5c1.3-1.2,2.7-2.4,4.1-3.5c1.4-1,3-2.1,4.5-2.9c1.6-0.8,3.3-1.4,5-2.3c1.7-0.9,3.4-2.4,3.8-4.5
				c0.4-1.9,0.2-3.8,0.8-5.3c0.7-1.5,2-2.9,3.1-4.4c0.5-0.8,1-1.6,1.3-2.5c0.3-0.9,0.5-1.8,0.8-2.6c0.3-0.8,0.8-1.5,1.6-2
				c0.7-0.4,1.7-0.5,2.6-0.5c1.7-0.1,3.5,0.2,5.2,0.2c0.1,0.4,0.3,0.9,0.5,1.3c-0.2-0.4-0.3-0.8-0.5-1.3c0.1,0,0.1,0,0.2,0
				c-0.1,0-0.1,0-0.2,0c0-0.1-0.1-0.1-0.1-0.2c-0.1-0.5-0.2-1-0.2-1.5c-0.1-1,0.1-2.1,0.3-3.1c0.4-2,1.3-3.8,2.2-5.6
				c0.3,0,0.6,0.1,1,0.1c0.4-0.1,0.8-0.1,1.2-0.3c0.7-0.3,1.4-0.8,1.9-1.4c0.5-0.6,0.9-1.2,1.3-1.9c0.4-0.7,0.7-1.4,0.9-2.1
				c0.5-1.4,1-2.9,1.3-4.3l0.6-2.2c0.2-0.7,0.4-1.4,0.7-2.1c0.3-0.6,0.5-1.4,0.9-2c0.3-0.6,0.6-1.1,1.2-1.4c0.5-0.3,1.3-0.6,1.9-0.9
				c0.7-0.3,1.4-0.6,2-0.8c1.4-0.5,2.8-0.9,4.3-1.7c1.1-0.6,2.2-1.5,2.9-2.7c0.7,0.4,1.4,1,2.2,1.5c0.5,0.3,1.1,0.7,1.8,0.9
				c0.7,0.2,1.4,0.3,2.2,0.2l0.5-0.1l0.2-0.5c0.9-2.1,1.7-4.2,2.7-6.1c0.5,0.2,0.9,0.4,1.4,0.5c0.8,0.2,1.6,0.4,2.3,0.6
				c1.6,0.3,3.1,0.5,4.6,0.8c1.5,0.3,2.9,0.6,4.3,1c0.7,0.2,1.3,0.5,1.9,0.9l0.8,0.5c0.3,0.2,0.6,0.5,0.9,0.7c0.5,0.4,1.2,1,1.8,1.5
				c0.6,0.5,1.3,1,2,1.4c1.4,0.9,2.9,1.5,4.4,2c0.7,0.3,1.5,0.6,2.3,0.8c0.8,0.2,1.6,0.4,2.3,0.6c1.5,0.3,3,0.6,4.4,1l1.1,0.3
				l0.5-1.1c1.1-2.2,2.8-4.2,4.8-5.6c1-0.7,2.1-1.3,3.3-1.6c0.6-0.2,1.2-0.3,1.8-0.4c0.6-0.1,1.2-0.1,1.8-0.1l1.5,0l0-1.4
				c0-1.1,0.8-2.1,2.1-3c0.6-0.4,1.4-1,2-1.4c0.6-0.4,1.3-0.7,2-0.9c1.4-0.4,3.1-0.6,5-1.1c0.9-0.2,1.9-0.6,2.8-1.2
				c0.6-0.4,1-0.9,1.3-1.3c0.3-0.4,0.5-0.8,0.8-1.2c0.9-1.5,1.6-3.1,2.5-4c1-1.1,2.3-1.9,3.8-2.8c0.7-0.4,1.5-0.9,2.3-1.5
				c0.8-0.6,1.5-1.2,2.1-1.9c1.3-1.3,2.3-2.7,3.3-4c1.1-1.2,2.1-2.3,3.4-2.8c0.6-0.3,1.2-0.4,2.1-0.5c0.8-0.1,1.9-0.3,2.8-0.7
				c0.2-0.1,0.5-0.2,0.7-0.3c0.2-0.1,0.3-0.2,0.6-0.3c0.5-0.3,0.8-0.5,1.2-0.8c0.7-0.6,1.4-1.1,2.1-1.7c1.3-1.2,2.5-2.3,3.8-3.8
				c1.3-1.6,1.9-3.3,2.7-4.7c0.7-1.2,1.8-2.2,3.1-3.2c1.3-1,2.8-2,4.1-3.1c1.1-0.9,2.1-1.9,3-2.9c1.6,0.9,3.1,2,4.6,3.2
				c0.9,0.7,1.9,1.5,2.9,2.1c0.5,0.3,1.1,0.7,1.7,0.9c0.5,0.3,1.4,0.5,1.9,0.6c0.2,0,0.8,0.2,1.2,0.2c0.5,0,0.9-0.1,1.2-0.2
				c0.7-0.2,1.1-0.4,1.3-0.4c0.1,0-0.2,0,0.1,0c-0.1,0,0,0,0,0c0,0,0.1,0,0.2,0.2c0.1,0.1,0.3,0.4,0.6,0.8c0.2,0.2,0.3,0.4,0.6,0.6
				l0.3,0.1l0.1,0l0.2,0.1l0.1,0c1.3,0.4,2.4,0.5,3.4,0.8c1.1,0.4,0.9,0.1,1.4,1.4c0.1,0.3,0.2,0.6,0.4,1c0.3,0.5,0.7,0.9,0.9,1
				c0.5,0.4,1,0.8,1.4,1.1c0.5,0.3,0.9,0.7,1.2,1c0.4,0.3,0.6,0.6,0.8,1c0.4,0.8,0.5,1.9,0.7,3c0.2,1.1,0.3,2.3,0.7,3.7
				c0.5,1.2,1.3,2.4,2.3,3.3c1,0.9,2.2,1.4,3.3,1.8c1.1,0.4,2.1,0.8,3,1.3c0.9,0.5,1.5,1.2,2,2.1l0.7,1.4l0.9-1.2
				c0.4-0.6,1.2-1.1,1.9-1.9c0.5,0.6,0.9,1.2,1.3,1.8c0.6,1,1,2,1.2,3l0.2,2l1.3-1.6c0.3-0.4,0.7-0.7,1.1-0.8
				c0.4-0.1,0.9-0.1,1.3,0.1c1,0.3,2,1,2.9,1.8c0.9,0.8,1.8,1.6,2.8,2.5c0.5,0.4,1,0.8,1.5,1.2c0.3,0.2,0.6,0.4,0.9,0.5
				c0.3,0.1,0.6,0.2,1,0.2c3.6,3.1,6.4,7.2,8.9,11.3c1.2,2.1,2.3,4.4,3.8,6.4c0.8,1,1.7,1.8,2.5,2.8c0.6,0.6,1,1.4,1.2,2.2
				c-0.6,0.9-1.3,1.8-2.1,2.6l-6.2,7c-1.1,1.2-2,2.5-2.9,3.7c-1,1.2-2,2.4-3.2,2.6c-0.6,0.1-1.3,0-2-0.3c-0.7-0.2-1.3-0.6-2-1.1
				c-1.2-0.7-2.1-2-3.2-3.2c-0.5-0.6-1-1.2-1.6-1.8c-0.3-0.3-0.6-0.6-1-0.8c-0.2-0.1-0.4-0.2-0.6-0.3c-0.2-0.1-0.3-0.1-0.6-0.2
				c-1-0.2-1.9,0.1-2.6,0.6c-0.7,0.5-1.3,1-1.9,1.6c-2.3,2.3-3.8,5-5.9,7.3c-1,1.3-1.8,2.7-2.4,4.1c-0.7,1.4-1.1,2.9-1.8,4.4
				c-0.6,1.4-1.4,2.8-2.4,3.9c-1,1.2-2.3,2.1-3.5,3.1c-2.4,2-4.6,4.3-6.5,6.8c-1.9,2.5-3.4,5.3-4.8,8.1c1.4-2.8,3-5.5,4.9-8
				c1.9-2.5,4.2-4.7,6.6-6.6c1.2-1,2.5-1.9,3.6-3.1c1.1-1.2,1.9-2.6,2.5-4c0.7-1.4,1.2-2.9,1.8-4.3c0.7-1.4,1.4-2.7,2.4-3.9
				c2.1-2.3,3.8-5,6-7.1c0.5-0.5,1.1-1,1.7-1.4c0.6-0.4,1.3-0.6,1.8-0.4c-0.1,0.3-0.3,0.8-0.4,1.4c-0.3,1.1-0.5,2.6,0,4.3
				c0.1,0.2,0.2,0.4,0.2,0.6c0.2,0.4,0.2,0.3,0.3,0.6c0.3,0.5,0.6,0.8,1,1.1c0.6,0.5,1,0.6,1.4,0.9c0.4,0.3,0.7,0.7,0.9,1l0,3.9
				c0,0.8-0.8,2-1.7,3c-0.9,1-2.1,2-3.2,2.9l-1.8,1.4c-0.6,0.5-1.2,0.9-1.8,1.4c-1.1,0.9-2.4,1.8-3.6,2.7c-2.4,1.8-4.9,3.6-7.2,5.7
				c-1.1,1-2.3,2.1-3.3,3.2c-0.5,0.6-1,1.2-1.4,1.8c-0.4,0.6-0.8,1.3-1.2,2c0.5-0.6,0.9-1.2,1.4-1.8c0.5-0.6,1-1.1,1.6-1.6
				c1.1-1,2.3-2,3.5-2.9c2.4-1.8,5-3.3,7.6-5c1.3-0.8,2.6-1.6,3.8-2.5l3.7-2.6c1.3-0.9,2.5-1.9,3.7-3c0.5-0.5,1.1-1.1,1.5-1.8
				c0.4,0.7,0.8,1.3,1.3,2c1,1.4,1.9,2.7,3.2,4.1c0.7,0.8,1.7,1.3,2.5,1.7c0.4,0.2,0.7,0.3,1,0.5c0.3,0.2,0.5,0.3,0.9,0.6
				c0.3,0.2,0.6,0.5,0.8,0.6c0.1,0.1,0,0,0.1,0.3c0.1,0.6,0.2,1.5,0.4,2.3c0.1,0.6,0.2,0.8,0.3,1.3c0.1,0.5,0.3,1,0.4,1.4
				c0.3,0.9,0.8,1.7,1.2,2.5c0.9,1.6,2.1,2.9,3.2,4.1c1.1,1.3,2.2,2.5,3.1,3.7c0.2,0.3,0.5,0.6,0.7,0.9c0.1,0.1,0.3,0.4,0.3,0.4
				l0.3,0.5l0.3,0.5l0.2,0.5c0.1,0.3,0.3,0.6,0.4,1c1,2.8,1.1,6.1,1.5,9.4c0.2,1.7,0.5,3.4,1.1,5.1c0.6,1.7,1.5,3.3,2.7,4.6
				c1.2,1.3,2.5,2.3,3.5,3.4c1,1.1,1.8,2.5,2.3,4c1.1,2.9,1.4,6.3,2.4,9.3c-0.2-0.2-0.4-0.4-0.5-0.6c0.1,0.3,0.3,0.7,0.6,0.9
				l0.1,0.1l0-0.2c-0.7-3.2-0.7-6.5-1.5-9.8c-0.4-1.6-1.1-3.3-2.2-4.7c-1.1-1.4-2.4-2.5-3.3-3.7c-1-1.1-1.6-2.5-2-4
				c-0.4-1.5-0.6-3-0.7-4.6c-0.2-3.2-0.2-6.7-1.3-10.1c-0.1-0.4-0.3-0.9-0.5-1.3l-0.3-0.7l-0.3-0.5l-0.3-0.5
				c-0.2-0.3-0.3-0.4-0.4-0.6c-0.2-0.4-0.5-0.7-0.8-1.1c-1-1.4-2.2-2.7-3.2-3.9c-1.1-1.2-2.1-2.5-2.8-3.7c-0.4-0.6-0.7-1.3-1-2
				c-0.2-0.3-0.2-0.6-0.3-1c-0.1-0.3-0.2-0.9-0.2-1.1c-0.1-0.8-0.2-1.5-0.4-2.6c-0.1-0.5-0.5-1.4-1-1.8c-0.5-0.4-0.8-0.7-1.2-0.9
				c-0.3-0.2-0.7-0.5-1.2-0.8c-0.4-0.2-0.9-0.4-1.2-0.6c-0.7-0.3-1.2-0.6-1.6-1c-1-1-2-2.4-3-3.6c-1-1.3-1.9-2.6-2.8-4l-2.1-3.2
				c0-0.1,0.1-0.1,0.1-0.2c0.1-0.3,0.3-0.9,0.2-1.7c-0.1-0.4-0.2-0.8-0.4-1.1c-0.2-0.3-0.4-0.6-0.5-0.9c-0.1-0.2-0.3-0.5-0.3-0.6
				c0,0-0.2-0.4-0.1-0.4c-0.1-0.1-0.1-0.3-0.1-0.4c-0.4-1.1-0.7-2.5-1.3-3.5c-0.1-0.3-0.3-0.5-0.4-0.8c0.8,0.6,1.6,1.5,2.3,2.4
				c1,1.2,1.9,2.5,3.4,3.5c0.6,0.4,1.4,0.9,2.1,1.2c0.8,0.3,1.7,0.6,2.6,0.4c0.9-0.1,1.7-0.6,2.4-1.2c0.7-0.6,1.2-1.2,1.7-1.8
				c1-1.2,1.9-2.5,3-3.6l6.3-6.9c1.1-1.1,2.1-2.5,2.9-3.9c0.8-1.4,1.5-2.8,2.1-4.3c1.3-2.8,2.7-5.5,5.2-7.1c2.4-1.7,5.5-2.9,7.9-5.2
				c1.3-1.2,2.1-2.4,3.2-3.6c1-1.2,2.1-2.3,3.1-3.4l6.5-6.8c1.1-1.2,2.2-2.2,3.2-3.7c0.9-1.4,1.6-2.8,2.4-4.1
				c0.8-1.3,1.6-2.6,2.6-3.4c1-0.8,2-0.9,3.2-0.3l1.1,0.5l0.5-1.1c0.6-1.3,1.6-2.5,2.7-3.6c1.1-1.1,2.4-2.3,3.5-3.8
				c0.5-0.8,1-1.6,1.2-2.5c0.3-0.9,0.5-1.7,0.6-2.6c0.3-1.7,0.4-3.3,0.7-4.8c0.2-0.8,0.3-1.5,0.6-2c0.3-0.6,0.8-1.2,1.2-2.1
				c0.5-0.8,0.8-1.9,0.9-2.6c0.2-0.7,0.4-1.5,0.6-2.3c0.5-1.5,1-3.1,1.6-4.5l0.1-0.3c0,0,0.1-0.1,0.1-0.2c0.1-0.2,0.2-0.4,0.3-0.5
				c0.1-0.2,0.4-0.5,0.6-0.8c0.5-0.5,1-1,1.6-1.4c1.2-0.9,2.7-1.6,4.2-2.6c1-0.8,2.6-1.1,4.2-1.7c0.8-0.3,1.8-0.7,2.7-1.6
				c0.7-0.7,1.1-1.6,1.5-2.4c0.8-1.6,1.3-3,2.2-4.1c1-1.1,2.2-2.3,3.3-3.4c1.2-1.1,2.4-2.2,3.7-3.2c2.1-1.8,4.3-3.7,6.3-5.8
				c1.9,1.7,3.6,3.6,5.4,5.5c2,2.2,4,4.6,5.8,6.9c0.9,1.7,1.8,3.4,2.8,5c0.5,0.8,1.1,1.7,1.7,2.5c0.6,0.8,1.3,1.6,2.1,2.3
				c0.4,0.4,0.7,0.7,1.1,1l1.1,1l2.2,1.9l4.1,3.6c2.1,4.7,4.3,9.4,6.6,14.1c1.2,2.4,2.4,4.7,3.6,7.1c1.3,2.3,2.6,4.7,4.1,7
				c0.7,1.1,1.7,2.4,2.9,3.3c1.3,1,2.7,1.5,3.9,2c1.1,0.5,2.3,1.1,3.2,1.7c0.8,0.5,1.4,1.5,2.3,2.7c0.5,0.6,1,1.2,1.7,1.7
				c0.7,0.5,1.6,0.9,2.5,1l0.1,0l0,0l0,0l0.1,0l0.1,0l0.2,0c0.2,0,0.3,0,0.5,0c0.5,0,1-0.1,1.4-0.2c0.9-0.2,1.6-0.6,2.3-1.1
				c1.3-0.9,2.2-2,3.1-2.8c0.5-0.5,1-0.8,1.5-1.1c0.7,1.3,1.5,2.5,2.3,3.6c1.1,1.5,2.3,2.8,3.2,4.2l0.8,1.1c0.3,0.4,0.6,0.8,0.9,1.2
				c0.6,0.7,1.4,1.4,2.1,2l2.1,1.6c0.3,0.3,0.6,0.5,1,0.8c0,0,0.1,0.1,0.2,0.2l0.1,0.2l0.3,0.4c0.5,0.7,1,1.4,1.5,2.2
				c0.5,0.8,1,1.5,1.7,2.3c0.4,0.4,0.7,0.8,1.6,1.2l0.2,0.1l0.1,0l0,0c-0.2,0,0.3,0.1,0.3,0l0,0l0.2,0l0.3,0c0.2,0,0.8-0.1,1.1-0.1
				c1.3-0.4,2.1-0.9,2.9-1.5c1.6-1.1,2.9-2.4,4.2-3.7c0.6-0.6,1.1-1.2,1.7-1.8c0,0.7-0.1,1.4-0.3,2c-0.3,1.1-0.9,2.2-1.3,3.4
				c-0.5,1.2-0.8,2.4-0.9,3.7c-0.1,1.3,0.2,2.7,0.1,3.6c-0.1,0.5-0.3,1-0.5,1.5c-0.1,0.2-0.3,0.5-0.4,0.8c-0.1,0.2-0.3,0.5-0.5,0.7
				c-0.7,0.9-1.5,1.8-2.3,2.8c-0.8,1-1.4,2.4-1.7,3.6c-0.3,1.2-0.7,2.3-1.1,3.4c-0.8,2.2-1.7,4.3-3.2,6c-0.7,0.9-1.5,1.5-2.4,2.1
				c-0.9,0.6-2,1.1-3.2,1.9c-2.6,1.7-3.6,4.5-4.5,6.6c-0.5,1.1-1,1.9-1.7,2.9c-0.7,0.9-1.4,1.8-2.2,2.6c-1.6,1.6-3.5,2.9-5.5,4.3
				l-0.4,0.3c-0.1,0.1,0,0,0,0l-0.1,0.1l-0.8,0.3l-0.9,0.4c-0.3,0.2-0.6,0.3-1.1,0.7c-0.1,0.1-0.2,0.2-0.3,0.3l-0.1,0.1l0,0
				c-0.2,0.3-0.1,0.1-0.1,0.2l-0.1,0.2c0,0.1-0.1,0.2-0.1,0.4c-0.1,0.5,0,1,0,1.3c0.1,0.4,0.3,0.7,0.4,0.9l-0.2,0.5
				c-0.5,1.1-0.9,2-1.6,2.7c-0.7,0.7-1.6,1.4-2.6,2.1c-1.9,1.3-4,2.5-6.1,3.2c-1,0.3-2.1,0.4-3.4,0.6c-0.6,0.1-1.3,0.2-2,0.5
				c-0.3,0.1-0.7,0.2-1,0.4c-0.2,0.1-0.3,0.2-0.4,0.2c-0.2,0.1-0.3,0.2-0.5,0.3c-2.3,1.7-3.5,3.8-5.4,4.7c-0.3,0.1-0.7,0.4-1,0.7
				c-0.3,0.3-0.5,0.6-0.7,0.9c-0.2,0.3-0.3,0.5-0.5,1c-0.1,0.4-0.2,0.8-0.3,1.1c-0.1,0.7,0,1.3,0,1.9c0,0.6,0,1.2-0.1,1.4
				c-0.1,0.5-1.4,0.9-2.5,0.9c-1.1,0-2.3-0.1-3.2-0.6l-0.6-0.3l-0.2,0.6c-0.5,1.1-0.4,2.3-0.3,3.3c0.1,1.1,0.2,2.1,0.1,3
				c0,0.3-0.1,0.5-0.1,0.7c-0.1,0.3-0.2,0.5-0.3,0.7c-0.2,0.4-0.6,0.8-1,1.1c-0.4,0.3-0.8,0.6-1.2,1c-0.1,0.1-0.1,0.2-0.2,0.2
				l-0.1-0.2l-1.5,1c-1,0.6-1.9,1.7-2.3,2.8c-0.5,1.1-0.6,2.1-0.9,2.9c-0.1,0.4-0.2,0.8-0.4,1.2c-0.1,0.2-0.1,0.3-0.2,0.5l-0.2,0.3
				c0,0-0.1,0.2-0.1,0.2c-0.4,0.7-0.9,1.5-1.5,2.2c-1.1,1.4-2.3,2.8-3.5,4.3l-1.8,2.1c-0.6,0.6-1.2,1.3-1.9,1.8
				c-2.7,2.3-5.9,4.2-9,6.5c-0.8,0.6-1.5,1.2-2.2,1.8c-0.7,0.6-1.4,1.1-2,1.3c-0.6,0.2-0.7,0.2-1.2-0.3c-0.5-0.4-1-1.2-1.5-1.9
				l-0.9-1.4l-1.1,1.2c-0.6,0.6-0.9,1.1-1.3,1.6c-0.4,0.5-0.7,1.1-1,1.6l-1.9,3.2c-1.2,2.1-2.5,4.2-3.8,6.2c-1.4,2-2.8,3.9-4.6,5.2
				c-0.4,0.3-0.9,0.6-1.4,0.8c-0.5,0.2-0.9,0.3-1.4,0.3c-0.5,0.1-0.9-0.1-1.4-0.2c-0.2-0.1-0.4-0.2-0.7-0.3l-0.6-0.4l-0.8-0.6
				l-0.6,0.7c-1.4,1.8-2.2,3.8-3,5.7c-0.4,0.9-0.8,1.9-1.3,2.7c-0.3,0.4-0.5,0.8-0.8,1.2c-0.3,0.4-0.6,0.8-1,1.1
				c-2.7,3-6.1,5.3-9.6,7.5l-0.5,0.3l0.2,0.5c0.7,1.7,1.8,3,2.8,4.3c1,1.3,2,2.6,2.9,3.9c0.4,0.7,0.9,1.4,1.2,2.1
				c0.3,0.7,0.6,1.4,0.7,2.2c0.1,0.4,0.1,0.7,0.1,1.1c0,0.3-0.2,0.8-0.2,1.1c-0.2,0.6-0.8,1.3-1.4,1.8c-1.2,1.1-2.5,2.1-3.8,3.2
				c-0.6,0.5-1.2,1.2-1.8,1.7l-1.8,1.7l-7,6.9l7.3-6.6l1.8-1.7c0.6-0.6,1.2-1.1,1.8-1.6c1.3-1,2.7-1.9,3.9-3.1
				c0.6-0.6,1.2-1.2,1.6-2.1c0.1-0.5,0.3-0.8,0.3-1.3c0-0.5,0.1-0.9,0-1.4c-0.1-0.9-0.4-1.7-0.7-2.5c-0.3-0.8-0.8-1.5-1.2-2.2
				c-0.9-1.4-1.9-2.8-2.9-4.1c-0.8-1.1-1.6-2.3-2.2-3.5c3.4-2,6.7-4.3,9.6-7.2c0.4-0.4,0.7-0.8,1.1-1.2c0.3-0.4,0.7-0.9,1-1.4
				c0.6-0.9,1-1.9,1.5-2.9c0.7-1.6,1.4-3.1,2.3-4.4l0,0c0.3,0.2,0.6,0.3,1,0.5c0.7,0.2,1.5,0.4,2.2,0.4c0.8,0,1.5-0.2,2.1-0.5
				c0.7-0.3,1.3-0.6,1.8-1c2.2-1.6,3.8-3.6,5.3-5.6c1.5-2,2.8-4.2,4.1-6.3l1.9-3.1c0.3-0.5,0.6-1,1-1.5c0.3,0.3,0.6,0.7,0.9,1
				c0.5,0.4,1,0.8,1.8,1c0.8,0.2,1.5,0,2.1-0.2c1.2-0.5,1.9-1.1,2.7-1.7c0.8-0.6,1.5-1.2,2.2-1.7c2.9-2.1,6.2-4,9.2-6.5
				c0.7-0.6,1.5-1.3,2.1-2.1l1.8-2.1c1.2-1.4,2.5-2.8,3.7-4.4c0.6-0.8,1.2-1.6,1.7-2.4c0.1-0.1,0.1-0.2,0.2-0.4l0.2-0.3
				c0.1-0.2,0.2-0.5,0.4-0.8c0.2-0.5,0.3-1,0.5-1.5c0.2-0.8,0.4-1.6,0.6-2.2c0.4,1.3,0.8,2.6,1.2,4c0.7,2.2,1.5,4.5,2.9,6.7
				c0.4,0.5,0.8,1.1,1.2,1.5c0.3,0.2,0.5,0.5,0.8,0.7l0.3,0.3l0.5,0.3c1.2,0.7,2.3,1.2,3.4,1.6c1.1,0.4,2.1,0.8,2.9,1.3
				c0.2,0.1,0.4,0.2,0.6,0.4c0.1,0.1,0.2,0.1,0.3,0.2c0.1,0.1,0.2,0.2,0.3,0.3c0.3,0.3,0.7,0.7,1.1,1.1c0.7,0.8,1.5,1.7,2.5,2.6
				c0.5,0.4,1.1,0.9,1.8,1.2l0.3,0.1l0.2,0.1l0.1,0l0.1,0c0.2,0.1,0.6,0.1,0.8,0.1c0.4,0,0.8,0,1.1,0c0.6,0,1.2-0.1,1.5-0.1
				c0.1,0,0.2,0.1,0.3,0.1c0.2,0.1,0.4,0.2,0.6,0.3c0.8,0.5,1.6,1.2,2.3,2c0.8,0.8,1.5,1.6,2.3,2.5c0.8,0.8,1.7,1.7,2.7,2.5
				c0.5,0.4,1.1,0.8,1.8,1.1c0.7,0.3,1.7,0.5,2.7,0.2c1-0.3,1.6-1,2.1-1.6c0.1-0.1,0.1-0.2,0.2-0.3c0.2,0.1,0.3,0.2,0.5,0.3
				c0.6,0.4,1.1,0.9,1.7,1.3c1.1,1,2.1,2.1,3,3.2c1.9,2.3,3.7,4.9,5.8,7.3c0.5,0.6,1.1,1.2,1.8,1.8c0.7,0.6,1.3,1,2,1.5
				c1.3,0.9,2.6,1.6,3.6,2.5l0.2,0.2c0,0,0.1,0.1,0.1,0.1l0.1,0.1c0.1,0.1,0.3,0.3,0.3,0.4c0.2,0.2,0.4,0.5,0.6,0.8
				c0.4,0.6,0.7,1.2,1,1.9c0.6,1.4,1.2,2.9,2.1,4.3l0.6,0.9l1.5-0.6c0.1,0,0.2-0.1,0.3-0.2c0.1,0,0.2-0.1,0.3-0.1c0.1,0,0.2,0,0.4,0
				c0.2,0,0.3,0.1,0.5,0.2c0.7,0.3,1.5,1,2.3,1.7c1.5,1.4,2.8,3.1,4.4,4.7c0.9,0.9,1.7,1.5,2.5,2.2l2.4,2.2l4.9,4.3l4.9,4.3
				c1.6,1.4,3.3,2.8,4.8,4.3c1.5,1.5,3,3,4.3,4.7c1.3,1.7,2.7,3.4,3.8,5.2c0.6,0.9,1.1,1.8,1.4,2.7c0.2,0.5,0.3,0.9,0.3,1.3
				c0,0.3,0,0.6,0,0.7c0,0.1,0,0.2,0,0.2c0,0.1,0,0.1-0.1,0.2c0,0.1-0.1,0.1-0.2,0.2c-0.1,0-0.4,0.1-0.6,0.1c-0.5,0-1.1,0-1.8,0.2
				c-0.7,0.2-1.4,0.7-1.7,1.3l-0.1,0.1l0,0c0,0.1,0-0.1-0.1,0.1l0,0l-0.1,0.2c0,0.1-0.1,0.2-0.1,0.4c0,0.4-0.1,0.8-0.1,1.1
				c0.1,1.3,0.7,2.4,1.3,3.3c0.6,1,1.3,1.8,2.1,2.7c0.8,0.8,1.5,1.6,2.4,2.3c0.9,0.7,1.8,1.3,2.7,1.9c1.9,1.1,3.9,2,5.8,3
				c1.9,1,3.6,2.4,4.8,4.1c1.2,1.8,2.4,3.6,3.5,5.5c1.1,1.9,2.1,3.8,2.7,5.9c-0.4-2.1-1.4-4.1-2.4-6.1c-1-1.9-2.1-3.8-3.3-5.6
				c-1.2-1.9-3-3.3-4.9-4.5c-1.9-1.2-3.8-2.1-5.6-3.2c-1.8-1.1-3.3-2.5-4.7-4.2c-0.7-0.8-1.3-1.7-1.8-2.5c-0.5-0.9-0.9-1.8-1-2.7
				c0-0.2,0-0.3,0-0.5c0-0.1,0.1-0.2,0.1-0.4l0.1-0.2l0,0l0-0.1c0.2-0.3,0.5-0.5,0.8-0.6c0.4-0.1,0.9-0.1,1.4-0.1c0.3,0,0.6,0,1-0.1
				c0.4-0.1,0.9-0.4,1.1-0.8c0.5-0.7,0.4-1.6,0.4-2.1c0-0.7-0.2-1.3-0.4-1.8c-0.4-1.1-1-2.1-1.5-3.1c-1.2-1.9-2.5-3.7-3.8-5.4
				c-1.3-1.8-2.8-3.5-4.4-5c-1.6-1.6-3.2-3-4.8-4.5l-4.8-4.4l-4.8-4.4l-2.4-2.2c-0.8-0.7-1.7-1.5-2.3-2.2c-1.4-1.5-2.8-3.3-4.4-4.9
				c-0.8-0.8-1.7-1.6-3-2.2c-0.3-0.2-0.6-0.3-1-0.4c-0.3-0.1-0.8-0.1-1.2-0.1c-0.3,0-0.5,0.1-0.8,0.1c-0.4-0.9-0.9-1.9-1.3-2.9
				c-0.3-0.7-0.7-1.5-1.2-2.2c-0.2-0.4-0.5-0.7-0.8-1.1c-0.2-0.2-0.3-0.3-0.4-0.5l-0.1-0.1l-0.2-0.2l-0.2-0.2c-1.3-1.2-2.7-2-4-2.8
				c-0.6-0.4-1.2-0.8-1.7-1.3c-0.5-0.4-1-0.9-1.5-1.5c-1.9-2.3-3.7-4.8-5.7-7.3c-1-1.2-2.1-2.4-3.3-3.6c-0.6-0.6-1.3-1.1-1.9-1.6
				c-0.7-0.5-1.4-0.9-2.2-1.3l-1.4-0.7l-0.7,1.5l-0.3,0.6c-0.1,0.2-0.2,0.3-0.3,0.5c-0.2,0.2-0.4,0.4-0.5,0.4c-0.1,0-0.4,0-0.7-0.1
				c-0.3-0.1-0.7-0.4-1.1-0.7c-0.8-0.6-1.5-1.4-2.3-2.2c-0.8-0.8-1.5-1.7-2.3-2.5c-0.8-0.9-1.7-1.7-2.8-2.5
				c-0.3-0.2-0.6-0.4-0.9-0.5c-0.2-0.1-0.3-0.1-0.4-0.2l-0.1,0l-0.1-0.1L706,383c-0.2,0-0.3-0.1-0.3-0.1c-0.1,0-0.2,0-0.2,0
				c-0.9,0-1.3,0.1-1.9,0.1c-0.2,0-0.4,0-0.6,0c-0.1,0,0,0-0.1,0l-0.1,0l0,0l-0.1-0.1c-0.3-0.2-0.7-0.4-1-0.7
				c-0.7-0.6-1.4-1.5-2.2-2.4c-0.4-0.4-0.8-0.9-1.4-1.4l-0.4-0.3c-0.2-0.1-0.3-0.2-0.4-0.3c-0.3-0.2-0.6-0.4-0.8-0.5
				c-1.1-0.6-2.3-1.1-3.3-1.5c-1-0.4-2.1-0.8-2.8-1.3l-0.3-0.2l-0.3-0.3l-0.5-0.4c-0.3-0.3-0.6-0.7-0.9-1.1
				c-1.1-1.6-1.9-3.7-2.6-5.8c-0.7-2.1-1.2-4.4-2.2-6.7l-0.5-1.2c0.1-0.1,0.2-0.2,0.3-0.2c0.4-0.3,0.9-0.5,1.3-0.8
				c0.4-0.3,0.9-0.6,1.2-1.1c0.2-0.2,0.3-0.5,0.4-0.7c0.1-0.3,0.2-0.5,0.2-0.8c0.2-1.1,0.2-2.2,0.2-3.2c0-0.8,0.1-1.6,0.3-2.2
				c1,0.5,2.1,0.7,3.2,0.8c0.7,0,1.3,0,2-0.2c0.7-0.2,1.6-0.5,2-1.4c0.4-0.9,0.4-1.5,0.5-2.2c0-0.6,0-1.2,0.1-1.7
				c0.1-0.5,0.2-0.7,0.6-1.2c0.1-0.2,0.3-0.4,0.4-0.5c0.1-0.1,0.2-0.2,0.5-0.3c2.6-1.1,4.2-3.5,5.9-4.6c0.1-0.1,0.2-0.1,0.3-0.2
				c0.1-0.1,0.3-0.2,0.4-0.2c0.2-0.1,0.4-0.2,0.7-0.2c0.5-0.1,1-0.2,1.6-0.3c1.1-0.1,2.5-0.2,3.8-0.6c2.6-0.8,4.8-2,6.9-3.4
				c0.5-0.3,1.1-0.7,1.6-1.1c0.6-0.4,1.1-0.8,1.6-1.4c1-1,1.7-2.4,2.2-3.5l0.4-0.8l0-0.1l0-0.1l0,0l0.1-0.3l0-0.1l0,0l0-0.2
				c0-0.3,0-0.6,0-0.7c-0.1-0.5-0.2-0.6-0.3-0.8l0.7-0.3l0.9-0.4l0.3-0.1c0.1,0,0.3-0.2,0.3-0.2l0.4-0.3c2-1.4,4.1-2.8,6-4.7
				c0.9-0.9,1.8-1.9,2.5-3c0.7-1,1.5-2.3,2-3.4c0.5-1.2,1-2.2,1.5-3.2c0.6-1,1.1-1.7,1.9-2.3c0.8-0.6,2-1.2,3.1-1.9
				c1-0.7,2.1-1.7,3-2.8c1.7-2.1,2.6-4.6,3.3-7c0.4-1.2,0.6-2.4,0.9-3.6c0.3-1.2,0.5-2.1,1.2-3c0.6-0.9,1.4-1.9,2.1-3
				c0.2-0.3,0.3-0.6,0.5-0.9c0.1-0.3,0.3-0.5,0.4-0.9c0.3-0.6,0.5-1.3,0.5-2c0.1-0.7-0.1-1.4-0.2-2c-0.1-0.6-0.2-1.1-0.2-1.7
				c0-1.2,0.2-2.3,0.5-3.4c0.3-1.1,0.8-2.3,1.1-3.5c0.2-0.8,0.2-1.7,0.1-2.5c0,0,0.1-0.1,0.1-0.1c0.4,0.7,0.9,1.4,1.4,2
				c1,1.2,2.1,2.3,3.2,3.2c1.1,1,2.4,1.9,3.7,2.7c1.4,0.8,2.8,1.3,4.1,1.9c1.3,0.6,2.5,1.1,3.5,1.9c1.1,0.8,2.1,1.7,3.2,2.7
				c1.1,1,2.1,1.9,3.3,2.9c1.2,1,2.3,1.8,3.2,2.7c0.9,0.9,1.7,2,2.3,3.1c0.6,1.2,1.2,2.4,1.7,3.8c0.5,1.3,1.1,2.7,1.7,4
				c0.6,1.3,1.3,2.7,2.1,4c3,5.1,6.8,9.5,9.3,14.4l0.6,1.1l1.1-0.4c2.6-1,4.2-2.8,5.8-4.2c0.8-0.7,1.6-1.4,2.4-1.9
				c0.7-0.5,1.8-0.8,2-0.6c0.6,0.2,1.5,1.1,3,1.6c0.4,0.1,0.8,0.2,1.3,0.2l0.3,0c0,0,0.3,0,0.2,0l0.1,0l0.1,0c0.1,0,0.2,0,0.5-0.1
				c0.2-0.1,0.5-0.2,0.6-0.3l0.5-0.3c0.3-0.2,0.6-0.4,0.8-0.6c1-0.8,1.8-1.6,2.6-2.3c0.8-0.7,1.7-1.3,2.1-1.3l0.1,0l0,0
				c-0.1,0,0,0,0,0l0.1,0c0.1,0,0.3,0,0.4,0c0,0,0.1,0,0.1,0c0,0.1,0.1,0.5,0.2,0.8c0.1,0.4,0.4,0.9,0.7,1.2c0.3,0.4,0.7,0.6,1,0.8
				c0.4,0.2,0.7,0.3,0.9,0.4c0.2,0.1,0.6,0.2,0.9,0.3c2.4,0.7,4.7,0.6,6.7,1c2.1,0.3,3.7,1.2,5.4,2.6
				C839.2,316.9,840.7,318.5,842.2,320.1z M1177.9,371.9c0.1,0.1,0.2,0.1,0.3,0.2c0,0.1,0,0,0,0c-0.1,0-0.1,0-0.2,0
				c-0.2-0.2-0.3-0.3-0.5-0.5C1177.7,371.7,1177.8,371.8,1177.9,371.9z M229,384.7C229,384.7,229,384.7,229,384.7
				C228.9,384.7,229,384.7,229,384.7z M278.7,406.9c-0.4-0.3-0.7-0.6-1.1-0.8c-0.8-0.6-1.6-1.1-2.5-1.6l-1-0.6l-0.9,0.8
				c-2,1.9-4,3.7-6.1,5.6c-2.1,1.8-4.1,3.7-6.3,5.2c-3.8,2.7-8.2,4.5-12.5,6.7c-1-1.1-1.7-2.4-2.6-3.7c-0.5-0.7-1-1.4-1.6-2.1
				c-0.6-0.6-1.3-1.2-1.8-1.8c-0.6-0.6-1.1-1.3-1.2-1.8c-0.2-0.7,0-1.4,0.1-2.2c0.2-0.8,0.4-1.7,0.3-2.8l0-0.2c0,0,0,0,0-0.1l0-0.1
				l-0.1-0.3c-0.1-0.2-0.2-0.5-0.3-0.7c-0.2-0.5-0.4-0.9-0.7-1.3c-1-1.6-2.3-2.8-3.4-4c-0.1-0.1-0.3-0.3-0.4-0.4l-0.4-0.5
				c-0.2-0.3-0.4-0.6-0.5-0.9c-0.1-0.3-0.1-0.4-0.1-0.6c0-0.2,0.1-0.6,0.3-1c0.3-0.8,0.5-1.9,0.6-2.8c0-0.9,0.2-2.1-0.8-3.4
				c-0.5-0.6-1-0.9-1.3-1.1c-0.3-0.2-0.5-0.4-0.6-0.6c0,0-0.1-0.2-0.1-0.1l-0.2-0.3c-0.1-0.2-0.1-0.1-0.1-0.3
				c-0.1-0.2-0.1-0.6-0.1-0.9c0-0.7,0.1-1.5,0-2.6c0-0.5-0.1-1.1-0.4-1.7c-0.4-0.7-0.4-0.8-0.9-1.5c0-0.1-0.2-0.2-0.4-0.4
				c-0.2-0.1-0.4-0.3-0.8-0.3c-0.2,0-0.4,0-0.6,0c0,0-0.1,0-0.1,0l-0.1-0.1c-0.1,0,0,0-0.2-0.1c-0.4-0.1-0.7-0.1-0.9-0.1
				c-0.1,0-0.2,0-0.3,0.1c0-0.3,0.1-0.6,0.1-0.9l0.1-0.7c0-0.1,0-0.3,0-0.5l0-0.4c0-0.4-0.1-0.9-0.2-1.4c-0.1-0.5-0.2-0.9-0.3-1.4
				c-0.6-1.9-1.8-3.6-3.1-4.9l-1.8-1.9c-0.7-0.7-1.4-1.2-2.1-1.8c-1.4-1.1-2.7-2-3.6-3.1c-0.9-1.1-1.8-2.5-2.5-4
				c-0.7-1.5-1.4-3-2-4.6l-0.7-1.7l-1.4,1c-0.6,0.5-0.8,0.8-1.1,1.2l-0.6,0.9c-0.1,0.1-0.2,0.2-0.2,0.3c-0.3-0.2-0.7-0.7-1.1-1.1
				c-0.5-0.5-0.9-1.1-1.3-1.7c-0.5-0.6-0.8-1.1-1.3-1.7l-1.2-1.8c-0.4-0.6-0.9-1.2-1.3-1.8c-0.5-0.6-1-1.2-1.5-1.7l-1.5-1.6
				c-0.5-0.5-1-1.1-1.5-1.6c-0.5-0.6-1.1-1.2-1.7-1.6c-0.6-0.5-1.2-0.8-1.7-1.3c-0.4-0.5-0.9-1.1-1.3-1.7c-0.4-0.6-0.8-1.2-1.1-1.9
				c-0.3-0.6-0.7-1.3-1-2c-0.1-0.4-0.3-0.8-0.4-1.2c0,0,0,0,0,0l2.1,1.2c1,0.6,2,1.1,3.3,1.5c0.6,0.2,1.3,0.3,2.1,0.3
				c0.7,0,1.4-0.1,2.1-0.3c0.7-0.2,1.3-0.4,1.8-0.7c0.2-0.1,0.5-0.3,0.7-0.4c2.5,1.6,5.2,2.6,7.4,3.9c0.7,0.4,1.2,0.7,1.8,1.2
				c0.6,0.5,1.4,1,2.2,1.4c0.8,0.4,1.5,0.7,2.2,1c0.8,0.4,1,0.5,1.6,1c0.3,0.3,0.6,0.6,1.1,0.9c0.2,0.1,0.6,0.3,0.7,0.4
				c0.4,0.2,0.6,0.2,0.9,0.3c1.2,0.1,1.8,0,2,0.2c0.4,0.2,1.1,0.6,1.6,1c0.6,0.4,1.1,0.9,1.7,1.4c1.1,1,1.9,1.9,2.5,3.2
				c0.5,1.3,1.3,3.2,2.8,4.4c1.4,1.1,2.9,1.9,4.4,2.5c1.5,0.6,2.8,1.2,4,1.9c1.2,0.7,2.2,1.7,3.2,2.8c1,1.1,2,2.4,3.2,3.5
				c1.3,1.2,2.6,2,3.9,2.9l3.9,2.6c1.3,0.9,2.5,1.7,3.8,2.7c1.3,0.8,2.7,1.5,4,2c0.3,0.6,0.6,1.1,1,1.6l1.2,1.8l2.5,3.5l5,6.9l5,6.9
				l2.5,3.4l1.2,1.7c0.1,0.2,0.3,0.4,0.4,0.6C280.3,405,279.5,406,278.7,406.9z M339.2,324.8c-0.8,1.9-0.7,3.8-1.1,5.5
				c-0.3,1.6-1.7,2.7-3.2,3.4c-1.6,0.7-3.3,1.3-5.1,2.1c-1.7,0.9-3.3,1.8-4.8,2.9c-1.5,1.1-3,2.3-4.4,3.5c-1.4,1.2-2.7,2.2-4.3,3.2
				l-4.7,2.9c-1.6,1-3.1,2.1-4.5,3.6c-0.3,0.4-0.7,0.8-0.9,1.2c-0.3,0.4-0.6,0.9-0.8,1.3c-0.5,0.9-0.9,1.7-1.2,2.6
				c-0.7,1.7-1.4,3.4-2.2,4.8c-0.8,1.3-2.2,2.7-3.1,4.6c-1,1.9-1.3,3.9-1.6,5.7l0,0.1l0,0.1c0,0.3-0.3,0.9-0.6,1.4
				c-0.2,0.2-0.4,0.5-0.5,0.6c-0.1,0.1-0.2,0.2-0.2,0.2c0,0,0,0,0,0c0,0,0.1,0,0.2,0l-1.3,0.9c-0.6,1.6-1.3,3.3-1.7,5.2
				c-0.4,1.8-0.5,3.5-0.6,5.3l-0.4,1.5l-0.5,1.5c-0.4,1-0.9,2-1.4,3c-0.5,1-1.1,1.9-1.7,2.9c-0.6,0.9-1.3,1.9-1.9,2.8
				c-1.7,2.2-3.5,4.4-5.3,6.6c-0.1-0.2-0.2-0.4-0.4-0.6l-1.1-1.8l-2.3-3.6l-4.7-7.1l-4.6-7.1l-2.3-3.6l-1.1-1.8
				c-0.3-0.6-0.8-1.3-0.9-1.7l-0.1-0.4l-0.3-0.2c-1.4-0.6-2.8-1.3-3.9-2.1c-1.1-0.9-2.5-1.9-3.7-2.8l-3.8-2.7
				c-1.3-0.9-2.6-1.8-3.5-2.7c-1-1-1.9-2.2-3-3.5c-1-1.2-2.2-2.4-3.7-3.4c-2.9-1.8-6-2.5-8-4.3c-0.9-0.8-1.4-1.9-2-3.4
				c-0.3-0.8-0.8-1.6-1.3-2.3c-0.6-0.7-1.1-1.3-1.7-1.9c-0.6-0.6-1.2-1.1-1.9-1.6c-0.7-0.5-1.3-1-2.3-1.5c-1.3-0.5-2.3-0.3-2.6-0.4
				c-0.1,0-0.2,0-0.2,0c-0.2-0.1-0.2-0.1-0.2-0.1c1.2-0.9,2.2-2.1,3.1-3.2c1.2-1.5,2.3-3.1,3.6-4.5c2.6-2.7,6.3-4.1,9.4-6.9
				c0.8-0.7,1.5-1.4,2.1-2.3c0.6-0.8,1.1-1.8,1.4-2.9c0.3-1.1,0.2-2.4,0.1-3.2c0-0.4,0.1-0.6,0.2-0.9c0.2-0.3,0.4-0.6,0.7-0.8
				c0.2-0.2,0.7-0.6,1-0.9c0.5-0.4,0.8-0.7,1.2-1.1l2-2.1c0.3-0.3,0.7-0.7,1-0.9c0.2-0.2,0.3-0.3,0.5-0.4l0.2-0.1
				c0.1,0.1,0.2,0.2,0.5,0.4c0.2,0.1,0.3,0.2,0.7,0.3c0.5,0,0.1,0,0.5,0l0.8-0.1c2-0.3,4.1-0.7,6-1.8c0.5-0.2,1-0.6,1.5-1l0.3-0.2
				c0.2-0.1,0.2-0.2,0.3-0.3c0.2-0.2,0.4-0.4,0.6-0.6c0.7-0.9,1.3-1.8,1.8-2.6c0.5-0.8,1-1.4,1.5-1.8c0.4-0.4,1.4-0.8,2.2-1.2
				c1.7-0.8,3.5-1.7,5.3-2.7c0.5-0.3,0.9-0.6,1.3-0.9c0.5-0.3,0.9-0.7,1.3-1c0.8-0.7,1.4-1.3,2.1-1.9c0.7-0.6,1.4-1,1.9-1.1
				c0,0,0,0,0,0c0,0,0,0.1,0.1,0.1c0.2,0.3,0.6,0.6,0.9,0.7c0.4,0.2,0.6,0.2,0.9,0.2c0.5,0,0.9,0,1.1-0.1l0.1,0l0.1,0l0.1,0l0.3-0.1
				c0.2-0.1,0.4-0.1,0.5-0.2c0.6-0.3,1.1-0.6,1.5-0.9c0.8-0.6,1.6-1.3,2.2-1.7c0.8-0.5,1.7-1.1,2.6-2c0.4-0.5,0.8-0.9,1.1-1.4
				c0.5,0.4,1,0.8,1.4,1.4c0.8,0.9,1.6,2,2.3,3.1c0.7,1.1,1.4,2.2,2.2,3.4c0.7,1.2,1.6,2.4,2.6,3.5c1,1.1,2.1,2,3.3,2.8
				c1.2,0.8,2.4,1.5,3.6,2.2c2.5,1.3,5.1,2.3,7.7,3.2c2.6,0.9,5.2,1.7,7.7,2.6l7.6,2.9c4.8,1.9,9.5,4.1,13.5,7.5
				C339.5,324.2,339.3,324.5,339.2,324.8z M514.3,234.3C514.4,234.3,514.4,234.3,514.3,234.3L514.3,234.3
				C514.3,234.2,514.3,234.3,514.3,234.3z"/>
			<path class="st1" d="M295.7,374.5L295.7,374.5C295.7,374.5,295.7,374.5,295.7,374.5z"/>
			<path class="st1" d="M1299,404.9c-0.6-0.9-1.6-1.4-2.5-1.8c-0.9-0.5-1.8-1-2.4-1.8c-1.3-1.5-2-3.5-3.4-5.1l-3.8-4.8
				c-1.3-1.6-2.7-3.1-3.9-4.7c-0.6-0.8-1.2-1.6-1.7-2.5c-0.5-0.8-1-1.8-1.5-2.7c-0.5-0.9-1-1.8-1.7-2.7c-0.4-0.4-0.6-0.8-1.2-1.2
				c-0.1-0.1-0.4-0.2-0.7-0.2c-0.3,0-0.4,0.1-0.5,0.1c-0.2,0.1-0.4,0.1-0.6,0.2c-0.9,0.2-1.7-0.1-2.3-0.7c-0.6-0.7-1.1-1.6-1.7-2.4
				c-1.2-1.8-2.9-3.2-4.5-4.4c-1.7-1.2-3.5-2.3-5.2-3.3l-5.3-3c-1.8-1-3.5-2-5.1-3.2c-1.6-1.2-3.2-2.4-4.3-3.9
				c-0.3-0.4-0.6-0.9-0.8-1.3c-0.3-0.5-0.6-0.9-0.9-1.4c-0.6-0.9-1.3-1.6-2-2.4c-2.9-3-5.9-5.7-9.1-8.4l-0.6-0.5l-0.6,0.5l-5.1,4.2
				c-1.7,1.4-3.4,2.8-5.2,4.1c-0.8,0.6-1.8,1-2.7,1.5c-1,0.5-2,0.9-3,1.3c-2,0.8-4.1,1.6-6.1,2.2c-2,0.6-4.2,0.9-6.3,1.2
				c-2.1,0.2-4.5,0.4-6.8,1.1c-1.1,0.4-2.2,0.8-3.2,1.4c-0.5,0.3-1,0.5-1.5,0.8c-0.5,0.3-1,0.6-1.5,0.9c-1.9,1.2-3.7,2.7-5.4,4.2
				c-3.3,3.1-6.2,6.5-9.6,9c-0.8,0.6-1.7,1.2-2.6,1.7c-0.5,0.2-1,0.5-1.5,0.7l-1.5,0.7c-2,1-4,2.1-5.9,3.2c-1.9,1.1-3.8,2.3-5.7,3.3
				c-1.9,1-3.8,2-5.8,2.8c-2,0.7-4,1.4-6,1.5c-2,0.1-4-0.1-5.9-0.8l-1.1-0.4l-0.6,0.9c-1.6,2.2-4.1,3.6-6.9,4.7
				c-2.8,1.1-5.8,1.9-8.8,3.4c-5.9,3-10.1,8-15,11.3c-2.4,1.7-5,2.9-7.9,3.4c-2.9,0.6-6.1,0.8-9.3,2c-3.2,1.3-5.8,3.2-8.3,5
				c-2.5,1.8-5,3.7-7.5,5.1c-5.5,2.8-11,5.6-16.6,8.3c-5.6,2.7-11.2,5.3-16.8,7.8c-5.7,2.5-11.4,4.8-17.2,7
				c-5.8,2.1-11.7,4-17.6,5.5l-4.5,1.1c-1.4,0.3-2.9,0.5-4.3,0.5c-3,0.1-6.1-0.2-9.4,0c-1.6,0.1-3.2,0.3-4.8,0.7
				c-1.6,0.4-3.2,1.1-4.6,2c-2.7,1.7-5.2,3.4-7.9,4.5c-5.5,2.3-11.8,2.2-18,4c-6.3,1.8-11.5,5.5-16.7,8.8c-2.6,1.6-5.2,3.2-8,4.5
				c-2.8,1.3-5.7,2.2-8.7,2.9c-6,1.4-12.1,2.1-18.3,2.9c-6.4,0.8-11.9,4.1-17.9,5.4c-2.9,0.7-6.1,0.6-9.2,1.3
				c-1.5,0.3-3.1,0.8-4.5,1.6c-1.3,0.7-2.5,1.8-3.3,3.1c-2.5-0.4-5.1-1.2-7.6-1.8c-1.3-0.4-2.6-0.7-4-1c-1.3-0.3-2.7-0.5-4.1-0.4
				c-2.8,0.2-5.3,1.5-7.6,2.9c-2.3,1.4-4.5,3-7,4.1c2.5-1,4.8-2.5,7.1-3.9c2.3-1.3,4.8-2.6,7.5-2.7c2.7,0,5.3,0.8,7.9,1.5
				c2.6,0.8,5.2,1.6,7.9,2.1l0.3,0l0.1-0.2c1.6-2.6,4.5-3.9,7.5-4.4c3-0.6,6.1-0.5,9.3-1.1c6.2-1.2,11.8-4.4,17.8-5
				c6.1-0.7,12.4-1.3,18.5-2.7c3.1-0.7,6.1-1.6,9-2.9c3-1.3,5.6-2.9,8.3-4.5c5.3-3.3,10.4-6.8,16.2-8.3c5.8-1.6,12.2-1.5,18.3-3.9
				c3.1-1.2,5.7-3,8.3-4.6c1.3-0.8,2.5-1.3,3.9-1.7c1.4-0.4,2.9-0.5,4.4-0.6c2.9-0.2,6,0.1,9.3,0c1.6,0,3.3-0.2,4.9-0.6l4.5-1.1
				c6.1-1.5,12.1-3.4,17.9-5.6c5.9-2.1,11.6-4.5,17.4-7c5.7-2.5,11.4-5.1,17-7.8c5.6-2.7,11.1-5.4,16.7-8.3c2.9-1.6,5.4-3.5,7.9-5.3
				c1.2-0.9,2.5-1.8,3.7-2.6c1.2-0.8,2.6-1.6,3.8-2c2.6-1,5.7-1.2,8.9-1.9c1.6-0.3,3.2-0.8,4.7-1.5c0.8-0.3,1.5-0.7,2.2-1.1
				c0.6-0.4,1.4-0.9,2.1-1.3c5.3-3.7,9.3-8.5,14.6-11.2c2.5-1.2,5.6-2.1,8.5-3.3c2.6-1,5.5-2.5,7.5-4.9c2,0.6,4.1,0.8,6.1,0.7
				c2.4-0.2,4.7-0.9,6.8-1.7c2.2-0.8,4.2-1.9,6.1-3c2-1.1,3.9-2.2,5.8-3.4c1.9-1.1,3.8-2.2,5.7-3.2l1.5-0.7c0.5-0.3,1-0.5,1.5-0.7
				c1.1-0.6,2.1-1.2,3-1.9c3.7-2.8,6.6-6.3,9.7-9.2c1.6-1.5,3.2-2.8,5-4c0.4-0.3,0.9-0.6,1.3-0.8c0.5-0.3,1-0.6,1.4-0.8
				c0.9-0.5,1.9-0.9,2.9-1.2c1.9-0.7,4-0.8,6.3-1.1c2.2-0.3,4.5-0.7,6.7-1.3c2.2-0.7,4.3-1.4,6.3-2.3c1-0.4,2.1-0.9,3.1-1.4
				c1-0.5,2-1,3-1.7c1.8-1.4,3.5-2.8,5.2-4.2l4.4-3.8c2.9,2.4,5.8,4.9,8.4,7.5c0.7,0.7,1.4,1.5,1.9,2.2c0.3,0.4,0.6,0.8,0.8,1.2
				c0.3,0.5,0.6,0.9,0.9,1.3c1.4,1.8,3.1,3.1,4.8,4.3c1.7,1.2,3.5,2.2,5.3,3.2l5.4,2.9c1.8,1,3.5,2,5.2,3.1c1.6,1.1,3.2,2.4,4.3,4
				c0.6,0.8,1.1,1.7,1.9,2.5c0.4,0.4,0.9,0.8,1.5,0.9c0.6,0.2,1.2,0.1,1.7,0.1c0.6-0.1,1.3-0.5,1.1-0.3c0.3,0.2,0.7,0.6,1,1
				c0.6,0.7,1.1,1.6,1.6,2.5c0.5,0.9,1,1.8,1.5,2.7c0.6,0.9,1.2,1.7,1.9,2.5c1.3,1.6,2.7,3.1,4,4.6l3.9,4.7c1.3,1.5,2.1,3.4,3.5,5
				c1.3,1.8,3.8,1.8,5,3.5c1.2,1.6,2,3.6,3.3,5.1C1300.9,408.5,1300.2,406.6,1299,404.9z"/>
			<path class="st1" d="M608.2,299.7c0.8,0.6,1.4,1,2,1.7c0.5,0.6,0.9,1.4,1.3,2.3l1.2,2.8c0.5,1.1,1,1.9,1.3,2.7
				c0.4,0.9,0.7,1.8,0.9,2.7c0.5,1.9,0.8,3.9,1.2,5.9c0.2,1,0.5,2.2,1.1,3.2c0.6,1,1.4,1.9,2.1,2.6c0.8,0.7,1.6,1.3,2.2,2
				c0.3,0.3,0.7,0.7,0.9,1c0.1,0.2,0.3,0.4,0.4,0.6c0.1,0.2,0.3,0.4,0.4,0.6c1,1.7,1.8,3.5,2.5,5.4c0.7,1.9,1.3,3.8,2,5.8
				c-0.8-4-1.4-8.1-3.2-11.9c-0.1-0.2-0.2-0.5-0.4-0.7c-0.1-0.2-0.2-0.4-0.4-0.7c-0.3-0.5-0.6-0.9-1-1.3c-0.7-0.8-1.5-1.5-2.1-2.3
				c-0.7-0.7-1.2-1.4-1.6-2.2c-0.4-0.8-0.6-1.6-0.7-2.6c-0.3-1.9-0.5-4-0.9-6.1c-0.2-1.1-0.5-2.1-0.9-3.1c-0.4-1-0.9-2-1.2-2.8
				c-0.4-0.9-0.7-1.9-1.1-2.9c-0.4-1-0.9-2-1.7-3c-0.7-0.9-1.7-1.7-2.6-2.3c-0.4-0.2-0.7-0.5-1-0.7l0.4-0.4L609,295
				c-0.2-0.3-0.4-0.6-0.6-0.7c-0.2-0.2-0.4-0.2-0.5-0.3c-0.3-0.1-0.5-0.1-0.7-0.2c-0.4,0-0.6,0-0.9-0.1l-0.7,0l-0.2,0c0,0,0,0,0,0
				c0,0,0.1,0,0.1,0l-1.9,0.5c-1.3,1.7-2.4,3.5-3.5,5c-0.6,0.7-1.2,1.4-1.8,2c-0.7,0.6-1.4,1-2.3,1.6l-2.6,1.5
				c-0.9,0.6-1.9,1.2-2.7,2c-0.8,0.9-1.5,1.8-1.9,2.9c-0.5,1-0.8,2-1.1,2.9c-0.7,1.9-1.4,3.7-2.2,5.6c-0.4,0.9-0.8,1.8-1.3,2.7
				c-0.5,0.9-0.9,1.8-1.5,2.6c-0.5,0.9-1.1,1.7-1.7,2.4c-0.6,0.8-1.3,1.5-2,2.2c-0.7,0.7-1.5,1.3-2.3,1.8l-1.3,0.7l-1.4,0.6
				c-0.3-0.1-0.4-0.4-0.3-0.8c-0.1,0.2-0.1,0.3,0,0.5c0,0.2,0.2,0.3,0.3,0.4l0,0l0,0l1.5-0.4c0.5-0.2,1-0.4,1.4-0.6
				c0.9-0.5,1.8-1,2.7-1.6c0.8-0.6,1.6-1.3,2.3-2.1c0.7-0.8,1.4-1.5,2-2.4c2.5-3.3,4.3-7.1,5.9-10.8c0.4-0.9,0.8-1.9,1.2-2.7
				c0.4-0.8,0.9-1.5,1.5-2.1c1.2-1.2,3-1.9,4.9-3c0.8-0.5,1.9-1.1,2.7-1.8c0.9-0.7,1.6-1.6,2.3-2.4c1-1.4,1.9-2.7,2.8-3.9l0.3,0.3
				C606.4,298.5,607.4,299.1,608.2,299.7z"/>
		</g>
	</g>
</g>
</svg>
