<?xml version="1.0" encoding="utf-8"?>
<!-- Generator: Adobe Illustrator 21.0.0, SVG Export Plug-In . SVG Version: 6.00 Build 0)  -->
<svg version="1.1" id="Capa_1" xmlns="http://www.w3.org/2000/svg" xmlns:xlink="http://www.w3.org/1999/xlink" x="0px" y="0px"
	 viewBox="0 0 1366 768" style="enable-background:new 0 0 1366 768;" xml:space="preserve">
<style type="text/css">
	.st0{fill:#FFFFFF;}
</style>
<path class="st0" d="M625.8,508.9c116.1,0,179.6-96.2,179.6-179.6c0-2.7-0.1-5.5-0.2-8.2c12.3-8.9,23-20,31.5-32.7
	c-11.3,5-23.5,8.4-36.2,9.9c13-7.8,23-20.2,27.7-34.9c-12.2,7.2-25.7,12.5-40.1,15.3c-11.5-12.3-27.9-19.9-46.1-19.9
	c-34.9,0-63.1,28.3-63.1,63.1c0,5,0.6,9.8,1.6,14.4c-52.5-2.6-99-27.8-130.1-65.9c-5.4,9.3-8.5,20.2-8.5,31.7
	c0,21.9,11.1,41.2,28.1,52.5c-10.4-0.3-20.1-3.2-28.6-7.9c0,0.3,0,0.5,0,0.8c0,30.6,21.8,56.1,50.6,61.9c-5.3,1.4-10.9,2.2-16.6,2.2
	c-4.1,0-8-0.4-11.9-1.1c8,25.1,31.3,43.3,59,43.8c-21.6,16.9-48.8,27-78.4,27c-5.1,0-10.1-0.3-15.1-0.9
	C557,498.4,590.2,508.9,625.8,508.9"/>
</svg>
