<?xml version="1.0" encoding="utf-8"?>
<!-- Generator: Adobe Illustrator 21.0.0, SVG Export Plug-In . SVG Version: 6.00 Build 0)  -->
<svg version="1.1" id="Capa_1" xmlns="http://www.w3.org/2000/svg" xmlns:xlink="http://www.w3.org/1999/xlink" x="0px" y="0px"
	 viewBox="0 0 1280 1024" style="enable-background:new 0 0 1280 1024;" xml:space="preserve">
<style type="text/css">
	.st0{fill:#787FA0;}
</style>
<path class="st0" d="M643.6,720.6c3.2-3.6,7.9-7.6,8.8-11.8c0.2-0.9-1.2-2-2.6-1.3c-2.8,1.4-4.1,2.8-5.9,4.7
	c-1.5,1.6-2.9,3.1-4.4,4.7c-0.5,0.6-1.2,1.6-1.9,2.4c5.8-78.5,6.6-157.1,6.2-235.6c-0.4-76.8,1.9-153.9-2.2-230.6
	c4.2,4.7,8.6,9.4,13.1,13.9c2.3,2.3,7.6,0.2,5.5-2.2c-5.7-6.4-11.8-12.8-18.3-18.8c-0.1,0-0.1-0.1-0.2-0.1c-1.1-1-3.5-1.3-4.8,0
	c-3.3,3.5-6.4,7-9.6,10.6c-2.9,3.2-6.4,6.3-8.2,9.9c-0.9,1.7,2.8,3.2,4.6,1.8c3.8-2.8,6.2-6.4,8.9-9.6c0.9-1.1,1.8-2.2,2.7-3.2
	c-5.6,154.5,6.8,308.9-4.5,463.4c-1.6-1-3.3-1.9-4.9-2.8c-3.6-2.1-6.9-4.4-11.2-5.6c-2-0.6-4.7,0.7-3.3,2.2
	c3.7,3.9,10.2,6.7,15.5,9.7c2.4,1.4,5.7,4.1,9.4,3.8C640.3,725.6,642,722.4,643.6,720.6z"/>
</svg>
