<?xml version="1.0" encoding="utf-8"?>
<!-- Generator: Adobe Illustrator 21.0.0, SVG Export Plug-In . SVG Version: 6.00 Build 0)  -->
<svg version="1.1" xmlns="http://www.w3.org/2000/svg" xmlns:xlink="http://www.w3.org/1999/xlink" x="0px" y="0px"
	 viewBox="0 0 1122 1122" style="enable-background:new 0 0 1122 1122;" xml:space="preserve">
<style type="text/css">
	.st0{display:none;}
	.st1{display:inline;fill:#FBC6C7;}
	.st2{fill:#8B0000;}
	.st3{display:inline;}
	.st4{display:inline;filter:url(#Adobe_OpacityMaskFilter);}
	.st5{filter:url(#Adobe_OpacityMaskFilter_1_);}
	.st6{clip-path:url(#SVGID_2_);mask:url(#SVGID_3_);fill:url(#SVGID_4_);}
	.st7{display:inline;clip-path:url(#SVGID_2_);fill:url(#SVGID_5_);}
	.st8{display:inline;fill:#2E2E2E;}
</style>
<g id="BG" class="st0">
	<rect x="0" y="0" class="st1" width="1122" height="1122"/>
</g>
<g id="object">
	<circle class="st2" cx="570" cy="573" r="453.5"/>
	<g class="st0">
		<defs>
			<circle id="SVGID_1_" cx="561" cy="561" r="453.5"/>
		</defs>
		<use xlink:href="#SVGID_1_"  style="display:inline;overflow:visible;fill:#FFFFFF;"/>
		<clipPath id="SVGID_2_" class="st3">
			<use xlink:href="#SVGID_1_"  style="overflow:visible;"/>
		</clipPath>
		<defs>
			<filter id="Adobe_OpacityMaskFilter" filterUnits="userSpaceOnUse" x="267.6" y="267.6" width="909.9" height="909.9">
				<feFlood  style="flood-color:white;flood-opacity:1" result="back"/>
				<feBlend  in="SourceGraphic" in2="back" mode="normal"/>
			</filter>
		</defs>
		<mask maskUnits="userSpaceOnUse" x="267.6" y="267.6" width="909.9" height="909.9" id="SVGID_3_" class="st3">
			<g style="filter:url(#Adobe_OpacityMaskFilter);">
				<defs>
					<filter id="Adobe_OpacityMaskFilter_1_" filterUnits="userSpaceOnUse" x="267.6" y="267.6" width="909.9" height="909.9">
						<feFlood  style="flood-color:white;flood-opacity:1" result="back"/>
						<feBlend  in="SourceGraphic" in2="back" mode="normal"/>
					</filter>
				</defs>
				<mask maskUnits="userSpaceOnUse" x="267.6" y="267.6" width="909.9" height="909.9" id="SVGID_3_">
					<g class="st5">
					</g>
				</mask>
				<linearGradient id="SVGID_4_" gradientUnits="userSpaceOnUse" x1="353.5563" y1="353.5564" x2="1091.5734" y2="1091.5734">
					<stop  offset="0" style="stop-color:#FFFFFF"/>
					<stop  offset="1" style="stop-color:#000000"/>
				</linearGradient>
				<path class="st6" d="M1090,675.1L773.2,358.5c-53.4-56-128.8-90.8-212.2-90.8C399,267.6,267.6,399,267.6,561
					c0,83.5,34.9,158.8,90.8,212.2L673,1087.8c53.4,55.3,128.2,89.7,211.1,89.7c162,0,293.4-131.3,293.4-293.4
					C1177.5,802.3,1144,728.3,1090,675.1z"/>
			</g>
		</mask>
		<linearGradient id="SVGID_5_" gradientUnits="userSpaceOnUse" x1="353.5563" y1="353.5564" x2="1091.5734" y2="1091.5734">
			<stop  offset="0" style="stop-color:#CFD0D2"/>
			<stop  offset="1" style="stop-color:#CFD0D2"/>
		</linearGradient>
		<path class="st7" d="M1090,675.1L773.2,358.5c-53.4-56-128.8-90.8-212.2-90.8C399,267.6,267.6,399,267.6,561
			c0,83.5,34.9,158.8,90.8,212.2L673,1087.8c53.4,55.3,128.2,89.7,211.1,89.7c162,0,293.4-131.3,293.4-293.4
			C1177.5,802.3,1144,728.3,1090,675.1z"/>
	</g>
	<g class="st0">
		<circle class="st8" cx="570" cy="573" r="293.4"/>
	</g>
	<g>
		<path class="st0" d="M541.9,273.7L371.1,444.5c-17.2,17.1-17.2,45,0,62.1c17.2,17.2,45,17.2,62.1,0L573,366.9l139.8,139.8
			c17.2,17.2,45,17.2,62.1,0c8.6-8.6,12.9-19.8,12.9-31.1c0-11.2-4.3-22.5-12.9-31.1L604.1,273.7
			C586.9,256.6,559.1,256.6,541.9,273.7z"/>
		<path d="M541.9,444.5L371.1,615.4c-17.2,17.2-17.2,45,0,62.1c17.2,17.2,45,17.2,62.1,0L573,537.7l139.8,139.8
			c17.2,17.2,45,17.2,62.1,0c8.6-8.6,12.9-19.8,12.9-31.1s-4.3-22.5-12.9-31.1L604.1,444.5C586.9,427.4,559.1,427.4,541.9,444.5z"/>
		<path class="st0" d="M541.9,615.4L371.1,786.2c-17.2,17.2-17.2,45,0,62.1c17.2,17.2,45,17.2,62.1,0L573,708.5l139.8,139.8
			c17.2,17.2,45,17.2,62.1,0c8.6-8.6,12.9-19.8,12.9-31.1c0-11.2-4.3-22.5-12.9-31.1L604.1,615.4
			C586.9,598.2,559.1,598.2,541.9,615.4z"/>
	</g>
</g>
</svg>
