<?xml version="1.0" encoding="utf-8"?>
<!-- Generator: Adobe Illustrator 21.0.0, SVG Export Plug-In . SVG Version: 6.00 Build 0)  -->
<svg version="1.1" id="Capa_1" xmlns="http://www.w3.org/2000/svg" xmlns:xlink="http://www.w3.org/1999/xlink" x="0px" y="0px"
	 viewBox="0 0 1366 768" style="enable-background:new 0 0 1366 768;" xml:space="preserve">
<style type="text/css">
	.st0{fill:#EDE1B1;}
</style>
<g>
	<g>
		<path class="st0" d="M768.4,74.3C609.9,74.3,481,203.2,481,361.6C481,520.1,609.9,649,768.4,649c158.4,0,287.4-128.9,287.4-287.4
			C1055.7,203.2,926.8,74.3,768.4,74.3z M839.8,371.7h-46.8c0,74.7,0,166.6,0,166.6h-69.3c0,0,0-91.1,0-166.6h-32.9v-58.9h32.9
			v-38.1c0-27.3,13-69.9,69.9-69.9l51.3,0.2v57.2c0,0-31.2,0-37.3,0c-6.1,0-14.7,3-14.7,16v34.6h52.8L839.8,371.7z"/>
	</g>
</g>
</svg>
