<?xml version="1.0" encoding="utf-8"?>
<!-- Generator: Adobe Illustrator 21.0.0, SVG Export Plug-In . SVG Version: 6.00 Build 0)  -->
<svg version="1.1" id="Capa_1" xmlns="http://www.w3.org/2000/svg" xmlns:xlink="http://www.w3.org/1999/xlink" x="0px" y="0px"
	 viewBox="0 0 1366 768" style="enable-background:new 0 0 1366 768;" xml:space="preserve">
<style type="text/css">
	.st0{fill:#EDE1B1;}
</style>
<g>
	<g>
		<g>
			<path class="st0" d="M732.4,429.6c33,0,60-26.9,60-59.9c0-13-4.3-25.1-11.3-34.9c-10.9-15.1-28.6-25-48.6-25
				c-20,0-37.7,9.9-48.6,25c-7.1,9.8-11.3,21.9-11.3,34.9C672.4,402.7,699.3,429.6,732.4,429.6z"/>
			<polygon class="st0" points="863.2,296.3 863.2,246.1 863.2,238.6 855.7,238.6 805.5,238.8 805.7,296.5 			"/>
			<path class="st0" d="M732.4,70.3C567.3,70.3,433,204.6,433,369.6C433,534.7,567.3,669,732.4,669c165.1,0,299.4-134.3,299.4-299.4
				C1031.7,204.6,897.5,70.3,732.4,70.3z M902.6,334.7v139.4c0,36.3-29.5,65.8-65.8,65.8H627.9c-36.3,0-65.8-29.5-65.8-65.8V334.7
				v-69.5c0-36.3,29.5-65.8,65.8-65.8h208.9c36.3,0,65.8,29.5,65.8,65.8V334.7z"/>
			<path class="st0" d="M825.5,369.6c0,51.3-41.8,93.1-93.1,93.1c-51.4,0-93.1-41.8-93.1-93.1c0-12.3,2.5-24.2,6.8-34.9h-50.8v139.4
				c0,18,14.6,32.6,32.6,32.6h208.9c18,0,32.6-14.6,32.6-32.6V334.7h-50.9C823,345.5,825.5,357.3,825.5,369.6z"/>
		</g>
	</g>
</g>
</svg>
