<?xml version="1.0" encoding="utf-8"?>
<!-- Generator: Adobe Illustrator 21.0.0, SVG Export Plug-In . SVG Version: 6.00 Build 0)  -->
<svg version="1.1" id="Capa_1" xmlns="http://www.w3.org/2000/svg" xmlns:xlink="http://www.w3.org/1999/xlink" x="0px" y="0px"
	 viewBox="0 0 1366 768" style="enable-background:new 0 0 1366 768;" xml:space="preserve">
<style type="text/css">
	.st0{fill:none;stroke:#CCCCCC;stroke-miterlimit:10;}
	.st1{fill:#CDB79E;}
	.st2{fill:#FAFAD2;}
	.st3{fill:#EDE1B1;}
	.st4{display:none;}
	.st5{display:inline;fill:none;stroke:#CCCCCC;stroke-miterlimit:10;}
	.st6{display:inline;}
	.st7{fill:#73BCC7;}
	.st8{fill:#89CEDA;}
	.st9{fill:#A0E1ED;}
	.st10{fill:#E0C16C;}
	.st11{fill:#F0D27F;}
	.st12{fill:#FFE394;}
	.st13{fill:#6C74B8;}
	.st14{fill:#A8AEE6;}
	.st15{fill:#848BCC;}
	.st16{fill:#8B92D6;}
	.st17{fill:#B4B9ED;}
	.st18{fill:#D15E87;}
	.st19{fill:#E8749D;}
	.st20{fill:#FF8CB4;}
	.st21{fill:#D9A366;}
	.st22{fill:#ECB77B;}
	.st23{fill:#FFCC91;}
	.st24{fill:#B288C2;}
	.st25{fill:#C7A0D5;}
	.st26{fill:#DCB9E8;}
	.st27{fill:#6CB8AC;}
	.st28{fill:#A8E6DD;}
	.st29{fill:#84CCC1;}
	.st30{fill:#8BD6CB;}
	.st31{fill:#B4EDE5;}
</style>
<g>
	<line class="st0" x1="468.8" y1="1.9" x2="468.8" y2="213.3"/>
	<g>
		<polygon class="st1" points="418.4,236.5 411.1,294.3 362.7,308.2 		"/>
		<path class="st1" d="M389.2,147.2c-1,0-24.2-9.6-24.2-9.6l52.5,85.3L389.2,147.2z"/>
		<polygon class="st2" points="516.9,231.1 524.8,260.1 499.4,245.2 		"/>
		<polygon class="st3" points="516.9,231.1 439.5,217.3 390.1,278.1 471.8,280.9 		"/>
		<polygon class="st2" points="483.8,267.7 457.3,168.1 422,191 412.3,232.3 		"/>
		<polygon class="st3" points="457.3,168.1 411.7,232.1 378.1,125 		"/>
		<polygon class="st3" points="483.8,267.7 420.9,219.2 396.8,252.9 399.3,281.1 		"/>
		<polygon class="st2" points="410.6,233.6 403.3,291.4 354.9,305.4 		"/>
	</g>
	<path class="st0" d="M468.8,210.3C477.3,192.6,501.8,199.3,468.8,210.3"/>
</g>
<g>
	<g>
		<g class="st4">
			<line class="st5" x1="145.3" y1="-3.8" x2="145.3" y2="408.3"/>
			<path class="st5" d="M145.3,406.5C150.9,391.8,164.2,400.3,145.3,406.5"/>
			<path class="st5" d="M145.3,406.8c-3.5-9.6-8.6-14-9.6-8.9C135.1,400.7,140.4,405,145.3,406.8z"/>
			<g class="st6">
				<polygon class="st7" points="84.8,461.8 83.4,482.1 57.9,490.2 67.5,461.9 				"/>
				<path class="st8" d="M158,444.5l-91.1,26.4l24.1-59.1C90.9,411.8,135.5,423.5,158,444.5z"/>
				<path class="st7" d="M65.3,349.5c-0.6,0-32.8-5.2-32.8-5.2l58.4,67.5L65.3,349.5z"/>
				<path class="st9" d="M174,412.2c0,0,19.4,25.4,17.7,24.7c-1.6-0.8-26.1-9.9-26.7-10.8C164.5,425,174,412.2,174,412.2z"/>
				<path class="st8" d="M176.4,409.5c0,0-16.9,32.9-18.4,35c-10-12.9-19.7-38.5-19.7-38.5L176.4,409.5z"/>
				<polygon class="st9" points="158,444.5 108.5,345.6 90.9,411.8 				"/>
				<polygon class="st8" points="108.5,345.6 41.1,316.6 90.9,411.8 				"/>
				<path class="st9" d="M87.9,418.3c-0.6,2.4-14.4,61.2-14.4,61.2l-26.8,9.9C54.3,472,87.9,418.3,87.9,418.3z"/>
			</g>
		</g>
		<g class="st4">
			<line class="st5" x1="626.4" y1="-13.7" x2="626.4" y2="80.7"/>
			<path class="st5" d="M626.4,79.3C630.3,68.9,639.8,75,626.4,79.3"/>
			<path class="st5" d="M626.3,79.6c-2.5-6.8-6.1-10-6.8-6.4C619.1,75.2,622.9,78.3,626.3,79.6z"/>
			<g class="st6">
				<polygon class="st7" points="583.2,118.8 582.2,133.3 564,139.1 570.8,118.9 				"/>
				<path class="st8" d="M635.4,106.5l-65,18.9l17.2-42.2C587.5,83.2,619.4,91.5,635.4,106.5z"/>
				<path class="st7" d="M569.2,38.7c-0.4,0-23.4-3.7-23.4-3.7l41.7,48.2L569.2,38.7z"/>
				<path class="st9" d="M646.8,83.4c0,0,13.8,18.2,12.7,17.6c-1.2-0.6-18.6-7-19-7.7C640,92.6,646.8,83.4,646.8,83.4z"/>
				<path class="st8" d="M648.6,81.5c0,0-12.1,23.4-13.2,25c-7.1-9.2-14-27.5-14-27.5L648.6,81.5z"/>
				<polygon class="st9" points="635.4,106.5 600.1,35.9 587.5,83.2 				"/>
				<polygon class="st8" points="600.1,35.9 552,15.2 587.5,83.2 				"/>
				<path class="st9" d="M585.4,87.8c-0.4,1.7-10.3,43.7-10.3,43.7l-19.1,7.1C561.4,126.1,585.4,87.8,585.4,87.8z"/>
			</g>
		</g>
		<g class="st4">
			<line class="st5" x1="-4.9" y1="-25.2" x2="-4.9" y2="362.4"/>
			<g class="st6">
				<polygon class="st10" points="-49,408.7 -51.4,425.3 -72.9,430.4 -63.3,407.7 				"/>
				<path class="st11" d="M12.3,399l-76.6,16.1l23.4-47.2C-40.9,367.9-4.9,380.3,12.3,399z"/>
				<path class="st10" d="M-58.2,315c-0.5-0.1-26.6-6.3-26.6-6.3l43.9,59.2L-58.2,315z"/>
				<path class="st12" d="M27.5,373.4c0,0,14.4,22.2,13.1,21.4c-1.3-0.7-20.9-9.7-21.3-10.6C18.8,383.4,27.5,373.4,27.5,373.4z"/>
				<path class="st11" d="M29.6,371.3c0,0-15.9,26-17.3,27.7c-7.4-11.3-13.8-32.9-13.8-32.9L29.6,371.3z"/>
				<polygon class="st12" points="12.3,399 -22.4,314.5 -40.9,367.9 				"/>
				<polygon class="st11" points="-22.4,314.5 -76.1,286.5 -40.9,367.9 				"/>
				<path class="st12" d="M-43.8,373.1c-0.6,1.9-15.6,49.5-15.6,49.5l-22.7,6.5C-74.8,415.2-43.8,373.1-43.8,373.1z"/>
			</g>
		</g>
		<g class="st4">
			<line class="st5" x1="102.4" y1="0.7" x2="102.4" y2="201.4"/>
			<path class="st5" d="M102.4,199.5C108,184.9,121.3,193.4,102.4,199.5"/>
			<path class="st5" d="M102.3,199.9c-3.5-9.6-8.6-14-9.6-8.9C92.2,193.7,97.5,198.1,102.3,199.9z"/>
			<g class="st6">
				<polygon class="st13" points="89.9,273.5 102.5,328.6 63.3,357.4 				"/>
				<path class="st14" d="M33.9,202.1c-0.9,0.3-25.1-0.6-25.1-0.6l75.8,60.1L33.9,202.1z"/>
				<polygon class="st15" points="177.3,235.9 194.1,259.6 166.1,254.6 				"/>
				<polygon class="st14" points="177.3,235.9 102.7,249.1 78.1,320.9 153,296.2 				"/>
				<polygon class="st16" points="159.5,280.1 102.5,198.4 78.1,231 83,271.8 				"/>
				<polygon class="st13" points="102.5,198.4 82.4,271.8 16.4,185.5 				"/>
				<polygon class="st17" points="159.5,280.1 86.4,257 75.8,295.7 87.4,320.5 				"/>
				<polygon class="st15" points="81.9,273.5 94.4,328.6 55.3,357.4 				"/>
			</g>
		</g>
		<g class="st4">
			<line class="st5" x1="281.3" y1="-3.8" x2="281.3" y2="218.7"/>
			<path class="st5" d="M281.3,216.8C286.9,202.2,300.1,210.7,281.3,216.8"/>
			<path class="st5" d="M281.3,216.8c-0.5-10.2-4.1-15.9-6.6-11.4C273.4,207.9,277.2,213.6,281.3,216.8z"/>
			<g class="st6">
				<polygon class="st18" points="249.3,331.4 249.3,355.3 220.1,366.7 229.1,332.9 				"/>
				<path class="st19" d="M333.6,305.4l-104.5,38.1l23.5-71.1C252.6,272.5,305.7,282.6,333.6,305.4z"/>
				<path class="st18" d="M217.7,201.6c-0.7,0-38.7-3.5-38.7-3.5l73.6,74.3L217.7,201.6z"/>
				<path class="st20" d="M349.8,266.3c0,0,24.7,28.2,22.7,27.5c-2-0.8-31.3-9.5-32-10.5C339.6,282.1,349.8,266.3,349.8,266.3z"/>
				<path class="st19" d="M352.4,263c0,0-17.2,39.8-18.8,42.4c-12.7-14.3-26-43.5-26-43.5L352.4,263z"/>
				<polygon class="st20" points="333.6,305.4 268,193.7 252.6,272.5 				"/>
				<polygon class="st19" points="268,193.7 186.8,165.1 252.6,272.5 				"/>
				<path class="st20" d="M249.6,280.2c-0.5,2.8-12.1,72.7-12.1,72.7l-30.5,13.8C214.4,345.7,249.6,280.2,249.6,280.2z"/>
			</g>
		</g>
		<g class="st4">
			<line class="st5" x1="-53.6" y1="-33.5" x2="-53.6" y2="392.7"/>
			<path class="st5" d="M-53.6,390.8C-48,376.1-34.7,384.7-53.6,390.8"/>
			<path class="st5" d="M-53.6,390.8c-0.5-10.2-4.1-16-6.6-11.4C-61.6,381.9-57.7,387.6-53.6,390.8z"/>
			<g class="st6">
				<polygon class="st18" points="-85.9,506.2 -85.9,530.3 -115.3,541.8 -106.2,507.8 				"/>
				<path class="st19" d="M-1,480.1l-105.3,38.4l23.7-71.6C-82.6,446.9-29.1,457.1-1,480.1z"/>
				<path class="st18" d="M-117.7,375.5c-0.7,0-39-3.5-39-3.5l74.1,74.9L-117.7,375.5z"/>
				<path class="st20" d="M15.3,440.7c0,0,24.8,28.4,22.9,27.7c-2-0.8-31.5-9.5-32.3-10.6C5.1,456.6,15.3,440.7,15.3,440.7z"/>
				<path class="st19" d="M18,437.3c0,0-17.3,40.1-19,42.8c-12.8-14.4-26.2-43.8-26.2-43.8L18,437.3z"/>
				<polygon class="st20" points="-1,480.1 -67.1,367.5 -82.6,446.9 				"/>
				<polygon class="st19" points="-67.1,367.5 -148.8,338.7 -82.6,446.9 				"/>
				<path class="st20" d="M-85.6,454.7c-0.5,2.8-12.2,73.3-12.2,73.3l-30.8,13.9C-121,520.6-85.6,454.7-85.6,454.7z"/>
			</g>
		</g>
		<g>
			<line class="st0" x1="226.8" y1="1.9" x2="226.8" y2="104.6"/>
			<path class="st0" d="M226.8,102.5C232.9,86.4,247.5,95.8,226.8,102.5"/>
			<path class="st0" d="M226.7,102.9c-3.8-10.5-9.4-15.4-10.5-9.8C215.5,96.1,221.4,100.9,226.7,102.9z"/>
			<g>
				<polygon class="st21" points="168,149.6 165.3,168.5 140.9,174.2 151.8,148.5 				"/>
				<path class="st22" d="M237.5,138.7l-86.9,18.3l26.6-53.5C177.2,103.4,218,117.5,237.5,138.7z"/>
				<path class="st21" d="M157.6,43.5c-0.5-0.1-30.2-7.1-30.2-7.1l49.8,67.1L157.6,43.5z"/>
				<path class="st23" d="M254.7,109.6c0,0,16.3,25.1,14.8,24.3c-1.5-0.8-23.6-11-24.1-12C244.9,120.9,254.7,109.6,254.7,109.6z"/>
				<path class="st22" d="M257.1,107.3c0,0-18.1,29.5-19.6,31.4c-8.4-12.8-15.7-37.3-15.7-37.3L257.1,107.3z"/>
				<polygon class="st23" points="237.5,138.7 198.2,42.9 177.2,103.4 				"/>
				<polygon class="st22" points="198.2,42.9 137.3,11.1 177.2,103.4 				"/>
				<path class="st23" d="M173.9,109.2c-0.7,2.2-17.7,56.1-17.7,56.1l-25.7,7.4C138.8,157,173.9,109.2,173.9,109.2z"/>
			</g>
		</g>
		<g class="st4">
			<line class="st5" x1="493.6" y1="0.7" x2="493.6" y2="127.3"/>
			<g class="st6">
				<polygon class="st24" points="467.2,159.7 465.4,172.4 449,176.3 456.3,159 				"/>
				<path class="st25" d="M513.9,152.4l-58.4,12.3l17.8-35.9C473.4,128.7,500.8,138.1,513.9,152.4z"/>
				<path class="st24" d="M460.2,88.5c-0.4-0.1-20.3-4.8-20.3-4.8l33.4,45.1L460.2,88.5z"/>
				<path class="st26" d="M525.4,132.9c0,0,11,16.9,10,16.3c-1-0.6-15.9-7.4-16.2-8C518.9,140.5,525.4,132.9,525.4,132.9z"/>
				<path class="st25" d="M527.1,131.3c0,0-12.1,19.8-13.2,21.1c-5.7-8.6-10.5-25.1-10.5-25.1L527.1,131.3z"/>
				<polygon class="st26" points="513.9,152.4 487.5,88.1 473.4,128.7 				"/>
				<polygon class="st25" points="487.5,88.1 446.6,66.7 473.4,128.7 				"/>
				<path class="st26" d="M471.2,132.6c-0.5,1.5-11.9,37.7-11.9,37.7l-17.2,5C447.6,164.7,471.2,132.6,471.2,132.6z"/>
			</g>
		</g>
		<g class="st4">
			<line class="st5" x1="-69.5" y1="-13.7" x2="-69.5" y2="219.3"/>
			<g class="st6">
				<polygon class="st27" points="-124.5,229.3 -131.6,285.2 -178.1,298.7 				"/>
				<path class="st28" d="M-152.7,143c-0.9,0-23.3-9.3-23.3-9.3l50.6,82.5L-152.7,143z"/>
				<polygon class="st29" points="-29.7,224.1 -22.1,252.1 -46.6,237.8 				"/>
				<polygon class="st28" points="-29.7,224.1 -104.2,210.8 -151.8,269.6 -73.1,272.3 				"/>
				<polygon class="st30" points="-61.6,259.5 -87.1,163.2 -121.1,185.3 -130.4,225.3 				"/>
				<polygon class="st27" points="-87.1,163.2 -131,225 -163.4,121.5 				"/>
				<polygon class="st31" points="-61.6,259.5 -122.1,212.6 -145.3,245.2 -142.9,272.5 				"/>
				<polygon class="st29" points="-132.1,226.5 -139.1,282.4 -185.7,296 				"/>
			</g>
			<path class="st5" d="M-69.5,217.2C-63.3,200.7-48.3,210.3-69.5,217.2"/>
		</g>
		<g class="st4">
			<line class="st5" x1="6.4" y1="-9.5" x2="6.4" y2="106"/>
			<g class="st6">
				<polygon class="st24" points="-43.9,167.7 -47.4,191.9 -78.5,199.2 -64.6,166.4 				"/>
				<path class="st25" d="M44.9,153.8l-111,23.3l33.9-68.4C-32.2,108.7,20,126.6,44.9,153.8z"/>
				<path class="st24" d="M-57.2,32.1C-57.9,32-95.8,23-95.8,23l63.6,85.7L-57.2,32.1z"/>
				<path class="st26" d="M66.9,116.6c0,0,20.8,32.1,19,31c-1.9-1.1-30.2-14.1-30.8-15.3C54.4,131.1,66.9,116.6,66.9,116.6z"/>
				<path class="st25" d="M70,113.6c0,0-23.1,37.7-25.1,40.1c-10.8-16.3-20-47.7-20-47.7L70,113.6z"/>
				<polygon class="st26" points="44.9,153.8 -5.3,31.4 -32.2,108.7 				"/>
				<polygon class="st25" points="-5.3,31.4 -83.1,-9.2 -32.2,108.7 				"/>
				<path class="st26" d="M-36.3,116.2c-0.9,2.8-22.7,71.7-22.7,71.7l-32.8,9.5C-81.2,177.1-36.3,116.2-36.3,116.2z"/>
			</g>
		</g>
	</g>
</g>
<g>
	<line class="st0" x1="689.4" y1="1.9" x2="689.4" y2="398.9"/>
	<g>
		<polygon class="st10" points="642.8,446.4 640.2,463.4 617.6,468.6 627.7,445.4 		"/>
		<path class="st11" d="M707.5,436.5L626.6,453l24.7-48.3C651.3,404.6,689.3,417.3,707.5,436.5z"/>
		<path class="st10" d="M633.1,350.5c-0.5-0.1-28.1-6.5-28.1-6.5l46.4,60.6L633.1,350.5z"/>
		<path class="st12" d="M723.5,410.2c0,0,15.2,22.7,13.8,21.9c-1.4-0.8-22-10-22.5-10.8C714.4,420.5,723.5,410.2,723.5,410.2z"/>
		<path class="st11" d="M725.8,408.1c0,0-16.8,26.6-18.3,28.4c-7.8-11.5-14.6-33.8-14.6-33.8L725.8,408.1z"/>
		<polygon class="st12" points="707.5,436.5 670.9,349.9 651.3,404.6 		"/>
		<polygon class="st11" points="670.9,349.9 614.2,321.2 651.3,404.6 		"/>
		<path class="st12" d="M648.3,409.9c-0.7,2-16.5,50.7-16.5,50.7l-23.9,6.7C615.6,453,648.3,409.9,648.3,409.9z"/>
	</g>
</g>
</svg>
