<?xml version="1.0" encoding="utf-8"?>
<!-- Generator: Adobe Illustrator 21.0.0, SVG Export Plug-In . SVG Version: 6.00 Build 0)  -->
<svg version="1.1" id="Capa_1" xmlns="http://www.w3.org/2000/svg" xmlns:xlink="http://www.w3.org/1999/xlink" x="0px" y="0px"
	 viewBox="0 0 1366 768" style="enable-background:new 0 0 1366 768;" xml:space="preserve">
<style type="text/css">
	.st0{fill:#EDE1B1;}
</style>
<g>
	<path class="st0" d="M760,33c-166.8,0-302,135.2-302,302s135.2,302,302,302s302-135.2,302-302S926.8,33,760,33z M933.6,246
		c0.2,3.8,0.3,7.7,0.3,11.6c0,118.3-90.1,254.8-254.8,254.8c-50.6,0-97.6-14.8-137.3-40.2c7,0.8,14.1,1.3,21.4,1.3
		c42,0,80.6-14.3,111.2-38.3c-39.2-0.7-72.3-26.6-83.7-62.2c5.5,1,11.1,1.6,16.8,1.6c8.2,0,16.1-1.1,23.6-3.1
		c-41-8.2-71.8-44.4-71.8-87.8c0-0.4,0-0.8,0-1.1c12.1,6.7,25.9,10.7,40.6,11.2c-24-16.1-39.8-43.5-39.8-74.5
		c0-16.4,4.4-31.8,12.1-45c44.2,54.2,110.2,89.8,184.6,93.6c-1.5-6.6-2.3-13.4-2.3-20.4c0-49.5,40.1-89.5,89.5-89.5
		c25.8,0,49,10.9,65.4,28.3c20.4-4,39.6-11.5,56.9-21.7c-6.7,20.9-20.9,38.5-39.4,49.5c18.1-2.2,35.4-7,51.4-14.1
		C966.3,217.6,951.1,233.4,933.6,246z"/>
</g>
</svg>
